<svg width="322" height="284" viewBox="0 0 322 284" fill="none" xmlns="http://www.w3.org/2000/svg">
<g filter="url(#filter0_f)">
<rect x="264.75" y="127" width="40" height="40" rx="20" fill="#8C9D5C" fill-opacity="0.38"/>
</g>
<g filter="url(#filter1_f)">
<rect x="17.25" y="131.73" width="106" height="105" rx="52.5" fill="#B9D271" fill-opacity="0.48"/>
</g>
<g filter="url(#filter2_f)">
<rect x="34.75" y="17" width="40" height="40" rx="20" fill="#8C9D5C" fill-opacity="0.38"/>
</g>
<path d="M41.2468 113.251C41.2468 161.024 79.9742 199.751 127.747 199.751C166.746 199.751 199.718 173.942 210.512 138.472C197.423 168.949 167.137 190.292 131.866 190.292C84.6153 190.292 46.3113 151.988 46.3113 104.738C46.3113 90.0261 50.0248 76.1815 56.5654 64.0903C46.9057 78.0504 41.2468 94.9901 41.2468 113.251Z" fill="black"/>
<path fill-rule="evenodd" clip-rule="evenodd" d="M195.577 166.933L291.418 255.492C293.062 257.013 294.371 258.86 295.262 260.915C296.152 262.969 296.605 265.187 296.591 267.427C296.576 269.666 296.095 271.878 295.178 273.922C294.261 275.965 292.928 277.795 291.265 279.294C289.599 280.784 287.641 281.911 285.516 282.604C283.391 283.297 281.146 283.54 278.922 283.319C276.697 283.097 274.544 282.415 272.598 281.316C270.651 280.217 268.955 278.725 267.616 276.936L181.747 180.828C186.864 176.733 191.506 172.07 195.577 166.933Z" fill="black"/>
<path fill-rule="evenodd" clip-rule="evenodd" d="M131.869 20.4919C85.3424 20.4919 47.625 58.2093 47.625 104.736C47.625 151.263 85.3424 188.98 131.869 188.98C178.396 188.98 216.113 151.263 216.113 104.736C216.113 58.2093 178.396 20.4919 131.869 20.4919ZM45.0046 104.736C45.0046 56.7621 83.8952 17.8716 131.869 17.8716C179.843 17.8716 218.734 56.7621 218.734 104.736C218.734 152.71 179.843 191.601 131.869 191.601C83.8952 191.601 45.0046 152.71 45.0046 104.736Z" fill="black"/>
<path fill-rule="evenodd" clip-rule="evenodd" d="M131.863 36.6487C94.2607 36.6487 63.7779 67.1315 63.7779 104.734C63.7779 142.336 94.2607 172.819 131.863 172.819C169.466 172.819 199.949 142.336 199.949 104.734C199.949 67.1315 169.466 36.6487 131.863 36.6487ZM61.1575 104.734C61.1575 65.6843 92.8135 34.0283 131.863 34.0283C170.913 34.0283 202.569 65.6843 202.569 104.734C202.569 143.784 170.913 175.44 131.863 175.44C92.8135 175.44 61.1575 143.784 61.1575 104.734Z" fill="black"/>
<path fill-rule="evenodd" clip-rule="evenodd" d="M142.086 87.1367C131.664 83.2104 119.552 85.5836 109.833 91.4021C100.115 97.22 92.5354 106.144 86.0248 115.65C85.6159 116.247 84.8005 116.399 84.2035 115.99C83.6065 115.581 83.454 114.766 83.8629 114.169C90.454 104.546 98.2905 95.2584 108.487 89.1538C118.681 83.0513 131.632 80.402 143.001 84.6814C155.614 89.2308 163.888 101.119 169.912 112.62C170.248 113.261 170 114.053 169.359 114.388C168.718 114.724 167.926 114.477 167.591 113.836C161.606 102.411 153.724 91.3307 142.104 87.1433L142.086 87.1367Z" fill="black"/>
<path fill-rule="evenodd" clip-rule="evenodd" d="M169.17 111.86C169.842 112.128 170.17 112.89 169.902 113.562C163.784 128.923 151.314 142.963 134.399 144.603C99.9675 147.998 86.8598 121.69 84.0837 116.119C83.963 115.876 83.8618 115.673 83.7792 115.513C83.447 114.871 83.6987 114.08 84.3415 113.748C84.9843 113.416 85.7748 113.667 86.107 114.31C86.1927 114.476 86.296 114.683 86.4178 114.927C89.19 120.478 101.541 145.21 134.143 141.995L134.145 141.995C149.678 140.49 161.532 127.497 167.468 112.593C167.736 111.921 168.498 111.593 169.17 111.86Z" fill="black"/>
<path d="M82.4656 88.2925L92.2482 98.6865Z" fill="white"/>
<path fill-rule="evenodd" clip-rule="evenodd" d="M81.5695 87.338C82.0964 86.8421 82.9255 86.8672 83.4215 87.3942L93.2041 97.7882C93.7 98.3151 93.6749 99.1443 93.148 99.6402C92.621 100.136 91.7919 100.111 91.296 99.5841L81.5133 89.1901C81.0174 88.6631 81.0425 87.834 81.5695 87.338Z" fill="black"/>
<path d="M99.2898 77.2622C101.619 82.1535 104.094 86.9721 106.714 91.7178Z" fill="white"/>
<path fill-rule="evenodd" clip-rule="evenodd" d="M98.7253 76.0817C99.3786 75.7706 100.16 76.048 100.472 76.7013C102.789 81.5689 105.252 86.3641 107.86 91.0869C108.21 91.7203 107.98 92.5174 107.346 92.8671C106.713 93.2169 105.916 92.9869 105.566 92.3535C102.933 87.5848 100.446 82.7429 98.1057 77.8279C97.7946 77.1746 98.072 76.3928 98.7253 76.0817Z" fill="black"/>
<path d="M121.325 70.4731L122.81 83.2473Z" fill="white"/>
<path fill-rule="evenodd" clip-rule="evenodd" d="M121.173 69.1734C121.892 69.0899 122.543 69.6048 122.626 70.3236L124.111 83.0978C124.195 83.8165 123.68 84.4669 122.961 84.5505C122.242 84.634 121.592 84.1191 121.508 83.4003L120.023 70.6261C119.94 69.9074 120.455 69.257 121.173 69.1734Z" fill="black"/>
<path d="M147.653 86.917C150.907 80.762 154.879 75.0153 159.488 69.7974Z" fill="white"/>
<path fill-rule="evenodd" clip-rule="evenodd" d="M160.354 68.816C160.896 69.295 160.947 70.123 160.468 70.6653C155.928 75.8055 152.014 81.4666 148.809 87.5298C148.471 88.1696 147.678 88.414 147.039 88.0759C146.399 87.7377 146.155 86.945 146.493 86.3053C149.795 80.0587 153.827 74.2263 158.504 68.9306C158.983 68.3883 159.811 68.337 160.354 68.816Z" fill="black"/>
<path d="M161.497 101.066C166.868 98.0961 172.131 94.9517 177.306 91.6763Z" fill="white"/>
<path fill-rule="evenodd" clip-rule="evenodd" d="M178.415 90.9734C178.802 91.5849 178.62 92.3942 178.009 92.7812C172.815 96.0686 167.53 99.2265 162.133 102.21C161.499 102.56 160.702 102.331 160.352 101.698C160.002 101.064 160.231 100.267 160.865 99.9171C166.211 96.9615 171.451 93.8305 176.607 90.567C177.219 90.1801 178.028 90.362 178.415 90.9734Z" fill="black"/>
<path d="M131.25 128.75C138.982 128.75 145.25 122.482 145.25 114.75C145.25 107.018 138.982 100.75 131.25 100.75C123.518 100.75 117.25 107.018 117.25 114.75C117.25 122.482 123.518 128.75 131.25 128.75Z" fill="black"/>
<path fill-rule="evenodd" clip-rule="evenodd" d="M166.809 112.064C155.825 103.174 140.708 100.344 126.458 102.104C112.2 103.865 98.7442 109.736 85.93 116.61C85.2924 116.953 84.4982 116.713 84.1561 116.075C83.814 115.438 84.0536 114.644 84.6912 114.301C97.6001 107.376 111.396 101.324 126.137 99.5036C140.884 97.6823 156.776 100.573 168.457 110.027C169.02 110.482 169.107 111.307 168.652 111.869C168.196 112.432 167.371 112.519 166.809 112.064Z" fill="black"/>
<defs>
<filter id="filter0_f" x="247.75" y="110" width="74" height="74" filterUnits="userSpaceOnUse" color-interpolation-filters="sRGB">
<feFlood flood-opacity="0" result="BackgroundImageFix"/>
<feBlend mode="normal" in="SourceGraphic" in2="BackgroundImageFix" result="shape"/>
<feGaussianBlur stdDeviation="8.5" result="effect1_foregroundBlur"/>
</filter>
<filter id="filter1_f" x="0.25" y="114.73" width="140" height="139" filterUnits="userSpaceOnUse" color-interpolation-filters="sRGB">
<feFlood flood-opacity="0" result="BackgroundImageFix"/>
<feBlend mode="normal" in="SourceGraphic" in2="BackgroundImageFix" result="shape"/>
<feGaussianBlur stdDeviation="8.5" result="effect1_foregroundBlur"/>
</filter>
<filter id="filter2_f" x="17.75" y="0" width="74" height="74" filterUnits="userSpaceOnUse" color-interpolation-filters="sRGB">
<feFlood flood-opacity="0" result="BackgroundImageFix"/>
<feBlend mode="normal" in="SourceGraphic" in2="BackgroundImageFix" result="shape"/>
<feGaussianBlur stdDeviation="8.5" result="effect1_foregroundBlur"/>
</filter>
</defs>
</svg>
