<svg width="234" height="174" viewBox="0 0 234 174" fill="none" xmlns="http://www.w3.org/2000/svg">
<path d="M125.14 56.3636C125.13 56.2751 125.094 56.1914 125.038 56.1224C124.982 56.0535 124.907 56.0024 124.822 55.9752C124.737 55.948 124.646 55.9459 124.56 55.9691C124.474 55.9924 124.397 56.04 124.337 56.1063C121.095 59.8227 116.511 62.101 111.591 62.4414C108.435 62.6382 104.333 61.7678 102.289 58.7554C102.221 58.655 102.116 58.5858 101.996 58.5631C101.877 58.5404 101.754 58.566 101.653 58.6343C101.553 58.7025 101.484 58.8078 101.461 58.9271C101.438 59.0463 101.464 59.1697 101.532 59.27C103.447 62.0932 107.224 63.6221 111.644 63.3497C116.423 63.0413 120.916 60.9698 124.254 57.5368C124.153 60.2357 123.252 62.8437 121.666 65.0296C120.08 67.2154 117.88 68.8806 115.345 69.8135C113.746 70.3993 112.013 70.5148 110.35 70.1465C109.546 69.9549 108.796 69.5827 108.158 69.0581C107.519 68.5335 107.008 67.8704 106.664 67.1189C106.61 67.0215 106.521 66.9476 106.416 66.9112C106.31 66.8747 106.195 66.8784 106.092 66.9214C105.989 66.9645 105.906 67.0439 105.858 67.1445C105.81 67.2452 105.8 67.36 105.831 67.4671C106.222 68.3523 106.813 69.1345 107.558 69.7519C108.302 70.3693 109.181 70.805 110.123 71.0245C110.788 71.1935 111.472 71.2775 112.159 71.2742C113.339 71.2605 114.509 71.0587 115.626 70.6763C118.548 69.6434 121.056 67.6892 122.772 65.108C124.487 62.5267 125.318 59.458 125.14 56.3636Z" fill="black"/>
<path d="M109.653 56.5438C110.334 56.7459 111.04 56.8479 111.75 56.8466C113.138 56.8485 114.499 56.4688 115.686 55.7491C115.76 55.7024 115.819 55.6356 115.856 55.5566C115.894 55.4775 115.908 55.3894 115.898 55.3025C115.887 55.2175 115.852 55.1372 115.797 55.0715C115.742 55.0057 115.669 54.9572 115.587 54.9317C115.289 54.7649 115.06 54.4962 114.944 54.1748C113.071 50.7048 112.441 46.6989 113.158 42.8215C113.17 42.7628 113.17 42.7022 113.158 42.6435C113.146 42.5847 113.122 42.5289 113.088 42.4795C113.054 42.4301 113.011 42.3879 112.96 42.3557C112.91 42.3234 112.853 42.3016 112.794 42.2917C112.676 42.2716 112.555 42.2983 112.456 42.3661C112.357 42.4339 112.288 42.5375 112.264 42.655C111.51 46.7411 112.172 50.9626 114.142 54.6213C114.269 54.8635 114.421 55.0918 114.596 55.3025C113.133 55.991 111.469 56.1203 109.918 55.6658C109.802 55.6329 109.677 55.6469 109.571 55.705C109.465 55.763 109.386 55.8604 109.35 55.9762C109.333 56.0333 109.327 56.0934 109.333 56.1529C109.338 56.2123 109.356 56.2701 109.384 56.3229C109.412 56.3756 109.45 56.4223 109.497 56.4602C109.543 56.4981 109.596 56.5265 109.653 56.5438Z" fill="black"/>
<path d="M104.984 49.4999C105.892 49.4999 106.619 48.2813 106.619 46.7675C106.619 45.2537 105.862 44.0352 104.984 44.0352C104.106 44.0352 103.349 45.2916 103.349 46.8054C103.349 48.3191 104.083 49.4999 104.984 49.4999Z" fill="black"/>
<path d="M120.538 49.4999C121.441 49.4999 122.173 48.2766 122.173 46.7675C122.173 45.2585 121.441 44.0352 120.538 44.0352C119.635 44.0352 118.903 45.2585 118.903 46.7675C118.903 48.2766 119.635 49.4999 120.538 49.4999Z" fill="black"/>
<path d="M156.899 19.0508L141.057 27.7323L133.64 22.7292C134.957 24.5004 139.445 36.4137 139.445 36.4137L156.899 19.0508Z" fill="black"/>
<path d="M133.344 22.5322L133.639 22.7287C133.51 22.5851 133.405 22.4718 133.344 22.5322Z" fill="black"/>
<path d="M148.913 78.8061C148.726 78.0714 148.38 77.3867 147.899 76.8004C147.142 75.9754 145.432 75.6121 144.236 75.491C144.801 74.4701 145.202 73.3667 145.424 72.2212C146.075 68.732 144.667 65.1141 141.943 63.4186C141.432 63.0718 140.855 62.8343 140.248 62.7209C139.641 62.6076 139.017 62.621 138.415 62.7601V43.4823C140.055 43.6917 141.705 43.7979 143.358 43.8002C157.474 43.8002 168.963 36.6703 168.963 27.9056C168.963 19.1408 157.474 11.9883 143.358 11.9883C129.242 11.9883 117.753 19.1257 117.753 27.8829C117.747 28.6882 117.839 29.4911 118.025 30.2746H94.501C93.8612 30.2739 93.2279 30.4032 92.6396 30.6546C92.0512 30.906 91.5201 31.2743 91.0784 31.7372C90.6368 32.2001 90.2938 32.748 90.0702 33.3475C89.8467 33.9469 89.7473 34.5856 89.778 35.2247C89.4072 46.7899 89.2709 56.6824 89.3542 67.0138C80.6803 76.0283 77.3651 82.1516 72.5665 97.925C69.433 108.219 69.872 116.363 70.2958 124.234C70.8332 134.165 71.3479 143.543 65.0809 156.78C65.0288 156.889 65.0219 157.014 65.0616 157.127C65.1014 157.241 65.1845 157.334 65.2928 157.386C65.3543 157.415 65.4215 157.431 65.4896 157.431C65.5748 157.43 65.6581 157.406 65.7303 157.36C65.8024 157.315 65.8606 157.25 65.8983 157.174C72.2637 143.762 71.749 134.271 71.1965 124.227C70.7878 116.438 70.3412 108.347 73.4293 98.2051C78.1144 82.8025 81.195 76.9442 89.3618 68.3308C89.4147 73.5382 89.5283 78.8818 89.6872 84.6341C89.6911 84.7007 89.7094 84.7655 89.7407 84.8243C89.7721 84.8831 89.8158 84.9344 89.8689 84.9747V85.2018C89.5585 85.2472 89.2407 85.3002 88.9303 85.3683C84.056 86.4279 79.6963 90.4849 76.9715 96.4945C75.2534 100.279 74.6328 103.791 75.1399 106.879C75.1561 106.986 75.21 107.084 75.2919 107.154C75.3738 107.225 75.4782 107.264 75.5864 107.265H75.6394C75.7568 107.243 75.861 107.176 75.9302 107.079C75.9993 106.981 76.028 106.861 76.0103 106.743C75.835 105.624 75.8044 104.486 75.9195 103.359C76.0708 101.97 76.378 100.601 76.8353 99.2799C77.1002 98.523 77.4105 97.6904 77.7738 96.873C80.3775 91.1282 84.5101 87.2605 89.1271 86.2766C91.4233 85.8878 93.7638 85.8343 96.0753 86.1176C97.4831 86.2236 98.9515 86.3371 100.45 86.4734L101.714 86.602C101.714 86.6929 101.714 86.7837 101.714 86.8745C101.723 87.5241 101.875 88.1638 102.16 88.7475C102.446 89.3311 102.857 89.8444 103.364 90.2502C103.824 90.6279 104.333 90.9411 104.878 91.1812C105.687 91.5266 106.533 91.7804 107.398 91.9381C109.627 92.3527 111.89 92.5554 114.157 92.5436H114.997C114.847 93.6942 114.314 94.7608 113.484 95.5711C111.97 97.0319 109.76 97.5996 108.027 97.9326C104.397 98.6276 100.675 98.6992 97.0214 98.1445C96.2645 98.031 95.5077 97.8948 94.7508 97.7282L94.5994 97.645C94.4994 97.6072 94.3891 97.6072 94.2891 97.645C93.396 97.4255 92.5028 97.1909 91.6324 96.8881C91.518 96.85 91.3931 96.8588 91.2852 96.9128C91.1773 96.9667 91.0953 97.0613 91.0572 97.1757C91.019 97.2901 91.0279 97.415 91.0818 97.5229C91.1358 97.6308 91.2304 97.7128 91.3448 97.751C92.3666 98.084 93.396 98.3565 94.4405 98.5911C100.624 101.619 104.84 107.098 105.461 112.851C105.727 116.023 105.097 119.207 103.644 122.039C102.24 124.91 100.324 127.5 97.9902 129.684C97.9331 129.747 97.8951 129.826 97.8805 129.91C97.8659 129.994 97.8754 130.081 97.9078 130.16C97.9402 130.239 97.9943 130.307 98.0637 130.357C98.1332 130.407 98.2153 130.436 98.3006 130.441C98.4181 130.442 98.5318 130.399 98.6185 130.32C101.155 127.947 103.211 125.107 104.674 121.956C104.976 121.275 105.241 120.594 105.468 119.905C105.708 119.16 105.905 118.402 106.059 117.634H132.958C134.281 117.634 135.55 117.11 136.488 116.177C137.426 115.244 137.955 113.977 137.961 112.654V108.408C138.378 108.264 138.779 108.113 139.18 107.946C140.128 107.551 141.044 107.083 141.92 106.546C135.963 123.25 123.868 140.712 112.606 140.901C112.515 140.905 112.428 140.935 112.354 140.987C112.28 141.039 112.223 141.112 112.189 141.196L104.56 161.413C104.538 161.469 104.528 161.529 104.529 161.589C104.531 161.649 104.544 161.708 104.569 161.763C104.594 161.818 104.629 161.868 104.673 161.909C104.717 161.95 104.768 161.982 104.825 162.003C104.878 162.01 104.931 162.01 104.984 162.003C105.076 162.003 105.166 161.974 105.242 161.921C105.318 161.869 105.375 161.794 105.408 161.708L112.931 141.771C124.761 141.257 137.31 122.91 143.169 105.736C144.636 104.681 145.916 103.386 146.953 101.906C148.808 99.2345 149.784 95.2532 147.771 92.3846C147.546 92.0436 147.247 91.7585 146.895 91.5512C146.544 91.3439 146.149 91.2199 145.742 91.1888C147.29 89.5714 148.396 87.5822 148.951 85.4132C149.507 83.2442 149.494 80.9686 148.913 78.8061ZM138.824 107.136C135.836 108.313 132.671 108.973 129.462 109.089C128.43 109.162 127.394 109.144 126.366 109.036C128.137 108.378 130.839 107.098 131.906 105.184C132.145 104.778 132.296 104.326 132.35 103.858C132.403 103.39 132.358 102.916 132.217 102.466C131.24 99.2345 127.017 99.295 124.383 99.6659C125.826 98.9897 127.354 98.5086 128.924 98.2354C129.003 98.2176 129.076 98.1786 129.135 98.1226C129.193 98.0666 129.236 97.9957 129.257 97.9175C131.194 97.7517 133.109 97.3891 134.972 96.8351C138.226 95.942 141.935 94.6856 144.811 92.1727C145.22 92.0304 145.665 92.0275 146.075 92.1644C146.486 92.3013 146.84 92.5704 147.082 92.9296C148.845 95.4425 147.937 98.9847 146.257 101.414C144.374 103.989 141.795 105.974 138.824 107.136ZM118.661 27.8829C118.661 19.6101 129.742 12.8814 143.358 12.8814C156.974 12.8814 168.055 19.6253 168.055 27.8829C168.055 36.1405 156.974 42.8768 143.358 42.8768C141.395 42.8746 139.434 42.7279 137.492 42.4378C137.385 42.4194 137.274 42.441 137.182 42.4983L127.562 48.4474L131.611 41.6355C131.646 41.5773 131.668 41.512 131.675 41.4443C131.682 41.3766 131.673 41.3083 131.65 41.2443C131.627 41.1804 131.589 41.1225 131.541 41.0749C131.492 41.0273 131.433 40.9913 131.369 40.9694C123.528 38.343 118.661 33.3173 118.661 27.8829ZM141.488 64.2134C143.88 65.7271 145.144 68.959 144.561 72.085C143.866 75.0981 142.071 77.7432 139.528 79.5024C136.945 81.2718 134.117 82.6539 131.134 83.6048C129.094 84.374 126.986 84.9468 124.837 85.3153C126.295 84.0368 127.319 82.3358 127.766 80.4486C127.973 79.6128 127.95 78.7364 127.698 77.913C127.563 77.4791 127.336 77.0797 127.031 76.7425C126.727 76.4053 126.352 76.1384 125.934 75.9602C124.961 75.6669 123.916 75.7177 122.975 76.104C121.783 76.5257 120.632 77.0579 119.539 77.6935C120.4 76.3571 121.416 75.1274 122.566 74.0302C126.305 70.4425 131.649 66.9306 138.09 63.8652H138.135C138.488 63.649 138.895 63.5386 139.309 63.5473C140.083 63.5594 140.839 63.7903 141.488 64.2134ZM122.907 88.797C122.973 88.7965 123.037 88.7809 123.096 88.7516C123.157 88.7516 129.567 85.724 134.298 88.1991C135.676 88.9559 136.258 89.9702 135.978 91.2266C135.433 93.7319 131.649 96.6005 126.426 96.8881C125.347 96.7467 124.338 96.2763 123.535 95.5408C122.602 94.5656 122.086 93.265 122.097 91.9154C122.084 90.8223 122.364 89.7457 122.907 88.797ZM144.274 91.4158C141.534 93.8606 137.893 95.0791 134.699 95.9571C133.624 96.2523 132.504 96.5324 131.346 96.714C134.374 95.4803 136.44 93.3837 136.864 91.4158C137.235 89.7507 136.448 88.2823 134.714 87.3816C130.816 85.3532 126.071 86.6247 123.898 87.4346C124.397 86.9137 124.968 86.4675 125.594 86.1101C127.584 85.7085 129.538 85.1465 131.437 84.4298C134.506 83.4529 137.414 82.0272 140.065 80.1988C141.498 79.1425 142.737 77.8469 143.729 76.3689C144.894 76.3689 146.673 76.7701 147.241 77.4059C147.634 77.8915 147.915 78.4573 148.066 79.0635C149.322 83.302 147.801 88.2596 144.274 91.4158ZM121.522 85.5045C120.582 85.51 119.665 85.2098 118.911 84.6493C117.548 83.4837 117.843 81.2281 118.517 79.6463C118.57 79.51 118.638 79.3738 118.706 79.2375C120.13 78.3129 121.653 77.5512 123.248 76.9669C123.989 76.6498 124.815 76.5912 125.594 76.8004C125.887 76.933 126.149 77.1265 126.361 77.3679C126.574 77.6093 126.733 77.8931 126.828 78.2006C127.016 78.8713 127.016 79.5811 126.828 80.2518C126.351 82.4013 124.557 85.005 122.536 85.55C122.241 85.5197 121.878 85.5197 121.522 85.5045ZM131.361 102.724C131.467 103.058 131.502 103.41 131.463 103.758C131.424 104.106 131.312 104.442 131.134 104.745C129.832 107.068 125.435 108.431 124.64 108.665L124.292 108.544C123.501 108.278 122.789 107.816 122.223 107.203C121.657 106.589 121.254 105.842 121.053 105.032C120.969 104.275 121.066 103.509 121.337 102.796C121.609 102.084 122.045 101.447 122.612 100.937C123.596 100.695 130.271 99.1663 131.346 102.724H131.361ZM107.535 91.0828C106.664 90.9117 105.817 90.6346 105.014 90.2578C104.621 90.0692 104.252 89.8328 103.917 89.5539C103.221 88.9784 102.754 88.173 102.6 87.2832C102.581 87.097 102.581 86.9094 102.6 86.7231C105.165 86.9852 107.71 87.4099 110.222 87.9947C111.887 88.3959 113.711 89.0014 114.551 90.4546C114.762 90.8306 114.895 91.2449 114.944 91.6732C112.461 91.7339 109.977 91.5361 107.535 91.0828ZM108.14 98.8409C109.994 98.4851 112.341 97.8645 114.051 96.2372C115.565 94.7764 116.549 92.0895 115.33 89.9777C114.316 88.2293 112.303 87.5406 110.426 87.0864C107.761 86.4758 105.062 86.0309 102.342 85.7543H102.267C100.458 85.5651 98.6866 85.4137 96.9684 85.285V38.5777C96.9714 38.4344 97.0039 38.2932 97.0638 38.163C97.1237 38.0328 97.2098 37.9163 97.3166 37.8208C97.4268 37.7212 97.5561 37.6451 97.6966 37.5969C97.8371 37.5488 97.9859 37.5297 98.1341 37.5407L99.3526 37.6391C103.016 37.8283 104.651 37.8359 107.186 37.851C108.261 37.851 109.457 37.851 111.077 37.851C114.369 37.8965 117.382 37.851 120.303 37.851H123.331C125.51 39.5032 127.937 40.8009 130.521 41.696L125.836 49.5752C125.784 49.663 125.762 49.7655 125.775 49.8669C125.787 49.9682 125.832 50.0626 125.904 50.1353C125.978 50.2058 126.073 50.2499 126.174 50.2609C126.275 50.2719 126.377 50.249 126.464 50.1959L130.604 47.6376V66.9003C127.512 68.7458 124.624 70.9151 121.991 73.3717C120.156 75.046 118.687 77.0818 117.677 79.3511C116.92 81.213 116.587 83.8924 118.328 85.4062C119.237 86.0782 120.338 86.4415 121.469 86.4431C121.756 86.4431 122.052 86.4431 122.339 86.4431H122.604H122.748C123.066 86.4431 123.384 86.4431 123.702 86.3901C122.907 87.0831 122.27 87.9395 121.837 88.9009C121.403 89.8624 121.182 90.9061 121.189 91.9608C121.186 93.5469 121.799 95.072 122.899 96.2145C123.927 97.1574 125.235 97.7394 126.623 97.8721C125.273 98.2068 123.992 98.7755 122.839 99.5523C121.736 100.323 120.89 101.407 120.409 102.663H101.374C100.101 101.317 98.6703 100.13 97.1123 99.1285C100.779 99.6441 104.505 99.5469 108.14 98.8409ZM114.316 113.108C113.618 113.11 112.936 112.903 112.355 112.516C111.774 112.128 111.322 111.577 111.056 110.932C110.789 110.287 110.721 109.577 110.859 108.893C110.997 108.208 111.335 107.581 111.831 107.089C112.327 106.598 112.957 106.265 113.643 106.133C114.328 106.001 115.037 106.075 115.68 106.347C116.323 106.619 116.871 107.076 117.253 107.66C117.635 108.244 117.836 108.929 117.828 109.626C117.818 110.552 117.444 111.436 116.787 112.088C116.129 112.74 115.242 113.106 114.316 113.108Z" fill="black"/>
</svg>
