<svg width="234" height="174" viewBox="0 0 234 174" fill="none" xmlns="http://www.w3.org/2000/svg">
<path fill-rule="evenodd" clip-rule="evenodd" d="M167.142 18.412C154.791 18.412 144.778 28.4246 144.778 40.7758C144.778 53.127 154.791 63.1396 167.142 63.1396C179.493 63.1396 189.506 53.127 189.506 40.7758C189.506 28.4246 179.493 18.412 167.142 18.412ZM143.659 40.7758C143.659 27.8066 154.173 17.293 167.142 17.293C180.111 17.293 190.625 27.8066 190.625 40.7758C190.625 53.745 180.111 64.2586 167.142 64.2586C154.173 64.2586 143.659 53.745 143.659 40.7758Z" fill="black"/>
<path fill-rule="evenodd" clip-rule="evenodd" d="M183.581 41.6631C183.377 41.702 183.188 41.7968 183.034 41.9369C182.881 42.0771 182.769 42.2571 182.712 42.4569C182.655 42.6567 182.654 42.8684 182.71 43.0686C182.766 43.2687 182.877 43.4494 183.029 43.5905L183.525 44.0583C183.698 44.2381 183.806 44.4698 183.834 44.7175C183.861 44.9652 183.806 45.2151 183.677 45.4283C183.548 45.6416 183.352 45.8063 183.12 45.8969C182.888 45.9875 182.632 45.999 182.393 45.9296L181.934 45.7705C181.729 45.701 181.508 45.6918 181.298 45.7441C181.087 45.7964 180.896 45.9081 180.748 46.0657C180.599 46.2234 180.499 46.4204 180.458 46.6335C180.418 46.8466 180.44 47.0666 180.522 47.2676L180.98 48.4465C181.071 48.6793 181.083 48.9358 181.013 49.1759C180.943 49.4159 180.795 49.6261 180.593 49.7736C180.392 49.921 180.146 49.9975 179.896 49.991C179.647 49.9845 179.406 49.8954 179.212 49.7377L178.37 49.0453C178.201 48.8985 177.992 48.8052 177.769 48.7771C177.547 48.7491 177.322 48.7876 177.121 48.8877C176.921 48.9879 176.755 49.1452 176.644 49.3398C176.533 49.5344 176.482 49.7575 176.498 49.981L176.611 51.3938C176.626 51.6387 176.56 51.8819 176.425 52.0866C176.29 52.2914 176.092 52.4466 175.86 52.5289C175.629 52.6113 175.378 52.6163 175.143 52.5432C174.909 52.47 174.705 52.3228 174.562 52.1236L173.794 51.0382C173.667 50.8545 173.487 50.7131 173.279 50.632C173.071 50.551 172.843 50.534 172.625 50.5832C172.407 50.6325 172.208 50.7457 172.055 50.9085C171.901 51.0712 171.8 51.276 171.764 51.4967L171.521 52.9376C171.478 53.1789 171.358 53.3997 171.179 53.5671C171 53.7344 170.771 53.839 170.528 53.8654C170.284 53.8918 170.039 53.8384 169.828 53.7133C169.617 53.5881 169.453 53.398 169.359 53.1715L168.826 51.8522C168.741 51.6442 168.596 51.4661 168.409 51.3408C168.223 51.2155 168.003 51.1486 167.778 51.1486C167.553 51.1486 167.334 51.2155 167.147 51.3408C166.96 51.4661 166.815 51.6442 166.73 51.8522L166.197 53.1715C166.103 53.398 165.939 53.5881 165.728 53.7133C165.518 53.8384 165.272 53.8918 165.028 53.8654C164.785 53.839 164.556 53.7344 164.377 53.5671C164.198 53.3997 164.078 53.1789 164.036 52.9376L163.792 51.5061C163.758 51.2847 163.657 51.0788 163.505 50.9148C163.352 50.7509 163.154 50.6364 162.935 50.5861C162.717 50.5358 162.488 50.5519 162.279 50.6325C162.07 50.7131 161.89 50.8544 161.762 51.0382L161.041 52.1891C160.898 52.3892 160.693 52.537 160.457 52.6101C160.222 52.6831 159.969 52.6774 159.738 52.5938C159.506 52.5102 159.308 52.3533 159.173 52.1468C159.039 51.9404 158.975 51.6957 158.992 51.4499L159.105 50.0371C159.121 49.8137 159.07 49.5906 158.959 49.396C158.848 49.2014 158.682 49.0441 158.482 48.9439C158.281 48.8437 158.056 48.8052 157.834 48.8333C157.611 48.8613 157.403 48.9546 157.233 49.1014L156.401 49.7938C156.203 49.9576 155.955 50.0494 155.699 50.0539C155.442 50.0585 155.191 49.9756 154.988 49.819C154.784 49.6623 154.64 49.4411 154.579 49.1917C154.518 48.9423 154.543 48.6795 154.651 48.4465L155.119 47.2769C155.203 47.0768 155.228 46.8566 155.19 46.6427C155.151 46.4289 155.052 46.2308 154.904 46.0724C154.755 45.9139 154.564 45.802 154.353 45.75C154.142 45.6981 153.92 45.7085 153.715 45.7799L153.257 45.939C153.018 46.0084 152.762 45.9969 152.53 45.9062C152.298 45.8156 152.102 45.6509 151.973 45.4377C151.844 45.2244 151.789 44.9746 151.816 44.7269C151.844 44.4792 151.952 44.2475 152.125 44.0677L152.621 43.6092C152.773 43.4664 152.882 43.2843 152.937 43.0831C152.992 42.8819 152.991 42.6693 152.933 42.469C152.875 42.2686 152.762 42.0882 152.608 41.9476C152.454 41.8071 152.264 41.7118 152.059 41.6724C151.801 41.6247 151.568 41.4882 151.4 41.2865C151.233 41.0848 151.141 40.8307 151.141 40.5684C151.141 40.306 151.233 40.0519 151.4 39.8502C151.568 39.6485 151.801 39.512 152.059 39.4643C152.263 39.4254 152.453 39.3306 152.606 39.1904C152.76 39.0503 152.871 38.8703 152.929 38.6705C152.986 38.4707 152.986 38.2589 152.93 38.0588C152.874 37.8586 152.764 37.6779 152.611 37.5369L152.115 37.0784C151.943 36.8986 151.834 36.6669 151.807 36.4192C151.779 36.1715 151.835 35.9216 151.964 35.7084C152.093 35.4952 152.288 35.3304 152.52 35.2398C152.753 35.1492 153.008 35.1377 153.248 35.2071L153.706 35.3662C153.911 35.4376 154.133 35.4479 154.343 35.396C154.554 35.3441 154.746 35.2321 154.894 35.0737C155.043 34.9152 155.142 34.7171 155.18 34.5033C155.219 34.2895 155.194 34.0692 155.109 33.8691L154.642 32.6996C154.55 32.4667 154.539 32.2103 154.609 31.9702C154.679 31.7301 154.826 31.52 155.028 31.3725C155.23 31.2251 155.475 31.1486 155.725 31.1551C155.975 31.1616 156.216 31.2506 156.41 31.4084L157.243 32.1008C157.41 32.2524 157.62 32.35 157.844 32.3806C158.068 32.4112 158.296 32.3735 158.498 32.2724C158.7 32.1713 158.867 32.0115 158.977 31.8139C159.087 31.6164 159.135 31.3902 159.114 31.1651L159.011 29.7523C158.996 29.5073 159.061 29.2642 159.197 29.0594C159.332 28.8547 159.53 28.6995 159.761 28.6171C159.992 28.5348 160.244 28.5298 160.478 28.6029C160.713 28.676 160.917 28.8233 161.06 29.0225L161.818 30.1078C161.947 30.2904 162.127 30.4307 162.336 30.511C162.545 30.5913 162.773 30.608 162.991 30.5589C163.209 30.5099 163.408 30.3973 163.562 30.2355C163.716 30.0736 163.819 29.8696 163.858 29.6494L164.101 28.2085C164.144 27.9672 164.264 27.7463 164.443 27.579C164.622 27.4117 164.85 27.307 165.094 27.2806C165.338 27.2543 165.583 27.3077 165.794 27.4328C166.005 27.5579 166.169 27.748 166.262 27.9746L166.796 29.2938C166.881 29.5019 167.026 29.6799 167.213 29.8052C167.399 29.9306 167.619 29.9975 167.844 29.9975C168.068 29.9975 168.288 29.9306 168.475 29.8052C168.661 29.6799 168.806 29.5019 168.892 29.2938L169.425 27.9746C169.515 27.7461 169.678 27.5537 169.889 27.4268C170.099 27.3 170.346 27.2456 170.59 27.2722C170.834 27.2988 171.063 27.4047 171.241 27.5738C171.42 27.743 171.537 27.9659 171.577 28.2085L171.82 29.6494C171.859 29.8696 171.962 30.0736 172.116 30.2355C172.27 30.3973 172.469 30.5099 172.687 30.5589C172.905 30.608 173.133 30.5913 173.342 30.511C173.55 30.4307 173.731 30.2904 173.86 30.1078L174.627 29.0131C174.771 28.813 174.976 28.6652 175.211 28.5921C175.446 28.5191 175.699 28.5248 175.931 28.6084C176.163 28.692 176.361 28.8489 176.495 29.0554C176.63 29.2618 176.693 29.5065 176.676 29.7523L176.564 31.1651C176.543 31.3902 176.591 31.6164 176.701 31.8139C176.811 32.0115 176.978 32.1713 177.18 32.2724C177.382 32.3735 177.61 32.4112 177.834 32.3806C178.058 32.35 178.268 32.2524 178.435 32.1008L179.277 31.4084C179.469 31.2872 179.692 31.2262 179.918 31.2334C180.145 31.2406 180.364 31.3155 180.547 31.4485C180.731 31.5815 180.87 31.7665 180.947 31.9795C181.024 32.1926 181.036 32.4238 180.98 32.6434L180.503 33.813C180.411 34.0156 180.38 34.2408 180.415 34.4606C180.451 34.6804 180.55 34.8849 180.701 35.0487C180.851 35.2124 181.047 35.3281 181.263 35.3812C181.479 35.4344 181.706 35.4226 181.916 35.3474L182.374 35.1884C182.614 35.119 182.869 35.1305 183.101 35.2211C183.333 35.3117 183.529 35.4764 183.658 35.6897C183.787 35.9029 183.842 36.1528 183.815 36.4005C183.787 36.6482 183.679 36.8799 183.506 37.0597L183.01 37.5181C182.858 37.6604 182.749 37.8417 182.693 38.0423C182.638 38.2429 182.638 38.4549 182.695 38.655C182.752 38.8552 182.864 39.0357 183.016 39.1769C183.169 39.318 183.358 39.4142 183.562 39.4549C183.813 39.5096 184.038 39.6479 184.2 39.8471C184.362 40.0464 184.451 40.2948 184.454 40.5515C184.456 40.8083 184.371 41.0581 184.212 41.2601C184.054 41.4621 183.831 41.6042 183.581 41.6631ZM165.374 39.9789C165.374 41.2294 164.36 42.2432 163.109 42.2432C161.859 42.2432 160.845 41.2294 160.845 39.9789C160.845 38.7284 161.859 37.7146 163.109 37.7146C164.36 37.7146 165.374 38.7284 165.374 39.9789ZM173.588 42.2432C174.839 42.2432 175.853 41.2294 175.853 39.9789C175.853 38.7284 174.839 37.7146 173.588 37.7146C172.338 37.7146 171.324 38.7284 171.324 39.9789C171.324 41.2294 172.338 42.2432 173.588 42.2432Z" fill="black"/>
<path fill-rule="evenodd" clip-rule="evenodd" d="M174.58 39.984C174.58 40.5317 174.136 40.9758 173.589 40.9758C173.041 40.9758 172.597 40.5317 172.597 39.984C172.597 39.4362 173.041 38.9922 173.589 38.9922C174.136 38.9922 174.58 39.4362 174.58 39.984ZM164.026 39.9839C164.026 40.4903 163.616 40.9009 163.109 40.9009C162.603 40.9009 162.192 40.4903 162.192 39.9839C162.192 39.4775 162.603 39.067 163.109 39.067C163.616 39.067 164.026 39.4775 164.026 39.9839Z" fill="black"/>
<path fill-rule="evenodd" clip-rule="evenodd" d="M84.5359 30.0702C83.1865 28.8031 81.5275 27.9131 79.7254 27.4897C77.4997 26.9356 74.9103 26.3278 72.5468 27.1697C72.5391 27.1724 72.5315 27.1754 72.5239 27.1784C70.5315 27.9877 68.8726 29.4485 67.8177 31.3222C67.3528 32.0607 66.9477 32.824 66.5982 33.6075C66.3831 33.5726 66.1693 33.5367 65.9562 33.5009C63.9954 33.1716 62.0907 32.8517 59.6592 33.3717C57.1322 33.9122 55.2012 34.3261 53.3889 36.4576C51.7448 38.3911 51.2614 40.3925 51.2998 42.585C51.3012 42.6694 51.3033 42.7531 51.3061 42.8362C51.244 42.7789 51.1679 42.7347 51.0812 42.7097C50.0684 42.4172 49.0013 42.3654 47.965 42.5585C46.9286 42.7516 45.9518 43.1842 45.1123 43.8218C45.1029 43.829 45.0936 43.8365 45.0846 43.8443C44.1608 44.6434 43.416 45.6285 42.8989 46.7351C42.3818 47.8418 42.104 49.0451 42.0836 50.2664H42.0836L42.0836 50.273C42.075 52.0311 42.2878 53.7809 42.7153 55.4814L42.7083 55.4843C41.3292 56.0633 40.3632 57.1541 39.6945 58.4092C39.0274 59.6616 38.6392 61.1073 38.4229 62.4627C36.8032 72.5525 40.618 82.6287 44.6766 91.784C47.338 97.8126 50.168 103.766 53.1667 109.645L53.1678 109.647C55.4884 114.149 57.5601 118.774 59.3736 123.503C65.9457 140.9 63.5431 156.547 62.1658 161.322C62.0798 161.62 62.2517 161.931 62.5496 162.017C62.8475 162.103 63.1586 161.931 63.2445 161.633C64.6741 156.677 67.0993 140.775 60.4234 123.105L60.4224 123.102C58.5942 118.335 56.5057 113.672 54.1663 109.134C51.1772 103.274 48.3562 97.3391 45.7034 91.3298L45.7031 91.329C41.6403 82.1643 37.97 72.3675 39.5315 62.6404L39.5316 62.6399C39.7363 61.3569 40.0966 60.0425 40.6855 58.9371C41.2505 57.8766 42.01 57.0362 43.0212 56.5729C43.0826 56.7711 43.147 56.9685 43.2143 57.1649C46.1879 67.1445 50.9168 76.4859 55.5989 85.7192C55.7391 85.9958 56.0769 86.1063 56.3534 85.966C56.63 85.8258 56.7405 85.488 56.6002 85.2115C51.9089 75.9599 47.2269 66.7041 44.287 56.8334C44.2848 56.826 44.2825 56.8187 44.28 56.8114C43.5588 54.7104 43.1959 52.5031 43.2063 50.2818C43.2245 49.2195 43.4663 48.173 43.9161 47.2105C44.3638 46.2524 45.0075 45.3989 45.8056 44.7052C46.5026 44.1793 47.3121 43.8222 48.1706 43.6623C49.035 43.5012 49.925 43.5444 50.7697 43.7884C50.9876 43.8513 51.2128 43.7762 51.3516 43.6147C51.4715 45.0485 51.7779 46.3625 52.1367 47.9008L52.1367 47.9009C52.2039 48.1891 52.273 48.4853 52.343 48.7916C53.396 53.3971 54.879 56.6973 56.4502 60.1934L56.4505 60.1941L56.4512 60.1957L56.4517 60.1967C56.7555 60.8727 57.0626 61.5561 57.3705 62.2577L64.5449 79.4595C64.6643 79.7456 64.993 79.8809 65.2791 79.7615C65.5653 79.6422 65.7005 79.3134 65.5812 79.0273L58.4048 61.8208L58.4049 61.8207L58.4007 61.8113C58.0854 61.0928 57.7732 60.3977 57.4661 59.714C55.8981 56.2233 54.4639 53.0305 53.4376 48.5414C53.3659 48.2278 53.2961 47.9279 53.2288 47.6388L53.2286 47.6382C52.7851 45.7328 52.4515 44.2998 52.4224 42.566L52.4224 42.5656C52.3877 40.5842 52.8136 38.8675 54.2443 37.1849C55.7855 35.3722 57.3586 35.012 59.8941 34.4697C62.1068 33.9964 63.8084 34.2807 65.7775 34.6097L65.7776 34.6097C65.9042 34.6309 66.0319 34.6522 66.161 34.6736C64.0412 40.319 64.5832 46.861 66.2353 52.6473C67.2321 56.1386 68.5935 59.4992 69.9561 62.8261L70.1118 63.2062C71.4257 66.413 72.7282 69.5921 73.723 72.8753C73.8129 73.172 74.1263 73.3396 74.4231 73.2497C74.7198 73.1598 74.8875 72.8464 74.7976 72.5497C73.787 69.2143 72.4662 65.9909 71.1576 62.7973L71.1576 62.7972L70.9951 62.4006C69.6302 59.0681 68.2923 55.7621 67.3149 52.339C65.3593 45.4897 65.0632 37.7936 68.775 31.909C68.7802 31.9009 68.7851 31.8926 68.7898 31.8842C69.7178 30.2301 71.1791 28.9396 72.935 28.2233C74.9275 27.5185 77.179 28.0128 79.4579 28.5801L79.4578 28.5802L79.4653 28.5819C81.0802 28.9608 82.5667 29.7588 83.7747 30.8956C83.7801 30.9007 83.7856 30.9057 83.7913 30.9106C85.3718 32.2833 86.7481 33.8747 87.8786 35.6366L87.8798 35.6384C90.6324 39.8921 93.1899 43.9045 95.7061 48.0215C95.1192 48.447 94.6301 48.9935 94.2721 49.6244C94.2632 49.6399 94.2552 49.6559 94.2479 49.6722C93.9479 50.3426 93.8159 51.076 93.8632 51.8089L93.8634 51.8115C94.0113 53.9479 94.728 56.0057 95.939 57.7716C96.4987 58.6463 97.1174 59.4736 97.7374 60.2797C97.8883 60.4758 98.0389 60.6702 98.1887 60.8637L98.1889 60.8639L98.1893 60.8644C98.6615 61.4741 99.127 62.075 99.5728 62.6928C99.7016 62.8713 99.9158 62.9516 100.119 62.9183C99.9323 63.2089 99.7222 63.486 99.49 63.7467C98.9913 64.2895 98.3749 64.7109 97.6882 64.9787C96.5336 65.3488 95.2917 65.3472 94.1378 64.9739C94.131 64.9717 94.1241 64.9696 94.1172 64.9676C92.0876 64.3959 90.2236 62.8622 88.7765 61.1837L88.775 61.182C86.0317 54.8359 83.3955 48.4366 80.7678 42.0348C80.65 41.748 80.3221 41.6109 80.0352 41.7286C79.7484 41.8464 79.6114 42.1743 79.7291 42.4611C87.2125 60.6927 94.7954 78.9821 104.745 96.0866C104.892 96.3397 105.209 96.4371 105.473 96.3105C105.737 96.184 105.859 95.8758 105.754 95.6027C103.588 89.9756 101.44 84.3801 100.934 78.4942C100.611 74.6209 101.114 70.5694 103.459 67.6667C103.464 67.6597 103.47 67.6525 103.475 67.6452C103.479 67.6401 103.483 67.635 103.486 67.6299C103.813 67.1501 104.213 66.727 104.671 66.3755C105.157 67.336 105.637 68.3701 106.119 69.4137L106.153 69.4869L106.153 69.4876C106.715 70.7028 107.283 71.929 107.861 73.0361C108.978 75.4341 110.63 77.5439 112.691 79.2034C112.696 79.208 112.702 79.2125 112.708 79.2168C113.928 80.1232 115.196 80.0432 116.392 79.6893C116.979 79.5153 117.574 79.2681 118.149 79.029L118.153 79.0273C118.592 78.8451 119.022 78.6664 119.454 78.5124L124.553 87.2266C126.967 91.3673 129.326 95.7434 128.518 100.185C127.97 103.193 125.985 105.804 123.677 108.011C122.622 109.019 121.513 109.972 120.39 110.937L120.39 110.937L120.065 111.217C118.836 112.274 117.598 113.35 116.436 114.513C110.419 120.52 108.475 129.116 108.423 137.226C108.371 145.344 110.213 153.076 111.882 157.475C111.992 157.765 112.316 157.911 112.606 157.801C112.896 157.691 113.041 157.367 112.931 157.077C111.307 152.794 109.495 145.2 109.546 137.234C109.597 129.261 111.512 121.015 117.229 115.307C118.359 114.178 119.567 113.126 120.797 112.068C120.906 111.974 121.015 111.881 121.124 111.787L121.125 111.786C122.244 110.825 123.375 109.853 124.453 108.823C126.823 106.557 129.011 103.741 129.623 100.387C130.517 95.4723 127.898 90.7345 125.522 86.6603L120.26 77.6674L120.259 77.6642C120.233 77.578 120.187 77.5028 120.129 77.4419L116.557 71.3375C115.591 69.4755 114.344 67.7734 112.86 66.2908C112.196 65.556 111.375 64.9808 110.457 64.6084C109.534 64.234 108.539 64.0743 107.545 64.1413C106.552 64.2083 105.587 64.5003 104.723 64.9952C104.679 65.0203 104.635 65.0459 104.592 65.072L104.584 65.0768C103.786 65.5603 103.1 66.2086 102.571 66.9789C99.97 70.2122 99.4832 74.6097 99.8147 78.5883L99.8149 78.5898C100.133 82.2857 101.077 85.8604 102.254 89.3552C97.7685 81.0796 93.7583 72.5634 89.9735 63.9347C91.1106 64.872 92.4038 65.6494 93.8025 66.0454C95.1831 66.4897 96.6686 66.4886 98.0488 66.0421C98.0587 66.0389 98.0685 66.0354 98.0782 66.0317C98.9333 65.7015 99.7005 65.1782 100.32 64.5027L100.32 64.5027L100.325 64.4969C101.513 63.1653 102.207 61.4659 102.292 59.6835C102.376 57.8974 101.762 56.0345 101 54.7194C97.0206 47.8467 93.1601 41.7315 88.8232 35.0296C87.637 33.1811 86.1934 31.5112 84.5359 30.0702ZM100.546 62.1471C100.914 61.3627 101.129 60.5083 101.17 59.6304C101.242 58.1087 100.71 56.4582 100.029 55.2821C98.7781 53.1222 97.539 51.037 96.2927 48.9843C95.8749 49.302 95.5244 49.6999 95.2619 50.1551C95.0443 50.652 94.9488 51.1938 94.9836 51.7353C95.118 53.6742 95.7693 55.5416 96.8698 57.1436C96.8733 57.1487 96.8767 57.1539 96.88 57.1591C97.4137 57.9938 98.0096 58.792 98.6274 59.5951C98.7731 59.7846 98.9204 59.9747 99.0683 60.1657C99.5433 60.7789 100.025 61.4009 100.483 62.0358C100.509 62.0712 100.53 62.1085 100.546 62.1471ZM105.631 65.7855C106.143 66.793 106.644 67.8744 107.138 68.9424L107.166 69.0028L107.166 69.0029C107.735 70.2322 108.294 71.4415 108.862 72.5273C108.866 72.535 108.87 72.5429 108.874 72.5508C109.917 74.7943 111.46 76.7686 113.386 78.3219C114.204 78.925 115.052 78.9151 116.073 78.6127C116.594 78.4584 117.134 78.2353 117.721 77.9913L117.745 77.9812L117.745 77.9812C118.108 77.8304 118.487 77.6726 118.878 77.5274L115.58 71.8921C115.578 71.8877 115.575 71.8833 115.573 71.8789C115.571 71.8748 115.569 71.8708 115.566 71.8667C114.651 70.0981 113.467 68.4818 112.057 67.0751C112.05 67.068 112.043 67.0606 112.036 67.0531C111.484 66.4394 110.8 65.9591 110.035 65.6488C109.27 65.3384 108.444 65.206 107.621 65.2615C106.929 65.3082 106.254 65.4865 105.631 65.7855Z" fill="black"/>
<path fill-rule="evenodd" clip-rule="evenodd" d="M138.326 40.777C138.326 41.3028 138.34 41.8254 138.368 42.3443C138.34 42.8632 138.326 43.3857 138.326 43.9114C138.326 45.9285 138.533 47.8972 138.928 49.7974L102.044 61.2972C101.733 62.4763 101.147 63.5736 100.325 64.4949L100.32 64.5007C99.7007 65.1762 98.9334 65.6995 98.0784 66.0297C98.0686 66.0335 98.0588 66.0369 98.0489 66.0401C96.8062 66.4422 95.4781 66.4831 94.218 66.1629C94.0007 66.7627 93.8823 67.395 93.8685 68.0351C93.851 68.852 94.0043 69.6635 94.3188 70.4177C94.6315 71.1728 95.0983 71.8543 95.6894 72.4186C96.2807 72.9831 96.9833 73.418 97.7523 73.6954C98.4262 73.9385 99.138 74.056 99.8525 74.043C100.14 71.4901 100.94 69.0045 102.571 66.9769C103.1 66.2066 103.786 65.5583 104.584 65.0749L104.592 65.07C104.635 65.044 104.679 65.0184 104.723 64.9932C105.587 64.4983 106.552 64.2063 107.545 64.1393C108.539 64.0723 109.534 64.232 110.457 64.6064C111.375 64.9788 112.197 65.554 112.861 66.2889C113.485 66.9128 114.068 67.5757 114.605 68.273L141.456 56.985C146.221 66.3287 155.934 72.7274 167.142 72.7274C183.057 72.7274 195.958 59.826 195.958 43.9114C195.958 43.3857 195.944 42.8632 195.916 42.3443C195.944 41.8254 195.958 41.3028 195.958 40.777C195.958 24.8623 183.057 11.9609 167.142 11.9609C151.228 11.9609 138.326 24.8623 138.326 40.777ZM139.445 40.777C139.445 25.4803 151.846 13.08 167.142 13.08C182.439 13.08 194.839 25.4803 194.839 40.777C194.839 41.494 194.812 42.2047 194.758 42.908C194.709 43.552 194.638 44.1899 194.546 44.8208C193.933 49.0133 192.38 52.9007 190.109 56.2626C185.132 63.6301 176.703 68.474 167.142 68.474C158.694 68.474 151.129 64.6912 146.048 58.727C141.93 53.8926 139.445 47.625 139.445 40.777Z" fill="black"/>
</svg>
