<svg width="499" height="362" viewBox="0 0 499 362" fill="none" xmlns="http://www.w3.org/2000/svg">
<path fill-rule="evenodd" clip-rule="evenodd" d="M186.185 46.6719C187.354 47.0093 188.385 47.3068 189.262 47.4834C190.998 47.8343 192.256 48.6129 192.995 49.6851C193.735 50.7597 193.891 52.0401 193.587 53.2597C192.985 55.6808 190.593 57.8917 187.165 58.3518C184.649 58.698 182.026 58.1638 180.043 57.5709C179.044 57.2721 178.19 56.9531 177.574 56.7103C177.368 56.629 177.182 56.554 177.032 56.4931C176.961 56.4645 176.898 56.439 176.845 56.4175C176.756 56.3819 176.695 56.3583 176.655 56.3441C176.641 56.3388 176.634 56.3368 176.634 56.3367C176.634 56.3367 176.635 56.3369 176.636 56.3374C176.639 56.3382 176.652 56.3419 176.672 56.3459C176.686 56.3487 176.736 56.3586 176.804 56.3586V54.8586C176.923 54.8586 177.023 54.8878 177.046 54.8943C177.047 54.8946 177.048 54.8948 177.048 54.895C177.089 54.9067 177.129 54.9204 177.162 54.9323C177.23 54.9566 177.313 54.9893 177.402 55.025C177.465 55.05 177.532 55.0773 177.606 55.107C177.753 55.1665 177.923 55.2356 178.124 55.3147C178.718 55.5486 179.528 55.8514 180.473 56.1338C182.377 56.7033 184.759 57.1691 186.962 56.8656L186.965 56.8653C189.876 56.4749 191.699 54.6361 192.131 52.8975C192.346 52.0372 192.224 51.2101 191.759 50.5359C191.293 49.8593 190.42 49.2478 188.966 48.9538C188.022 48.7637 186.914 48.444 185.742 48.1055C185.478 48.0294 185.212 47.9525 184.943 47.8758C183.456 47.4518 181.865 47.0251 180.256 46.7613C177.019 46.2309 173.863 46.3844 171.409 48.3794C169.617 49.85 167.427 51.9695 165.63 54.4202C163.827 56.8804 162.467 59.6112 162.24 62.3138C162.018 64.9681 162.879 67.6722 165.681 70.1722C168.493 72.6816 173.277 74.9965 180.909 76.7534L196.896 71.9662C196.911 71.9587 196.931 71.949 196.955 71.9373C197.027 71.9017 197.135 71.8467 197.273 71.7722C197.55 71.623 197.946 71.3959 198.411 71.0894C199.343 70.4746 200.541 69.5491 201.62 68.3027C203.757 65.8342 205.44 62.1085 203.636 56.9147L205.053 56.4226C207.069 62.2287 205.162 66.503 202.754 69.2845C201.56 70.6632 200.247 71.6752 199.236 72.3416C198.73 72.6757 198.296 72.9252 197.986 73.0924C197.83 73.1761 197.706 73.2393 197.619 73.2823C197.575 73.3038 197.541 73.3203 197.517 73.3318L197.488 73.3454L197.479 73.3493L197.476 73.3506L197.475 73.3511C197.475 73.3512 197.475 73.3514 197.164 72.6686L197.475 73.3511L197.428 73.3725L180.96 78.3037L180.768 78.2599C172.911 76.4721 167.789 74.0634 164.682 71.2913C161.541 68.4888 160.482 65.3291 160.746 62.1884C161.005 59.096 162.539 56.1006 164.421 53.5333C166.309 50.9571 168.595 48.7482 170.458 47.2189L170.461 47.2168C173.417 44.8128 177.115 44.7265 180.498 45.281C182.198 45.5597 183.859 46.0068 185.354 46.4333C185.638 46.5143 185.915 46.5942 186.185 46.6719Z" fill="black"/>
<path fill-rule="evenodd" clip-rule="evenodd" d="M191.221 69.5993C191.171 69.634 191 69.7489 190.755 69.7489V68.2489C190.535 68.2489 190.392 68.3485 190.368 68.3649L190.367 68.3659C190.344 68.382 190.327 68.3958 190.319 68.4035C190.31 68.4116 190.305 68.4171 190.303 68.4187C190.303 68.4189 190.303 68.4188 190.303 68.4184C190.306 68.4152 190.327 68.3908 190.363 68.3355C190.44 68.2174 190.549 68.0185 190.661 67.7437C190.885 67.197 191.109 66.3932 191.149 65.4105C191.229 63.4714 190.601 60.767 187.707 57.9018L188.762 56.8359C191.949 59.9907 192.745 63.1014 192.648 65.4723C192.6 66.6446 192.333 67.6196 192.049 68.3128C191.908 68.658 191.757 68.9444 191.618 69.1566C191.55 69.2603 191.474 69.3634 191.392 69.4501C191.352 69.4923 191.294 69.5483 191.221 69.5993Z" fill="black"/>
<path fill-rule="evenodd" clip-rule="evenodd" d="M186.188 32.6209C186.189 32.6206 186.189 32.6202 185.704 32.0478C185.22 31.4754 185.22 31.475 185.221 31.4746L185.222 31.4737L185.224 31.4717L185.23 31.4667L185.247 31.453C185.26 31.4422 185.278 31.4282 185.3 31.4114C185.344 31.3779 185.406 31.3331 185.484 31.2805C185.64 31.1753 185.865 31.0382 186.154 30.8964C186.732 30.6127 187.573 30.3091 188.645 30.2074C190.814 30.0016 193.805 30.6319 197.378 33.6444C201.117 36.7973 201.891 42.0591 200.674 46.6487C199.458 51.2367 196.178 55.4382 191.453 56.3929L191.156 54.9226C195.141 54.1174 198.101 50.5039 199.224 46.2644C200.348 42.0265 199.562 37.4483 196.411 34.7911C193.093 31.9937 190.49 31.539 188.786 31.7007C187.922 31.7827 187.257 32.026 186.814 32.2432C186.593 32.3519 186.427 32.4538 186.321 32.525C186.269 32.5605 186.231 32.5883 186.208 32.6052C186.197 32.6137 186.19 32.6194 186.187 32.6221C186.185 32.6234 186.185 32.6239 186.185 32.6236L186.186 32.6226L186.187 32.6216L186.188 32.6209Z" fill="black"/>
<path fill-rule="evenodd" clip-rule="evenodd" d="M199.255 37.3376C199.256 37.3374 199.256 37.3372 198.934 36.6597C198.613 35.9822 198.613 35.982 198.614 35.9817L198.615 35.9812L198.617 35.9799L198.624 35.9767L198.644 35.9677C198.66 35.9605 198.682 35.9511 198.708 35.94C198.762 35.9177 198.836 35.8881 198.93 35.8548C199.116 35.7881 199.381 35.7056 199.708 35.6346C200.362 35.493 201.279 35.3953 202.334 35.5711C204.489 35.9305 207.041 37.4007 209.076 41.4853C211.142 45.6329 210.584 50.7043 208.016 53.8228C206.717 55.399 204.899 56.4779 202.669 56.651C200.448 56.8234 197.905 56.0923 195.144 54.2205L195.985 52.9789C198.549 54.717 200.76 55.2947 202.553 55.1555C204.336 55.0171 205.791 54.1641 206.858 52.8691C209.019 50.245 209.557 45.8165 207.733 42.154C205.878 38.4287 203.695 37.3188 202.087 37.0507C201.261 36.9128 200.54 36.9894 200.026 37.1007C199.77 37.1561 199.568 37.2196 199.434 37.2674C199.367 37.2912 199.318 37.311 199.288 37.3237C199.272 37.33 199.262 37.3346 199.257 37.3369L199.253 37.3388C199.253 37.3388 199.253 37.3387 199.253 37.3385L199.255 37.3379L199.255 37.3376Z" fill="black"/>
<path fill-rule="evenodd" clip-rule="evenodd" d="M158.247 12.8002C157.42 13.1135 156.687 13.6332 156.117 14.3101C155.537 14.9983 155.146 15.8252 154.983 16.7098C154.657 18.6334 154.774 20.6059 155.324 22.4778L155.328 22.4909L155.331 22.5041C156.094 25.5009 157.027 28.4519 158.125 31.3429L158.13 31.3556L158.13 31.3556C160.634 38.3279 163.14 45.2726 166.982 51.4847L165.706 52.2737C161.769 45.9077 159.216 38.8148 156.721 31.8691C155.605 28.9313 154.657 25.9325 153.881 22.8873C153.27 20.7991 153.141 18.5992 153.505 16.4538L153.507 16.4435L153.507 16.4435C153.717 15.3008 154.221 14.2325 154.969 13.3438C155.718 12.4552 156.685 11.7767 157.775 11.3754L157.821 11.3584L157.869 11.3476C158.965 11.1002 160.105 11.1265 161.188 11.4243C162.271 11.722 163.265 12.282 164.08 13.0548L164.087 13.0611L164.087 13.0611C165.582 14.5134 166.791 16.2342 167.65 18.1337C172.106 26.8331 175.165 36.1796 176.715 45.8303L175.234 46.0681C173.708 36.5668 170.695 27.3652 166.307 18.8012L166.298 18.7845L166.29 18.7674C165.509 17.0347 164.408 15.4649 163.045 14.1405C162.409 13.5388 161.635 13.1027 160.791 12.8707C159.961 12.6425 159.088 12.6185 158.247 12.8002Z" fill="black"/>
<path fill-rule="evenodd" clip-rule="evenodd" d="M175.136 8.00781L175.187 8.00796C176.208 8.01085 177.213 8.25713 178.119 8.72613C179.106 9.1275 180.006 9.71677 180.769 10.4613L180.798 10.4896L180.823 10.5208C181.74 11.6323 182.38 12.945 182.692 14.3513C185.8 24.919 187.581 35.8323 187.994 46.8398L186.495 46.8961C186.086 36.0043 184.323 25.2058 181.245 14.7497L181.238 14.7241L181.232 14.6979C180.977 13.5277 180.449 12.4343 179.692 11.5065C179.067 10.9037 178.331 10.4274 177.525 10.104L177.49 10.0898L177.456 10.072C176.77 9.7117 176.009 9.5187 175.234 9.50837C174.636 9.5972 174.071 9.8391 173.593 10.211C173.104 10.5919 172.725 11.0956 172.493 11.6708C171.99 12.9958 171.763 14.4094 171.824 15.8254L171.825 15.8567L171.824 15.888C171.633 20.6688 171.964 25.4562 172.813 30.1649L171.337 30.431C170.47 25.6248 170.131 20.7385 170.324 15.8588C170.258 14.2472 170.52 12.639 171.094 11.1313L171.098 11.1193L171.098 11.1194C171.428 10.295 171.971 9.57307 172.672 9.02752C173.372 8.48197 174.205 8.13239 175.085 8.01458L175.136 8.00781Z" fill="black"/>
<path d="M206.688 362C304.442 362 383.688 353.046 383.688 342C383.688 330.954 304.442 322 206.688 322C108.933 322 29.6875 330.954 29.6875 342C29.6875 353.046 108.933 362 206.688 362Z" fill="black"/>
<path fill-rule="evenodd" clip-rule="evenodd" d="M36.8269 278.094L37.5036 278.697C43.8835 284.385 46.6895 290.016 46.1532 294.619C45.6054 299.32 41.6444 302.549 35.4719 303.528C29.0688 304.543 24.4579 300.663 21.5261 296.738C20.0515 294.764 18.9661 292.735 18.2501 291.205C17.8915 290.438 17.624 289.793 17.4455 289.338C17.3562 289.11 17.2891 288.93 17.2439 288.805C17.2213 288.743 17.2041 288.694 17.1924 288.661L17.179 288.622L17.1753 288.611L17.1742 288.608L17.1738 288.607C17.1737 288.606 17.1736 288.606 17.8845 288.367C18.5953 288.128 18.5953 288.127 18.5952 288.127L18.5952 288.127L18.5957 288.129L18.598 288.136L18.6087 288.166C18.6185 288.195 18.6337 288.238 18.6542 288.294C18.6953 288.407 18.7578 288.576 18.842 288.791C19.0105 289.22 19.2655 289.836 19.6088 290.569C20.2966 292.04 21.3325 293.972 22.7279 295.84C25.536 299.6 29.6602 302.931 35.237 302.046C41.0445 301.125 44.2235 298.219 44.6633 294.445C45.0984 290.711 42.9197 285.756 37.1578 280.41C37.0966 280.502 37.03 280.602 36.9582 280.708C36.5202 281.354 35.8876 282.239 35.108 283.2C33.6459 285 31.613 287.132 29.3303 288.401C29.3471 288.632 29.4139 288.993 29.6342 289.447C30.079 290.363 31.1868 291.731 33.9473 293.15L33.2616 294.484C30.3021 292.963 28.91 291.39 28.2847 290.102C27.973 289.459 27.8611 288.906 27.8331 288.493C27.8191 288.288 27.826 288.12 27.8383 287.995C27.8445 287.933 27.852 287.881 27.8589 287.842C27.8624 287.822 27.8657 287.805 27.8686 287.791L27.8727 287.772L27.8744 287.765L27.8752 287.761L27.8756 287.76C27.8758 287.759 27.876 287.758 28.6045 287.937L27.876 287.758L27.9581 287.423L28.2661 287.267C30.4164 286.181 32.4352 284.112 33.9434 282.254C34.69 281.334 35.2969 280.485 35.7167 279.866C35.9264 279.557 36.0889 279.306 36.1984 279.133C36.2531 279.047 36.2945 278.98 36.3219 278.936L36.3523 278.886L36.3594 278.874L36.3609 278.872L36.3611 278.871L36.3612 278.871L36.3612 278.871L36.8269 278.094Z" fill="black"/>
<path fill-rule="evenodd" clip-rule="evenodd" d="M27.0938 248.507L28.5346 248.09L29.7899 252.426C30.1422 252.398 30.6235 252.372 31.2015 252.371C32.4454 252.369 34.1509 252.484 35.988 252.958C39.6803 253.912 43.923 256.329 45.9519 262.11L44.5365 262.607C42.7153 257.418 38.9581 255.275 35.6129 254.411C33.9312 253.977 32.3586 253.869 31.204 253.871C30.628 253.872 30.1595 253.9 29.8379 253.928C29.6772 253.941 29.5534 253.955 29.4716 253.965C29.4307 253.97 29.4002 253.974 29.3809 253.976L29.3604 253.979L29.3571 253.98L28.7067 254.079L27.0938 248.507Z" fill="black"/>
<path fill-rule="evenodd" clip-rule="evenodd" d="M14.3561 258.605L16.7906 263.897L16.3346 264.263C11.5498 268.11 9.1794 271.511 8.35921 274.394C7.55081 277.235 8.2231 279.661 9.74153 281.679C11.2796 283.724 13.6971 285.356 16.3453 286.489C18.9899 287.62 21.7959 288.223 24.0466 288.259C27.2232 288.309 29.7939 286.475 31.9991 284.055C33.0962 282.851 34.0767 281.531 34.9779 280.276C35.1389 280.052 35.2981 279.829 35.4554 279.608C36.1661 278.612 36.8378 277.671 37.4626 276.934L37.4634 276.933C38.4229 275.805 38.7294 274.787 38.6763 273.969C38.6233 273.154 38.207 272.43 37.5055 271.887C36.0882 270.79 33.5168 270.472 30.9865 271.964C29.0739 273.098 27.5054 274.95 26.3692 276.583C25.8057 277.394 25.3584 278.136 25.0349 278.688C24.9687 278.801 24.9054 278.91 24.847 279.011C24.767 279.149 24.696 279.271 24.6389 279.367C24.589 279.451 24.5392 279.532 24.4942 279.598C24.4722 279.631 24.4425 279.673 24.4079 279.714C24.4074 279.715 24.4067 279.715 24.4059 279.716C24.387 279.739 24.2969 279.848 24.1516 279.924L23.4578 278.594C23.3746 278.637 23.3213 278.686 23.3027 278.704C23.279 278.726 23.2636 278.744 23.2577 278.751C23.2522 278.758 23.2488 278.762 23.2478 278.763C23.2468 278.765 23.2486 278.762 23.2537 278.755C23.2721 278.728 23.303 278.679 23.3506 278.599C23.4048 278.508 23.4671 278.4 23.5417 278.272C23.5999 278.172 23.6655 278.058 23.7404 277.93C24.0729 277.363 24.5424 276.583 25.1377 275.727C26.3189 274.028 28.0352 271.97 30.2223 270.674L30.2237 270.673C33.2032 268.916 36.4513 269.174 38.4239 270.701C39.4174 271.47 40.0886 272.571 40.1731 273.872C40.2575 275.17 39.7516 276.558 38.6063 277.905C38.0262 278.589 37.4012 279.464 36.6923 280.457C36.5314 280.683 36.3662 280.914 36.1962 281.151C35.2896 282.413 34.267 283.793 33.1078 285.065C30.8005 287.598 27.8463 289.819 24.0229 289.759C21.5536 289.72 18.5558 289.066 15.7554 287.868C12.9585 286.672 10.2898 284.903 8.54289 282.581C6.77631 280.233 5.96485 277.328 6.91646 273.983C7.82681 270.783 10.3263 267.266 14.9403 263.464L12.9934 259.232L14.3561 258.605Z" fill="black"/>
<path fill-rule="evenodd" clip-rule="evenodd" d="M26.2796 260.818C26.2793 260.818 26.2792 260.818 26.2793 260.818L26.6294 259.359C27.0093 259.451 28.7232 260.076 30.2155 261.811C31.737 263.58 32.9727 266.439 32.4288 270.88L30.9399 270.697C31.436 266.648 30.3067 264.217 29.0782 262.789C28.4547 262.064 27.7881 261.577 27.2521 261.266C26.9844 261.11 26.7513 261 26.5757 260.927C26.4879 260.89 26.4158 260.863 26.3623 260.844C26.3096 260.826 26.2827 260.819 26.2796 260.818Z" fill="black"/>
<path fill-rule="evenodd" clip-rule="evenodd" d="M48.0838 271.503C51.8783 274.354 54.526 278.966 53.5494 283.756C52.616 288.335 50.6579 290.685 48.8265 291.868C47.9212 292.453 47.0726 292.735 46.4421 292.871C46.1269 292.939 45.8656 292.971 45.6775 292.985C45.5835 292.993 45.5075 292.995 45.4521 292.996C45.4243 292.997 45.4017 292.997 45.3845 292.997L45.3627 292.997L45.355 292.996L45.3519 292.996L45.3505 292.996C45.3499 292.996 45.3493 292.996 45.3745 292.247C45.3998 291.497 45.3992 291.497 45.3987 291.497L45.3977 291.497L45.3971 291.497C45.4013 291.497 45.4106 291.497 45.4246 291.497C45.4527 291.496 45.4996 291.495 45.5633 291.49C45.6907 291.48 45.884 291.457 46.1257 291.405C46.609 291.301 47.2829 291.079 48.0126 290.608C49.4512 289.679 51.2131 287.708 52.0797 283.457C52.9031 279.417 50.6858 275.334 47.1828 272.703C43.6784 270.07 39.1218 269.066 35.4937 270.906L34.8154 269.568C39.1173 267.387 44.2907 268.654 48.0838 271.503ZM45.3971 291.497C45.3953 291.497 45.3944 291.497 45.3944 291.497L45.3945 291.497L45.3962 291.497L45.3971 291.497Z" fill="black"/>
<path fill-rule="evenodd" clip-rule="evenodd" d="M49.4248 261.35C53.3751 262.202 56.9534 265.828 57.8886 270.366C58.809 274.832 57.7153 277.564 56.2494 279.179C55.5318 279.97 54.7534 280.46 54.1538 280.754C53.8534 280.901 53.5953 281 53.408 281.063C53.3142 281.094 53.2378 281.117 53.1822 281.133C53.1544 281.14 53.1318 281.146 53.1148 281.151L53.0936 281.156L53.0862 281.158L53.0833 281.158L53.0821 281.159C53.0815 281.159 53.081 281.159 52.9141 280.428C52.7471 279.696 52.7466 279.697 52.7462 279.697L52.7454 279.697L52.7476 279.696C52.7532 279.695 52.7641 279.692 52.7798 279.688C52.8113 279.679 52.862 279.664 52.9289 279.641C53.0628 279.596 53.2597 279.521 53.4943 279.407C53.9647 279.176 54.5763 278.791 55.1388 278.171C56.2328 276.966 57.2592 274.743 56.4195 270.669C55.5947 266.667 52.4331 263.533 49.1084 262.816C47.4672 262.462 45.7928 262.694 44.304 263.688C42.8072 264.688 41.4271 266.505 40.4886 269.446L39.0596 268.99C40.071 265.82 41.6184 263.678 43.471 262.441C45.3316 261.199 47.4285 260.919 49.4248 261.35Z" fill="black"/>
<path d="M143.334 336.338C154.998 336.338 164.454 326.882 164.454 315.218C164.454 303.553 154.998 294.098 143.334 294.098C131.67 294.098 122.214 303.553 122.214 315.218C122.214 326.882 131.67 336.338 143.334 336.338Z" fill="#F4A700"/>
<path d="M135.098 295.573C132.431 296.655 130.037 298.245 127.985 300.296C125.932 302.349 124.344 304.743 123.262 307.409C122.217 309.986 121.688 312.708 121.688 315.501C121.688 318.293 122.217 321.015 123.262 323.59C124.344 326.257 125.933 328.651 127.985 330.703C130.037 332.756 132.43 334.345 135.098 335.426C137.674 336.472 140.396 337 143.188 337C145.981 337 148.702 336.47 151.278 335.426C153.945 334.345 156.34 332.756 158.391 330.703C160.444 328.651 162.033 326.259 163.114 323.59C164.159 321.015 164.687 318.293 164.687 315.501C164.687 312.708 164.158 309.986 163.114 307.409C162.033 304.743 160.443 302.348 158.391 300.296C156.34 298.245 153.947 296.655 151.278 295.573C148.702 294.529 145.981 294 143.188 294C140.396 294 137.674 294.529 135.098 295.573ZM127.061 324.552C126.025 323.902 125.071 323.153 124.226 322.271C122.936 318.64 122.717 314.708 123.572 310.976C123.974 310.183 124.432 309.421 124.949 308.691C125.109 308.466 125.257 308.232 125.428 308.013L130.28 310.884C130.28 310.922 130.28 310.964 130.28 311.006C130.268 313.615 130.533 316.206 131.06 318.759C131.062 318.771 131.064 318.777 131.066 318.788L127.304 324.688C127.222 324.647 127.14 324.601 127.061 324.552ZM141.487 334.526C142.324 334.953 143.185 335.314 144.07 335.607C140.312 335.771 136.517 334.89 133.161 332.965L141.295 334.414C141.357 334.454 141.421 334.492 141.487 334.526ZM141.458 333.058L131.86 331.347C130.737 329.983 129.726 328.541 128.858 326.999C128.637 326.607 128.391 326.226 128.204 325.817L131.963 319.922C132.046 319.943 132.139 319.965 132.244 319.993C134.596 320.622 136.989 321.07 139.399 321.42C139.54 321.44 139.657 321.457 139.758 321.468L144.264 329.259C143.482 330.358 142.691 331.452 141.883 332.533C141.749 332.713 141.606 332.886 141.458 333.058ZM157.426 329.739C156.662 330.503 155.851 331.193 155.002 331.807C154.861 330.682 154.618 329.579 154.275 328.502L159.083 319.532C160.408 318.929 161.685 318.245 162.871 317.397C163.026 317.287 163.155 317.164 163.255 317.03C162.907 321.665 160.964 326.202 157.426 329.739ZM157.213 318.106C157.392 318.447 157.568 318.792 157.745 319.141L153.101 327.804C153.075 327.81 153.049 327.816 153.022 327.819C150.512 328.288 147.981 328.538 145.43 328.55L140.795 320.536C141.516 319.197 142.231 317.852 142.94 316.507C143.421 315.594 143.894 314.676 144.367 313.758L153.958 312.773C155.133 314.496 156.246 316.256 157.213 318.106ZM155.267 307.83C154.812 309.032 154.325 310.222 153.841 311.414L144.497 312.373C144.385 312.226 144.269 312.081 144.147 311.943C143.044 310.693 141.934 309.451 140.825 308.206C140.835 308.194 140.845 308.184 140.855 308.173C140.408 307.726 139.959 307.279 139.512 306.831L142.113 298.999C142.292 298.952 142.473 298.912 142.655 298.892C144.07 298.749 145.485 298.586 146.903 298.504C147.771 298.455 148.644 298.427 149.527 298.49L155.963 305.744C155.741 306.444 155.525 307.145 155.267 307.83ZM157.426 301.261C159.202 303.038 160.576 305.065 161.549 307.231C160.346 306.403 159.06 305.722 157.708 305.167C157.498 305.081 157.282 305.004 157.063 304.929L150.728 297.788C150.772 297.48 150.795 297.171 150.805 296.86C153.215 297.841 155.474 299.309 157.426 301.261ZM136.74 296.485C136.765 296.503 136.777 296.519 136.791 296.523C138.239 297.023 139.556 297.76 140.798 298.634L138.368 305.952C138.355 305.956 138.344 305.959 138.332 305.965C137.834 306.17 137.328 306.355 136.838 306.577C134.821 307.494 132.854 308.51 131.002 309.727L126.206 306.89C126.213 306.74 126.239 306.588 126.29 306.453C126.612 305.595 126.929 304.732 127.293 303.891C127.573 303.243 127.893 302.618 128.242 302.006C128.47 301.754 128.706 301.505 128.95 301.261C131.227 298.984 133.919 297.368 136.785 296.412C136.77 296.435 136.754 296.459 136.74 296.485Z" fill="black"/>
<path d="M180.984 77.278C188.114 98.078 188.144 114.068 181.064 124.818C176.144 132.288 168.404 136.108 162.384 138.058C144.104 99.878 105.964 65.418 105.964 65.418C105.964 65.418 39.9639 116.628 39.9639 174.268C40.5217 191.391 47.716 207.626 60.0259 219.542C72.3359 231.457 88.7967 238.119 105.929 238.119C123.061 238.119 139.522 231.457 151.832 219.542C164.142 207.626 171.336 191.391 171.894 174.268C171.829 168.223 170.962 162.214 169.314 156.398L169.514 156.338C178.464 153.268 189.614 147.338 197.274 135.818C207.994 119.708 208.744 97.878 199.504 70.918L180.984 77.278Z" fill="#F4A700"/>
<path fill-rule="evenodd" clip-rule="evenodd" d="M89.0417 183.308C89.372 183.058 89.8424 183.123 90.0923 183.454C94.1967 188.879 99.5247 191.534 104.794 191.534C110.064 191.534 115.392 188.879 119.496 183.454C119.746 183.123 120.216 183.058 120.547 183.308C120.877 183.558 120.942 184.028 120.692 184.359C116.347 190.103 110.6 193.034 104.794 193.034C98.9887 193.034 93.2416 190.103 88.8961 184.359C88.6462 184.028 88.7114 183.558 89.0417 183.308Z" fill="black"/>
<path d="M78.5641 216.289V306.849C78.5641 306.849 48.4941 308.849 48.4941 334.949H104.294C104.294 334.949 107.294 315.999 92.9441 307.499V216.289" fill="#F4A700"/>
<path d="M130.795 224.649C134.515 246.259 136.645 251.059 127.185 271.309C112.805 279.809 115.835 298.759 115.835 298.759H171.635C171.635 272.619 141.565 270.649 141.565 270.649C156.485 249.179 153.565 241.239 145.565 216.289" fill="#F4A700"/>
<path d="M46.9743 183.917C46.7943 183.967 28.9743 188.427 22.2543 203.297C16.9943 215.037 19.5843 230.817 29.9543 250.207L12.6643 259.457C-0.75573 234.327 -3.54573 212.657 4.46427 194.997C10.1843 182.427 20.2343 174.757 28.5743 170.297C32.9986 167.894 37.7002 166.04 42.5743 164.777" fill="#F4A700"/>
<path d="M184.034 46.8867C183.511 47.5111 183.144 48.2517 182.964 49.0467C182.852 49.4218 182.852 49.8217 182.964 50.1967C183.103 50.5048 183.324 50.768 183.604 50.9567C184.33 51.4095 185.139 51.7121 185.984 51.8467C187.524 52.1967 191.254 52.9067 192.794 53.2567" stroke="black" stroke-width="1.5" stroke-miterlimit="10"/>
<path fill-rule="evenodd" clip-rule="evenodd" d="M168.937 31.9737C166.945 33.0716 164.859 33.9869 162.702 34.7082L162.227 33.2857C164.297 32.5931 166.3 31.7143 168.212 30.6602L168.937 31.9737Z" fill="black"/>
<path fill-rule="evenodd" clip-rule="evenodd" d="M169.866 38.1151L165.726 40.5651L164.962 39.2742L169.102 36.8242L169.866 38.1151Z" fill="black"/>
<path fill-rule="evenodd" clip-rule="evenodd" d="M179.595 31.1029C178.235 31.3279 177.008 31.7684 176.256 32.4464L175.252 31.332C176.32 30.37 177.883 29.8656 179.35 29.623C180.835 29.3775 182.343 29.3805 183.406 29.5262L183.202 31.0123C182.295 30.8879 180.938 30.8809 179.595 31.1029Z" fill="black"/>
<path fill-rule="evenodd" clip-rule="evenodd" d="M32.4015 274.735C34.0444 273.336 35.8567 272.15 37.7956 271.203L38.4537 272.551C36.6228 273.445 34.9118 274.566 33.3612 275.888L33.3475 275.9L33.3332 275.911C32.891 276.252 32.5254 276.682 32.2597 277.174C32.1745 277.345 32.1379 277.536 32.1541 277.726C32.1691 277.902 32.2286 278.071 32.3266 278.217C32.3415 278.228 32.3718 278.25 32.4244 278.28C32.5195 278.335 32.6507 278.399 32.8164 278.469C33.147 278.609 33.5675 278.752 34.0094 278.883C34.4493 279.013 34.896 279.125 35.2739 279.205C35.671 279.289 35.9378 279.326 36.0447 279.327L36.0247 280.827C35.7565 280.823 35.3621 280.757 34.9629 280.673C34.5446 280.584 34.06 280.462 33.5849 280.321C33.1118 280.182 32.6335 280.02 32.2329 279.851C32.033 279.767 31.8404 279.675 31.6725 279.578C31.5168 279.488 31.3294 279.363 31.1859 279.196L31.1688 279.176L31.1531 279.155C30.8706 278.776 30.6997 278.325 30.6595 277.853C30.6194 277.382 30.7117 276.909 30.926 276.487L30.93 276.48L30.934 276.472C31.2969 275.797 31.7967 275.205 32.4015 274.735Z" fill="black"/>
<path d="M82.054 176.987C93.6133 176.987 102.984 164.652 102.984 149.437C102.984 134.221 93.6133 121.887 82.054 121.887C70.4947 121.887 61.124 134.221 61.124 149.437C61.124 164.652 70.4947 176.987 82.054 176.987Z" fill="white"/>
<path d="M127.064 176.987C138.623 176.987 147.994 164.652 147.994 149.437C147.994 134.221 138.623 121.887 127.064 121.887C115.504 121.887 106.134 134.221 106.134 149.437C106.134 164.652 115.504 176.987 127.064 176.987Z" fill="white"/>
<path d="M90.8344 159.32C93.7891 159.32 96.1844 155.371 96.1844 150.5C96.1844 145.629 93.7891 141.68 90.8344 141.68C87.8797 141.68 85.4844 145.629 85.4844 150.5C85.4844 155.371 87.8797 159.32 90.8344 159.32Z" fill="black"/>
<path d="M136.474 158.257C139.429 158.257 141.824 154.308 141.824 149.437C141.824 144.566 139.429 140.617 136.474 140.617C133.519 140.617 131.124 144.566 131.124 149.437C131.124 154.308 133.519 158.257 136.474 158.257Z" fill="black"/>
<path fill-rule="evenodd" clip-rule="evenodd" d="M83.362 109.088C79.7525 109.032 76.2687 110.413 73.6762 112.925C73.3787 113.213 72.9039 113.205 72.6157 112.908C72.3274 112.611 72.3349 112.136 72.6324 111.847C75.5104 109.059 79.3778 107.527 83.3849 107.588C87.392 107.649 91.2108 109.298 94.0024 112.174C94.2909 112.471 94.2839 112.946 93.9867 113.234C93.6895 113.523 93.2147 113.516 92.9262 113.218C90.4116 110.628 86.9715 109.143 83.362 109.088Z" fill="black"/>
<path fill-rule="evenodd" clip-rule="evenodd" d="M135.285 108.698C132.198 106.823 128.493 106.251 124.984 107.108C121.476 107.964 118.451 110.179 116.576 113.266C116.361 113.62 115.899 113.733 115.545 113.517C115.191 113.302 115.079 112.841 115.294 112.487C117.376 109.061 120.734 106.601 124.629 105.65C128.524 104.699 132.637 105.334 136.064 107.416C136.418 107.631 136.531 108.092 136.316 108.446C136.101 108.8 135.639 108.913 135.285 108.698Z" fill="black"/>
<path d="M322.613 20.538C321.713 17.0515 321.741 13.3906 322.693 9.918C323.615 7.28938 325.257 4.97254 327.432 3.23116C329.606 1.48979 332.226 0.393825 334.993 0.0680031C337.769 -0.183911 340.564 0.266565 343.121 1.37797C345.677 2.48937 347.913 4.226 349.623 6.428C351.291 8.65762 352.444 11.2292 352.999 13.9578C353.554 16.6863 353.497 19.504 352.833 22.208C352.043 21.778 352.663 20.578 353.333 19.968C356.473 17.098 359.703 14.178 363.623 12.508C367.543 10.838 372.343 10.638 375.833 13.078C379.083 15.338 380.623 19.528 380.483 23.488C380.343 27.448 378.723 31.218 376.743 34.648C371.605 43.5348 363.95 50.6998 354.743 55.238C354.743 55.238 327.313 44.368 322.613 20.538Z" fill="#F4A700"/>
<path d="M305.043 51.9776C304.497 49.9198 304.497 47.7554 305.043 45.6976C305.586 44.1427 306.556 42.7722 307.841 41.7429C309.127 40.7136 310.677 40.0672 312.313 39.8776C313.953 39.7259 315.606 39.99 317.118 40.6454C318.63 41.3007 319.952 42.3264 320.963 43.6276C321.958 44.9456 322.648 46.4675 322.985 48.0841C323.323 49.7006 323.298 51.3718 322.913 52.9776C322.443 52.7176 322.813 51.9776 323.203 51.6476C324.973 49.849 327.031 48.3585 329.293 47.2376C330.43 46.6922 331.685 46.4377 332.946 46.4971C334.206 46.5564 335.431 46.9277 336.513 47.5776C337.438 48.3002 338.173 49.2385 338.653 50.3106C339.132 51.3827 339.341 52.5558 339.263 53.7276C339.069 56.0768 338.311 58.3445 337.053 60.3376C334.014 65.5873 329.491 69.8214 324.053 72.5076C324.053 72.5076 307.823 66.0876 305.043 51.9776Z" fill="#F4A700"/>
<path d="M361.813 75.7461C361.478 74.4541 361.478 73.0981 361.813 71.8061C362.155 70.8348 362.763 69.9788 363.567 69.3354C364.371 68.6921 365.34 68.287 366.363 68.1661C367.391 68.0723 368.426 68.2384 369.373 68.649C370.32 69.0596 371.149 69.7016 371.783 70.5161C372.401 71.3408 372.827 72.2929 373.031 73.303C373.235 74.3132 373.212 75.3561 372.963 76.3561C372.673 76.1961 372.903 75.7561 373.153 75.5261C374.259 74.3994 375.547 73.4664 376.963 72.7661C377.675 72.4259 378.461 72.2671 379.249 72.3037C380.038 72.3404 380.805 72.5713 381.483 72.9761C382.061 73.4291 382.521 74.0167 382.82 74.6877C383.12 75.3587 383.251 76.0928 383.203 76.8261C383.093 78.2992 382.626 79.7235 381.843 80.9761C379.941 84.2684 377.1 86.9182 373.683 88.5861C373.683 88.5861 363.553 84.5561 361.813 75.7461Z" fill="#F4A700"/>
<path d="M410.043 86.4498C417.173 107.24 417.203 123.24 410.123 133.99C405.203 141.45 397.463 145.28 391.443 147.22C373.163 109.04 335.013 74.5898 335.013 74.5898C335.013 74.5898 269.013 125.79 269.013 183.44C269.571 200.563 276.765 216.798 289.075 228.714C301.385 240.629 317.846 247.291 334.978 247.291C352.11 247.291 368.571 240.629 380.881 228.714C393.191 216.798 400.385 200.563 400.943 183.44C400.878 177.395 400.01 171.386 398.363 165.57L398.563 165.5C407.513 162.43 418.663 156.5 426.313 144.98C437.043 128.88 437.793 107.05 428.553 80.0798L410.043 86.4498Z" fill="#F4A700"/>
<path d="M324.793 203.327C336.353 203.327 345.723 190.992 345.723 175.777C345.723 160.561 336.353 148.227 324.793 148.227C313.234 148.227 303.863 160.561 303.863 175.777C303.863 190.992 313.234 203.327 324.793 203.327Z" fill="white"/>
<path d="M364.463 203.327C376.023 203.327 385.393 190.992 385.393 175.777C385.393 160.561 376.023 148.227 364.463 148.227C352.904 148.227 343.533 160.561 343.533 175.777C343.533 190.992 352.904 203.327 364.463 203.327Z" fill="white"/>
<path fill-rule="evenodd" clip-rule="evenodd" d="M361.109 208.662C361.471 208.865 361.599 209.322 361.397 209.683C357.879 215.963 352.588 219.65 346.838 220.446C341.088 221.241 334.994 219.128 329.902 214.037C329.609 213.744 329.609 213.269 329.902 212.976C330.195 212.683 330.67 212.683 330.963 212.976C335.772 217.785 341.413 219.682 346.632 218.96C351.852 218.238 356.766 214.881 360.088 208.95C360.291 208.589 360.748 208.46 361.109 208.662Z" fill="black"/>
<path d="M370.113 234.919C390.923 241.829 426.623 260.769 440.013 278.649C440.723 295.339 458.873 301.649 458.873 301.649L485.113 252.399C462.113 240.069 446.113 265.659 446.113 265.659C434.213 242.379 395.383 222.659 369.583 217.949" fill="#F4A700"/>
<path d="M338.573 236.16C334.853 257.77 334.713 298.16 344.163 318.42C358.553 326.92 355.513 345.88 355.513 345.88H299.723C299.723 319.73 329.783 317.77 329.783 317.77C314.863 296.3 315.783 252.77 323.783 227.77" fill="#F4A700"/>
<path d="M256.993 101.297C256.893 101.457 246.993 116.967 252.313 132.357C256.543 144.507 269.313 154.207 290.113 161.187L283.883 179.787C256.883 170.737 239.973 156.867 233.713 138.557C229.243 125.497 231.283 112.977 234.293 104.047C235.847 99.273 237.983 94.7086 240.653 90.457" fill="#F4A700"/>
<path fill-rule="evenodd" clip-rule="evenodd" d="M367.024 136.03C365.257 135.758 363.454 135.836 361.718 136.26C359.981 136.684 358.345 137.446 356.903 138.503C355.461 139.559 354.242 140.889 353.314 142.417C353.099 142.771 352.638 142.884 352.284 142.669C351.93 142.454 351.817 141.993 352.032 141.639C353.062 139.943 354.416 138.466 356.017 137.293C357.618 136.12 359.434 135.274 361.362 134.803C363.289 134.332 365.291 134.245 367.252 134.548C369.214 134.851 371.096 135.537 372.792 136.567C373.146 136.782 373.259 137.244 373.044 137.598C372.829 137.952 372.368 138.064 372.014 137.849C370.486 136.921 368.79 136.303 367.024 136.03ZM323.024 138.98C321.257 138.708 319.454 138.786 317.718 139.21C315.981 139.634 314.345 140.396 312.903 141.453C311.461 142.509 310.242 143.839 309.314 145.367C309.099 145.721 308.638 145.834 308.284 145.619C307.93 145.404 307.817 144.943 308.032 144.589C309.062 142.893 310.416 141.416 312.017 140.243C313.618 139.07 315.434 138.224 317.362 137.753C319.289 137.282 321.291 137.195 323.252 137.498C325.214 137.801 327.096 138.487 328.792 139.517C329.146 139.732 329.259 140.194 329.044 140.548C328.829 140.902 328.368 141.014 328.014 140.799C326.486 139.871 324.79 139.253 323.024 138.98Z" fill="black"/>
<path fill-rule="evenodd" clip-rule="evenodd" d="M428.814 82.6589C428.814 82.6591 428.814 82.6593 428.503 81.9765C428.193 81.2937 428.193 81.2939 428.192 81.294L428.196 81.2924L428.214 81.2839C428.231 81.2758 428.258 81.2629 428.294 81.2451C428.366 81.2096 428.474 81.1546 428.612 81.0801C428.889 80.9309 429.285 80.7038 429.749 80.3972C430.682 79.7825 431.88 78.857 432.959 77.6106C435.096 75.1421 436.778 71.4164 434.975 66.2226L436.392 65.7305C438.408 71.5366 436.501 75.8109 434.093 78.5924C432.899 79.971 431.586 80.9831 430.575 81.6495C430.069 81.9836 429.635 82.2331 429.324 82.4003C429.169 82.4839 429.045 82.5472 428.958 82.5902C428.914 82.6117 428.88 82.6282 428.856 82.6397L428.827 82.6532L428.818 82.6572L428.815 82.6585L428.814 82.6589Z" fill="black"/>
<path fill-rule="evenodd" clip-rule="evenodd" d="M417.475 55.9779C418.656 56.3179 419.696 56.6173 420.58 56.7932L420.582 56.7937C422.315 57.1447 423.572 57.9235 424.309 58.9959C425.047 60.0707 425.201 61.3509 424.897 62.5703C424.294 64.991 421.902 67.2019 418.474 67.662C415.958 68.0082 413.337 67.4739 411.356 66.8811C410.357 66.5822 409.504 66.2632 408.888 66.0206C408.688 65.9421 408.507 65.8688 408.358 65.8089C408.282 65.778 408.214 65.7506 408.157 65.728C408.068 65.6925 408.008 65.6691 407.968 65.655C407.957 65.6512 407.951 65.6491 407.948 65.6482C407.946 65.6474 407.946 65.6476 407.949 65.6484C407.952 65.6492 407.965 65.6529 407.985 65.6567C407.999 65.6595 408.048 65.6688 408.113 65.6688V64.1688C408.23 64.1688 408.329 64.1969 408.353 64.2036C408.354 64.2039 408.355 64.2042 408.355 64.2044C408.397 64.216 408.437 64.2297 408.471 64.2418C408.54 64.2662 408.624 64.299 408.713 64.3348C408.781 64.3617 408.853 64.3911 408.933 64.4232C409.076 64.4812 409.242 64.5479 409.437 64.6248C410.031 64.8587 410.842 65.1616 411.786 65.444C413.689 66.0135 416.068 66.4792 418.271 66.1758L418.274 66.1754C421.185 65.7851 423.008 63.9463 423.442 62.2073C423.657 61.3466 423.535 60.5194 423.072 59.8454C422.608 59.1692 421.737 58.5582 420.286 58.2641C419.335 58.0746 418.217 57.7529 417.035 57.4123C416.78 57.3388 416.521 57.2644 416.261 57.1903C414.773 56.7666 413.181 56.3396 411.571 56.0751C408.332 55.5433 405.176 55.695 402.728 57.6896C400.934 59.1602 398.741 61.2797 396.944 63.7305C395.139 66.1908 393.779 68.9215 393.552 71.624C393.329 74.2781 394.191 76.9822 396.994 79.4822C399.831 82.0127 404.674 84.3453 412.42 86.1075L412.087 87.5701C404.228 85.7823 399.103 83.3736 395.995 80.6016C392.854 77.7991 391.794 74.6394 392.057 71.4986C392.317 68.4061 393.851 65.4105 395.734 62.8433C397.624 60.267 399.912 58.0581 401.778 56.5287L401.78 56.5274C404.731 54.1226 408.43 54.0393 411.814 54.5949C413.514 54.8742 415.176 55.3216 416.672 55.7476C416.946 55.8258 417.214 55.9028 417.475 55.9779Z" fill="black"/>
<path fill-rule="evenodd" clip-rule="evenodd" d="M422.579 78.9192C422.529 78.9538 422.358 79.0688 422.113 79.0688V77.5688C421.894 77.5688 421.751 77.6684 421.727 77.6848L421.726 77.6858C421.702 77.7019 421.686 77.7157 421.678 77.7234C421.668 77.7315 421.663 77.737 421.662 77.7386C421.661 77.7388 421.662 77.7387 421.662 77.7383C421.665 77.7351 421.685 77.7107 421.722 77.6554C421.799 77.5372 421.907 77.3383 422.02 77.0635C422.244 76.5166 422.468 75.7127 422.509 74.73C422.59 72.7905 421.964 70.0863 419.075 67.2213L420.131 66.1562C423.313 69.3113 424.107 72.422 424.008 74.7926C423.959 75.9648 423.692 76.9397 423.408 77.6328C423.266 77.978 423.116 78.2644 422.977 78.4766C422.909 78.5802 422.833 78.6833 422.751 78.77C422.711 78.8121 422.653 78.8682 422.579 78.9192Z" fill="black"/>
<path fill-rule="evenodd" clip-rule="evenodd" d="M417.516 41.9301C417.516 41.9297 417.517 41.9294 417.033 41.3564C416.549 40.7834 416.549 40.783 416.55 40.7826L416.551 40.7817L416.553 40.7797L416.559 40.7748L416.576 40.7611C416.59 40.7503 416.607 40.7363 416.629 40.7196C416.674 40.6861 416.735 40.6413 416.813 40.5887C416.97 40.4836 417.194 40.3466 417.484 40.2048C418.063 39.9212 418.904 39.6177 419.977 39.516C422.147 39.3102 425.139 39.9404 428.707 42.9534C432.44 46.1061 433.217 51.3698 432.004 55.9604C430.792 60.5494 427.517 64.7521 422.791 65.7017L422.495 64.2311C426.479 63.4307 429.434 59.8183 430.554 55.5773C431.674 51.3379 430.886 46.7567 427.739 44.0994C424.427 41.3023 421.824 40.8476 420.119 41.0093C419.254 41.0913 418.588 41.3346 418.144 41.552C417.921 41.6607 417.756 41.7627 417.65 41.8339C417.597 41.8695 417.559 41.8973 417.536 41.9143C417.525 41.9227 417.518 41.9285 417.515 41.9312C417.513 41.9325 417.512 41.933 417.513 41.9327L417.514 41.9317L417.515 41.9307L417.516 41.9301Z" fill="black"/>
<path fill-rule="evenodd" clip-rule="evenodd" d="M430.593 46.6552C430.593 46.655 430.594 46.6548 430.273 45.9771C429.951 45.2993 429.952 45.2991 429.952 45.2989L429.953 45.2983L429.956 45.2971L429.963 45.2939L429.983 45.2849C429.999 45.2777 430.02 45.2684 430.047 45.2572C430.1 45.235 430.175 45.2056 430.268 45.1723C430.454 45.1059 430.719 45.0238 431.046 44.9533C431.699 44.8125 432.615 44.7158 433.669 44.8924C435.822 45.2531 438.374 46.7226 440.413 50.8017C442.485 54.9454 441.925 60.0174 439.352 63.1367C438.052 64.7134 436.232 65.793 434 65.967C431.778 66.1402 429.233 65.4099 426.472 63.5379L427.313 62.2963C429.877 64.0342 432.089 64.6114 433.883 64.4715C435.668 64.3324 437.127 63.4783 438.195 62.1824C440.36 59.5567 440.9 55.1288 439.072 51.4725C437.211 47.7515 435.028 46.641 433.421 46.3718C432.595 46.2333 431.875 46.3091 431.362 46.4196C431.106 46.4747 430.905 46.5379 430.771 46.5854C430.705 46.6091 430.655 46.6288 430.625 46.6414C430.61 46.6477 430.6 46.6522 430.594 46.6546L430.59 46.6565C430.59 46.6564 430.591 46.6563 430.591 46.6561L430.592 46.6556L430.593 46.6552Z" fill="black"/>
<path fill-rule="evenodd" clip-rule="evenodd" d="M389.617 22.0881C388.79 22.4051 388.057 22.9261 387.486 23.6028C386.905 24.2908 386.51 25.1165 386.341 26.0006C386.014 27.9236 386.124 29.8954 386.663 31.7701L386.667 31.7819L386.67 31.7939C387.428 34.7979 388.361 37.7551 389.464 40.6503L389.466 40.657L389.469 40.6638C391.973 47.637 394.469 54.5807 398.32 60.7921L397.045 61.5825C393.107 55.2311 390.566 48.1559 388.077 41.227L388.059 41.1776C386.938 38.2337 385.989 35.227 385.218 32.1726C384.619 30.0826 384.498 27.8846 384.863 25.7413L384.865 25.7341L384.866 25.727C385.083 24.5868 385.591 23.5219 386.339 22.6351C387.088 21.7483 388.053 21.0696 389.141 20.6645L389.189 20.6467L389.238 20.6356C390.334 20.3892 391.473 20.4161 392.556 20.7137C393.639 21.0114 394.632 21.5707 395.448 22.3425L395.455 22.3491L395.455 22.3492C396.953 23.8036 398.163 25.5285 399.019 27.4327C403.467 36.1312 406.526 45.4728 408.083 55.1178L406.602 55.3569C405.069 45.8603 402.056 36.6627 397.675 28.0989L397.666 28.0817L397.658 28.0641C396.88 26.3277 395.779 24.7548 394.414 23.4289C393.777 22.8278 393.003 22.3921 392.159 22.1601C391.329 21.9321 390.457 21.9075 389.617 22.0881Z" fill="black"/>
<path fill-rule="evenodd" clip-rule="evenodd" d="M406.469 17.3164L406.519 17.3168C407.539 17.3252 408.542 17.5701 409.451 18.0319C410.439 18.4202 411.343 18.9932 412.117 19.7204L412.15 19.7521L412.18 19.7877C413.101 20.8975 413.742 22.2121 414.05 23.6209C417.174 34.1989 418.959 45.127 419.362 56.1493L417.863 56.2042C417.464 45.2981 415.697 34.4852 412.604 24.0194L412.596 23.9922L412.59 23.9644C412.339 22.7963 411.813 21.7052 411.055 20.7816C410.421 20.1926 409.68 19.7292 408.872 19.4161L408.835 19.4016L408.799 19.3833C408.105 19.0251 407.338 18.8316 406.557 18.8174C405.954 18.9013 405.383 19.1411 404.901 19.5135C404.406 19.895 404.023 20.4019 403.791 20.9814C403.28 22.3035 403.049 23.7173 403.112 25.1333L403.114 25.1634L403.112 25.1935C402.942 29.9765 403.29 34.7639 404.151 39.4719L402.675 39.7417C401.797 34.9369 401.44 30.0511 401.612 25.1698C401.544 23.5551 401.81 21.9436 402.393 20.4362L402.396 20.4284L402.396 20.4284C402.728 19.5983 403.277 18.8724 403.984 18.3261C404.692 17.7799 405.533 17.4333 406.42 17.3226L406.469 17.3164Z" fill="black"/>
<path fill-rule="evenodd" clip-rule="evenodd" d="M241.456 90.4626C241.455 90.4624 241.455 90.4622 241.013 91.0677C240.57 91.6732 240.57 91.673 240.569 91.6727L240.568 91.6721L240.566 91.6702L240.558 91.6646L240.533 91.6456C240.512 91.6295 240.481 91.6065 240.443 91.5767C240.367 91.5171 240.259 91.4303 240.124 91.3174C239.856 91.0917 239.484 90.7607 239.058 90.3325C238.209 89.4781 237.135 88.225 236.252 86.6371C234.471 83.433 233.483 78.8703 236.628 73.5938L237.917 74.3617C235.102 79.0852 235.984 83.0675 237.563 85.9084C238.36 87.3429 239.339 88.4874 240.122 89.2748C240.512 89.6675 240.851 89.9686 241.09 90.1697C241.21 90.2702 241.304 90.3455 241.367 90.3947C241.398 90.4192 241.422 90.4372 241.437 90.4485L241.453 90.4605L241.456 90.4626Z" fill="black"/>
<path fill-rule="evenodd" clip-rule="evenodd" d="M257.144 69.383C255.97 69.4723 254.863 69.5564 253.933 69.5564H253.926L253.926 69.5563C252.445 69.5427 251.469 69.96 250.877 70.5243C250.288 71.0867 250.001 71.8703 250.035 72.7575C250.104 74.551 251.511 76.7278 254.265 77.71L254.267 77.7106C256.339 78.4559 258.766 78.4759 260.755 78.3017C261.741 78.2154 262.601 78.0833 263.236 77.9775C263.367 77.9556 263.494 77.9339 263.61 77.914C263.766 77.8874 263.904 77.8639 264.013 77.8466C264.109 77.8313 264.203 77.8174 264.283 77.8096C264.321 77.8057 264.373 77.8016 264.427 77.8017C264.427 77.8017 264.428 77.8017 264.43 77.8017C264.458 77.8015 264.605 77.8005 264.762 77.8686L264.164 79.2442C264.255 79.2838 264.331 79.2941 264.357 79.2973C264.39 79.3014 264.415 79.3017 264.424 79.3017C264.443 79.3017 264.448 79.3005 264.43 79.3023C264.398 79.3055 264.34 79.3133 264.248 79.328C264.144 79.3445 264.023 79.3652 263.878 79.39C263.762 79.4099 263.631 79.4323 263.482 79.4571C262.831 79.5657 261.927 79.7048 260.886 79.796C258.821 79.9768 256.137 79.9769 253.76 79.1225C250.515 77.9645 248.632 75.3066 248.536 72.8152C248.488 71.56 248.899 70.3386 249.842 69.4391C250.782 68.5421 252.169 68.0408 253.936 68.0564C254.803 68.0562 255.831 67.9782 256.994 67.8899C257.313 67.8657 257.642 67.8408 257.981 67.8164C259.534 67.7048 261.253 67.61 262.975 67.6897C266.403 67.8481 270.003 68.704 272.396 71.665L272.397 71.6654C273.909 73.5398 275.693 76.1698 277.01 79.079C278.323 81.978 279.206 85.2258 278.821 88.3056C278.43 91.4335 276.74 94.307 273.087 96.3995C269.474 98.4693 263.962 99.7654 255.904 99.8863L255.882 98.3865C263.824 98.2673 269.043 96.9872 272.342 95.0979C275.6 93.2314 277.002 90.763 277.333 88.1196C277.669 85.4282 276.902 82.4754 275.644 79.6978C274.391 76.9304 272.682 74.408 271.229 72.6073C269.242 70.1486 266.183 69.3396 262.906 69.1881C261.276 69.1127 259.63 69.2017 258.088 69.3126C257.77 69.3354 257.455 69.3594 257.144 69.383Z" fill="black"/>
<path fill-rule="evenodd" clip-rule="evenodd" d="M248.574 88.2796C248.557 88.2609 248.451 88.1417 248.255 88.0868L247.849 89.5308C247.629 89.4688 247.499 89.3273 247.46 89.2848C247.403 89.2214 247.361 89.157 247.332 89.1079C247.271 89.0073 247.219 88.8919 247.175 88.776C247.083 88.5393 246.995 88.2278 246.928 87.8601C246.793 87.122 246.733 86.113 246.926 84.9561C247.318 82.6164 248.738 79.74 252.506 77.3086L253.319 78.5689C249.897 80.7775 248.726 83.2911 248.406 85.2039C248.243 86.1733 248.296 87.0062 248.403 87.5897C248.457 87.8827 248.522 88.1019 248.574 88.2364C248.587 88.2691 248.598 88.2943 248.606 88.3126C248.614 88.3302 248.619 88.3379 248.619 88.3379L248.619 88.3377C248.618 88.3368 248.615 88.3315 248.609 88.323C248.603 88.315 248.592 88.2998 248.575 88.2809C248.575 88.2806 248.574 88.2801 248.574 88.2796Z" fill="black"/>
<path fill-rule="evenodd" clip-rule="evenodd" d="M261.202 53.2123C261.202 53.2127 261.202 53.2132 260.613 53.6769C260.023 54.1405 260.024 54.141 260.024 54.1414L260.025 54.1421L260.025 54.1425C260.022 54.1392 260.016 54.132 260.007 54.1214C259.988 54.1001 259.956 54.0649 259.911 54.0191C259.821 53.9273 259.679 53.7931 259.483 53.6408C259.09 53.3361 258.485 52.9604 257.653 52.7018C256.013 52.1922 253.371 52.1019 249.569 54.1567C245.957 56.1093 244.243 60.4299 244.458 64.8101C244.673 69.1923 246.804 73.3343 250.511 74.9386L249.915 76.3152C245.512 74.4094 243.192 69.6214 242.96 64.8836C242.727 60.1438 244.569 55.1544 248.856 52.8371C252.955 50.6219 256.013 50.6216 258.098 51.2694C259.128 51.5896 259.892 52.0595 260.402 52.4558C260.658 52.6539 260.85 52.834 260.982 52.9689C261.049 53.0364 261.1 53.0927 261.136 53.1345C261.155 53.1554 261.169 53.1727 261.18 53.1859L261.194 53.2027L261.199 53.2088L261.201 53.2112L261.202 53.2123ZM260.025 54.1425L260.025 54.1433L260.026 54.1446C260.027 54.1449 260.026 54.1442 260.025 54.1425Z" fill="black"/>
<path fill-rule="evenodd" clip-rule="evenodd" d="M247.167 54.8699C247.167 54.8702 247.168 54.8706 246.713 55.4672C246.259 56.0638 246.259 56.0641 246.259 56.0644L246.26 56.0649L246.261 56.0657L246.258 56.0635C246.253 56.0601 246.244 56.0535 246.231 56.0442C246.204 56.0255 246.159 55.996 246.099 55.959C245.978 55.8848 245.794 55.7811 245.555 55.6741C245.075 55.4595 244.386 55.236 243.549 55.2003C241.92 55.1308 239.556 55.7656 236.971 59.0234C234.429 62.2258 234.044 66.6586 235.619 69.6668C236.396 71.1516 237.646 72.2864 239.364 72.7917C241.091 73.2999 243.374 73.1949 246.241 72.0322L246.805 73.4222C243.717 74.6745 241.078 74.8595 238.94 74.2308C236.794 73.5993 235.236 72.1702 234.29 70.3626C232.417 66.7858 232.917 61.7186 235.796 58.091C238.63 54.5188 241.431 53.6086 243.613 53.7016C244.68 53.7472 245.557 54.0318 246.168 54.305C246.473 54.4419 246.715 54.577 246.884 54.6807C246.968 54.7326 247.035 54.7767 247.083 54.8095C247.106 54.826 247.125 54.8395 247.14 54.8499L247.157 54.8628L247.163 54.8674L247.166 54.8691L247.167 54.8699Z" fill="black"/>
<path fill-rule="evenodd" clip-rule="evenodd" d="M288.815 38.5003C289.936 38.4337 291.057 38.6449 292.077 39.1154L292.12 39.1353L292.16 39.1604C293.145 39.7763 293.953 40.6381 294.504 41.6611C295.055 42.684 295.33 43.8329 295.302 44.9945L295.302 44.9985C295.237 47.2043 294.669 49.366 293.64 51.3183C292.246 54.1209 290.699 56.8446 289.006 59.4772C288.873 59.6923 288.739 59.9076 288.605 60.1231C284.836 66.1892 281 72.3647 276.005 77.5944L274.92 76.5584C279.805 71.4436 283.569 65.3864 287.361 59.2831C287.486 59.0822 287.611 58.8814 287.735 58.6805L287.742 58.6706L287.742 58.6707C289.408 56.0804 290.93 53.4003 292.301 50.6425L292.305 50.6344L292.309 50.6264C293.233 48.8752 293.744 46.9356 293.803 44.9564C293.824 44.0559 293.611 43.1654 293.184 42.3724C292.764 41.5927 292.151 40.9337 291.405 40.4577C290.621 40.1046 289.763 39.9466 288.904 39.9977C288.031 40.0496 287.184 40.3159 286.439 40.7731C284.83 41.789 283.429 43.1004 282.309 44.6381L282.297 44.654L282.285 44.6693C276.223 52.1319 271.37 60.4996 267.902 69.4669L266.503 68.9259C270.025 59.8183 274.953 51.3193 281.108 43.7387C282.339 42.0535 283.877 40.6161 285.642 39.5022L285.65 39.4973L285.65 39.4974C286.607 38.9094 287.694 38.5669 288.815 38.5003Z" fill="black"/>
<path fill-rule="evenodd" clip-rule="evenodd" d="M272.844 32.4156C273.824 32.1566 274.849 32.1215 275.845 32.313L275.898 32.3233L275.95 32.3414C276.795 32.6363 277.546 33.1509 278.126 33.8323C278.707 34.5136 279.095 35.3372 279.251 36.2183L279.254 36.2311L279.254 36.2311C279.508 37.8245 279.434 39.4529 279.037 41.0166C278.202 45.8311 276.848 50.541 274.997 55.0635L273.609 54.4954C275.422 50.0644 276.748 45.4494 277.564 40.7317L277.569 40.702L277.577 40.6728C277.929 39.3016 277.996 37.8726 277.773 36.4744C277.663 35.8579 277.39 35.2817 276.984 34.8047C276.588 34.3399 276.079 33.9855 275.507 33.7757C274.74 33.6366 273.951 33.6699 273.199 33.8735L273.162 33.8834L273.124 33.8896C272.269 34.03 271.447 34.3278 270.701 34.7678C269.771 35.5153 269.033 36.474 268.548 37.5643L268.537 37.5904L268.523 37.6156C263.338 47.2243 259.379 57.446 256.741 68.0407L255.285 67.6782C257.952 56.9707 261.951 46.64 267.19 36.928C267.78 35.6127 268.677 34.4582 269.807 33.562L269.845 33.5313L269.888 33.506C270.797 32.9616 271.799 32.5918 272.844 32.4156Z" fill="black"/>
<path d="M481.653 284.448C490.888 271.106 493.449 256.881 487.373 252.675C481.297 248.469 468.885 255.876 459.65 269.217C450.415 282.559 447.854 296.784 453.93 300.99C460.006 305.196 472.418 297.789 481.653 284.448Z" fill="black"/>
<path fill-rule="evenodd" clip-rule="evenodd" d="M485.152 264.796C485.002 265.028 484.692 265.094 484.461 264.943L474.78 258.658C474.548 258.507 474.482 258.198 474.632 257.966C474.783 257.734 475.092 257.669 475.324 257.819L485.005 264.104C485.237 264.255 485.303 264.564 485.152 264.796Z" fill="#F4A700"/>
<path fill-rule="evenodd" clip-rule="evenodd" d="M483.803 274.468C483.643 274.694 483.331 274.748 483.106 274.588L469.253 264.815C469.027 264.656 468.973 264.344 469.133 264.118C469.292 263.892 469.604 263.839 469.829 263.998L483.682 273.771C483.908 273.93 483.962 274.242 483.803 274.468Z" fill="#F4A700"/>
<path fill-rule="evenodd" clip-rule="evenodd" d="M478.463 282.469C478.306 282.696 477.994 282.752 477.767 282.594L462.259 271.825C462.032 271.667 461.976 271.356 462.133 271.129C462.291 270.902 462.602 270.846 462.829 271.003L478.338 281.773C478.565 281.931 478.621 282.242 478.463 282.469Z" fill="#F4A700"/>
<path fill-rule="evenodd" clip-rule="evenodd" d="M473.132 290.8C472.976 291.027 472.665 291.086 472.437 290.93L457.932 280.995C457.705 280.839 457.646 280.527 457.802 280.3C457.958 280.072 458.27 280.014 458.497 280.17L473.002 290.104C473.23 290.261 473.288 290.572 473.132 290.8Z" fill="#F4A700"/>
<path fill-rule="evenodd" clip-rule="evenodd" d="M466.633 292.8C466.492 293.037 466.185 293.114 465.948 292.973L456.806 287.515C456.569 287.374 456.492 287.067 456.633 286.83C456.775 286.593 457.082 286.515 457.319 286.657L466.46 292.114C466.697 292.256 466.775 292.563 466.633 292.8Z" fill="#F4A700"/>
<path d="M325.463 196.86C330.892 196.86 335.293 191.299 335.293 184.44C335.293 177.58 330.892 172.02 325.463 172.02C320.034 172.02 315.633 177.58 315.633 184.44C315.633 191.299 320.034 196.86 325.463 196.86Z" fill="black"/>
<path d="M365.613 196.86C371.042 196.86 375.443 191.299 375.443 184.44C375.443 177.58 371.042 172.02 365.613 172.02C360.184 172.02 355.783 177.58 355.783 184.44C355.783 191.299 360.184 196.86 365.613 196.86Z" fill="black"/>
<path d="M333.003 190.746C334.754 190.746 336.173 189.327 336.173 187.576C336.173 185.826 334.754 184.406 333.003 184.406C331.252 184.406 329.833 185.826 329.833 187.576C329.833 189.327 331.252 190.746 333.003 190.746Z" fill="white"/>
<path d="M373.343 190.938C375.094 190.938 376.513 189.518 376.513 187.768C376.513 186.017 375.094 184.598 373.343 184.598C371.592 184.598 370.173 186.017 370.173 187.768C370.173 189.518 371.592 190.938 373.343 190.938Z" fill="white"/>
</svg>
