<svg width="41" height="42" viewBox="0 0 41 42" fill="none" xmlns="http://www.w3.org/2000/svg">
<rect y="0.858398" width="41" height="41" rx="20.5" fill="#8C9D5C"/>
<path fill-rule="evenodd" clip-rule="evenodd" d="M19.3475 10.3998C18.9769 10.9184 18.7919 11.5435 18.7919 12.2749V12.3585C18.7919 12.5899 18.6853 12.7288 18.4725 12.7752L18.0142 12.886C17.9031 12.9232 17.7964 12.914 17.6947 12.8582C17.5931 12.8024 17.5281 12.7193 17.5003 12.6082C17.4633 12.4974 17.4725 12.3907 17.5283 12.289C17.5836 12.1871 17.6672 12.1221 17.7781 12.0946L17.9725 12.039C18.0097 11.2429 18.2411 10.5345 18.6669 9.91398C19.1761 9.21035 19.7919 8.8584 20.5142 8.8584C21.2364 8.8584 21.8475 9.21035 22.3475 9.91398C22.755 10.5159 22.9817 11.2243 23.0281 12.039C23.7872 12.2426 24.4864 12.5251 25.1253 12.8863C25.7181 12.3215 26.3706 11.9696 27.0836 11.8307C27.9353 11.6735 28.6206 11.8399 29.1392 12.3307C29.6667 12.8307 29.8658 13.5113 29.7361 14.3727C29.6253 15.0855 29.2964 15.7522 28.75 16.3725C29.2039 17.1133 29.5556 17.9328 29.8056 18.8311C30.6206 18.8681 31.3286 19.0997 31.9306 19.5256C32.6436 20.0436 33 20.6592 33 21.3723C33 22.0948 32.6436 22.7059 31.9306 23.2059C31.3286 23.6134 30.6203 23.8401 29.8056 23.8865C29.7131 24.2476 29.5833 24.6271 29.4169 25.0254C29.2964 25.331 29.1483 25.6457 28.9722 25.9699C29.5278 26.5532 29.875 27.2058 30.0139 27.9283C30.1808 28.7894 30.0186 29.4791 29.5278 29.9978C29.4536 30.1272 29.3381 30.1919 29.1806 30.1919C29.0972 30.1919 29.0186 30.1689 28.9444 30.1225C28.8519 30.0578 28.7917 29.9697 28.7639 29.8589C28.7456 29.7478 28.7686 29.6458 28.8333 29.553L28.9308 29.4141C29.2178 29.118 29.3058 28.6736 29.1947 28.0808C29.0836 27.4974 28.7828 26.9605 28.2919 26.4696L28.1531 26.3446C28.0142 26.1874 27.9956 26.0157 28.0975 25.8307C28.2919 25.4974 28.4769 25.1221 28.6531 24.7054C28.8475 24.224 28.9864 23.7843 29.0697 23.3859C29.0881 23.2934 29.1392 23.2148 29.2225 23.1498C29.2967 23.0851 29.3797 23.0526 29.4725 23.0526H29.5419C30.2825 23.0526 30.9214 22.8765 31.4583 22.5248C31.9306 22.1918 32.1667 21.8076 32.1667 21.3723C32.1667 20.9373 31.9261 20.5484 31.4444 20.2059C30.9628 19.8634 30.3706 19.6781 29.6667 19.6503H29.4725C29.3797 19.6503 29.2964 19.6222 29.2225 19.5667C29.1392 19.502 29.0883 19.4231 29.0697 19.3306C28.8475 18.3306 28.4494 17.4044 27.8753 16.5527C27.7642 16.3583 27.7825 16.1825 27.9306 16.0249L28 15.9555C28.5186 15.428 28.8242 14.8585 28.9169 14.2474C29.0003 13.6827 28.8844 13.2427 28.5697 12.9279C28.2456 12.6318 27.8011 12.539 27.2361 12.6501C26.6253 12.7799 26.065 13.1038 25.5556 13.6224L25.5417 13.6638C25.4769 13.7474 25.3889 13.798 25.2778 13.8168C25.1761 13.8352 25.0786 13.8168 24.9861 13.7613C24.2917 13.3446 23.5325 13.0343 22.7083 12.8304L22.5 12.761C22.2964 12.7149 22.1944 12.5807 22.1944 12.3585V12.289C22.1944 11.5482 22.0183 10.9184 21.6667 10.3998C21.3428 9.92787 20.9583 9.69147 20.5142 9.69147C20.0694 9.69147 19.6808 9.92787 19.3475 10.3998ZM16.125 12.886C16.2361 12.9232 16.3194 12.9927 16.375 13.0943C16.4306 13.1963 16.4397 13.2979 16.4028 13.4002C16.3658 13.511 16.2964 13.5943 16.1944 13.6499L15.6806 13.9557C15.5044 14.0852 15.3286 14.0713 15.1528 13.9141L15.0556 13.8168L14.9444 13.7474C14.7131 13.5438 14.4956 13.3816 14.2917 13.2613L13.625 13.0113L13.3889 12.9693C12.7869 12.886 12.3472 12.9974 12.0694 13.3027C11.7639 13.6268 11.6711 14.0713 11.7917 14.636L11.8889 15.0527L12.1389 15.553L12.2361 15.6777C12.3103 15.7888 12.4492 15.9555 12.6528 16.178L12.8333 16.3583C12.9814 16.5155 13 16.6872 12.8889 16.8725C12.435 17.6222 12.1111 18.4417 11.9167 19.3309C11.8703 19.5439 11.7314 19.6503 11.5 19.6503H11.4306L11.3194 19.6781H11.2086C10.9492 19.6873 10.69 19.7245 10.4306 19.7892L10.0975 19.9139L10.0556 19.9417L9.76389 20.0667L9.55556 20.2056C9.07417 20.5484 8.83333 20.937 8.83333 21.3723L8.86139 21.6781C8.89833 21.789 8.88444 21.8956 8.81972 21.9973C8.76417 22.0901 8.68083 22.1504 8.57 22.1779L8.45889 22.2056C8.24583 22.2056 8.11639 22.0992 8.07 21.8865C8.02333 21.7473 8 21.5759 8 21.3723C8 20.6409 8.35667 20.025 9.06972 19.5253L9.37528 19.3309L9.44472 19.3031C9.50028 19.2659 9.60194 19.2195 9.75056 19.1642C9.91722 19.0806 10.0744 19.0206 10.2225 18.9836C10.5003 18.9189 10.8106 18.877 11.1533 18.8586L11.1672 18.8447C11.3525 18.1411 11.635 17.4328 12.0144 16.7197C11.8939 16.5902 11.7506 16.4141 11.5839 16.1922C11.5097 16.118 11.4497 16.0394 11.4033 15.9558C11.2644 15.6966 11.1628 15.4744 11.0978 15.2894L11.07 15.1783C11.0236 15.0674 10.9911 14.9377 10.9725 14.7896C10.7875 13.9377 10.9542 13.2524 11.4725 12.734C11.9728 12.2063 12.6531 12.0118 13.5144 12.1507L13.8333 12.2054L13.9444 12.2471H13.9583L14.25 12.3304L14.7083 12.5388C14.9214 12.6685 15.1622 12.8446 15.4306 13.0665L15.4861 13.0943L15.8194 12.914C15.9214 12.8582 16.0233 12.849 16.125 12.886ZM9.45833 23.3309C9.42139 23.229 9.42611 23.1226 9.4725 23.0115C9.51861 22.9098 9.59722 22.8354 9.70861 22.7893C9.81028 22.752 9.91694 22.7568 10.0281 22.8032L10.4447 22.9559L10.5836 22.984L11.2364 23.0534H11.5281C11.6208 23.0534 11.7086 23.0857 11.7919 23.1507C11.8661 23.2154 11.9125 23.2943 11.9308 23.3868C12.0142 23.8221 12.1392 24.2343 12.3058 24.6229L12.32 24.651L12.3478 24.7343C12.5422 25.2252 12.7967 25.6974 13.1117 26.151C13.2414 26.3455 13.2275 26.5263 13.07 26.6927L13.0147 26.7482L12.8897 26.901C12.7508 27.0677 12.5936 27.2855 12.4175 27.5538C12.3342 27.7022 12.2603 27.8872 12.1953 28.1094C12.1953 28.1649 12.1814 28.2113 12.1536 28.2483L12.1122 28.4708C12.0286 29.0725 12.14 29.5125 12.4453 29.7903C12.7694 30.0958 13.2139 30.1883 13.7789 30.068L14.2094 29.9569L14.6956 29.7208C14.9453 29.5355 15.1536 29.3689 15.3206 29.2205L15.515 29.0122C15.6722 28.8733 15.8436 28.855 16.0289 28.9569C16.7606 29.4014 17.575 29.7255 18.4733 29.9291C18.6864 29.9753 18.7928 30.1094 18.7928 30.3317V30.4011L18.8206 30.5542V30.6375C18.8297 30.8969 18.8669 31.1558 18.9317 31.4153C19.0242 31.6931 19.1075 31.8922 19.1814 32.0125L19.2094 32.082L19.3483 32.2903C19.7003 32.7812 20.0889 33.0262 20.515 33.0262C20.95 33.0262 21.3342 32.7809 21.6675 32.2903L21.8619 31.9845L21.8758 31.9567C21.9686 31.7897 22.0428 31.6047 22.0981 31.4011C22.1536 31.1325 22.1861 30.8869 22.1956 30.665L22.0844 30.4705C22.0567 30.3597 22.0753 30.253 22.14 30.1514C22.1956 30.0586 22.2789 29.9941 22.39 29.9569L22.5289 29.9291C23.5289 29.7066 24.4547 29.3089 25.3067 28.7344C25.5103 28.6236 25.6861 28.6419 25.8342 28.79L25.8897 28.8455C26.3989 29.3269 26.9361 29.6278 27.5008 29.7483C27.6119 29.7761 27.7 29.8408 27.7647 29.9428C27.8203 30.0353 27.8389 30.1372 27.8203 30.2483C27.7922 30.3594 27.7325 30.4475 27.6397 30.5122C27.5472 30.5678 27.4406 30.5864 27.3206 30.5678C26.6722 30.4289 26.0611 30.1094 25.4869 29.6094C24.7369 30.0725 23.9178 30.4244 23.0286 30.665C23.0194 30.9983 22.9775 31.3133 22.9036 31.6095C22.8203 31.8872 22.7231 32.1325 22.6119 32.3453L22.5556 32.442C22.5183 32.5253 22.4489 32.632 22.3472 32.7612C21.8381 33.4928 21.2269 33.8584 20.5139 33.8584C19.81 33.8584 19.1944 33.4973 18.6667 32.7753L18.4722 32.4698L18.4444 32.4003C18.3333 32.2245 18.2269 31.9653 18.125 31.6225C18.0603 31.3447 18.0186 31.0347 18 30.6919L17.9861 30.6778C17.2456 30.4836 16.5461 30.2011 15.8889 29.8305C15.6389 30.0528 15.3889 30.2472 15.1389 30.4142L15.1111 30.4419L14.4861 30.7336C14.4119 30.7708 14.3564 30.7892 14.3192 30.7892L13.9444 30.8864C13.0833 31.0717 12.3936 30.905 11.875 30.3864C11.3475 29.8864 11.1528 29.2058 11.2917 28.3447L11.3472 28.0113L11.3889 27.8863C11.4631 27.6085 11.5694 27.3588 11.7083 27.1363C11.8381 26.9049 12.0139 26.6549 12.2358 26.3866L12.2503 26.3585C12.0003 25.9791 11.7733 25.5343 11.5697 25.0251L11.5281 24.9279C11.3892 24.5946 11.2783 24.2474 11.1947 23.8862H11.1808C10.9214 23.8676 10.6808 23.8398 10.4586 23.8026L10.2086 23.7473C10.0697 23.7193 9.89389 23.6593 9.68111 23.5668C9.57889 23.5204 9.50472 23.4418 9.45833 23.3309ZM24.5139 21.7056C24.8658 22.1595 25.0417 22.6732 25.0417 23.2473C25.0417 23.9326 24.8008 24.5021 24.3192 24.9557C23.8564 25.4371 23.2869 25.6779 22.6111 25.6779C21.9628 25.6779 21.3889 25.4374 20.8889 24.9557C20.4167 24.4835 20.1806 23.914 20.1806 23.2473C20.1806 22.5901 20.4167 22.0159 20.8889 21.5253C21.2964 21.1178 21.7917 20.8909 22.375 20.8448C22.4861 20.8356 22.5881 20.8678 22.6808 20.942C22.7642 21.0162 22.8106 21.1089 22.8197 21.2198C22.8381 21.3403 22.8058 21.442 22.7222 21.5256C22.6481 21.609 22.5556 21.6551 22.4444 21.6645C22.065 21.7106 21.7408 21.8587 21.4722 22.109C21.1667 22.4331 21.0142 22.8126 21.0142 23.2479C21.0142 23.6832 21.1669 24.0535 21.4722 24.359C21.8147 24.6832 22.1947 24.8451 22.6114 24.8451C23.0464 24.8451 23.4214 24.6879 23.7364 24.3732C24.0514 24.0582 24.2086 23.6835 24.2086 23.2479C24.2086 22.8498 24.0928 22.5165 23.8614 22.2479C23.7967 22.1554 23.7686 22.0534 23.7781 21.9423C23.7872 21.8217 23.8333 21.7245 23.9169 21.6503C24.0094 21.5856 24.1111 21.5578 24.2225 21.567C24.3428 21.5759 24.44 21.6223 24.5139 21.7056ZM18.7361 18.2614C18.4861 18.5111 18.3611 18.8217 18.3611 19.192C18.3611 19.5439 18.4858 19.8448 18.7361 20.0948C18.9956 20.3542 19.31 20.4837 19.6806 20.4837C20.0325 20.4837 20.3333 20.3587 20.5833 20.1084C20.8425 19.8489 20.9719 19.5436 20.9719 19.1917C20.9719 18.8214 20.8422 18.5111 20.5833 18.2611C20.3425 18.0111 20.0417 17.8858 19.6806 17.8858C19.3008 17.8858 18.9908 18.0108 18.7497 18.2611H18.7361V18.2614ZM21.1806 17.6639C21.5972 18.0989 21.8056 18.6083 21.8056 19.1917C21.8056 19.7564 21.5972 20.2564 21.1806 20.6917C20.7639 21.1084 20.2639 21.3167 19.6808 21.3167C19.0789 21.3167 18.5697 21.1037 18.1531 20.6776C17.7364 20.2795 17.5281 19.7842 17.5281 19.1914C17.5281 18.5894 17.7364 18.0803 18.1531 17.6636C18.5789 17.2561 19.0881 17.0525 19.6808 17.0525C20.2639 17.0527 20.7639 17.2564 21.1806 17.6639ZM19.2086 23.3862C19.2086 23.8401 19.0558 24.2243 18.7503 24.539C18.4169 24.8632 18.0236 25.0251 17.5697 25.0251C17.1253 25.0251 16.7364 24.8679 16.4031 24.5529C16.0883 24.229 15.9311 23.8401 15.9311 23.3862C15.9311 22.9326 16.0839 22.5437 16.3892 22.2198C16.7133 21.8865 17.1069 21.7195 17.5697 21.7195C18.0328 21.7195 18.4264 21.8817 18.7503 22.2056C19.0558 22.539 19.2086 22.9326 19.2086 23.3862ZM18.1531 22.789C17.9956 22.6318 17.8011 22.5526 17.5694 22.5526C17.3381 22.5526 17.1436 22.6362 16.9861 22.8026C16.8381 22.9507 16.7639 23.1451 16.7639 23.3859C16.7639 23.6176 16.8381 23.8121 16.9861 23.9696C17.1528 24.1176 17.3472 24.1918 17.5694 24.1918C17.7917 24.1918 17.9908 24.1132 18.1667 23.9557C18.3056 23.8073 18.375 23.6176 18.375 23.3859C18.3753 23.1457 18.3011 22.9465 18.1531 22.789Z" fill="white"/>
</svg>
