<svg width="298" height="306" viewBox="0 0 298 306" fill="none" xmlns="http://www.w3.org/2000/svg">
<path fill-rule="evenodd" clip-rule="evenodd" d="M222.788 287.757L198.537 294.896C187.334 298.214 175.753 301.637 163.983 302.015C151.041 302.477 139.461 298.844 131.461 291.873C128.815 289.55 126.554 286.821 124.759 283.789C130.2 284.249 135.678 283.838 140.989 282.571C148.337 281.055 154.97 277.123 159.837 271.4C162.341 268.372 163.969 264.714 164.545 260.823C165.121 256.933 164.622 252.958 163.104 249.331C162.056 247.215 160.585 245.337 158.784 243.813C156.983 242.289 154.89 241.151 152.633 240.47C146.316 238.526 139.491 239.136 133.618 242.171C126.778 245.722 121.571 251.786 119.084 259.095C116.913 266.28 117.389 274.008 120.425 280.87C103.043 278.014 86.0172 266.718 75.1065 249.625C64.1958 232.533 60.4472 204.565 60.4472 182.433C66.3319 182.664 72.2375 182.874 78.1431 183.021C78.9217 183.041 79.6916 182.852 80.3732 182.474C81.0548 182.096 81.6234 181.542 82.0204 180.87C82.4174 180.199 82.6283 179.433 82.6315 178.652C82.6346 177.871 82.4298 177.103 82.0382 176.428C79.8946 172.513 78.1342 168.399 76.7818 164.144C84.4431 163.469 91.995 161.869 99.2733 159.378C102.456 158.244 112.885 155.178 112.99 155.178C113.273 155.088 113.517 154.904 113.681 154.655C113.845 154.407 113.919 154.11 113.891 153.813C109.2 116.017 111.566 65.1402 119.398 35.4285C119.449 35.2426 119.457 35.0475 119.42 34.8582C119.384 34.6689 119.305 34.4905 119.189 34.3367C119.071 34.1814 118.919 34.0552 118.745 33.9679C118.57 33.8805 118.379 33.8343 118.184 33.8327L98.6451 33.7067C99.5874 20.6672 90.9804 15.1448 80.5095 9.81141C70.9181 4.83497 59.4211 5.4229 50.479 6.49378C39.2123 7.85863 31.5057 12.0582 24.7624 20.2892C21.6763 24.3635 19.686 29.1644 18.9825 34.2317H3.06674C2.89405 34.2311 2.7231 34.2662 2.56456 34.3349C2.40603 34.4035 2.2633 34.5042 2.1453 34.6306L0.888791 36.0165C0.721372 36.1697 0.600949 36.3677 0.541611 36.587C0.482273 36.8064 0.486474 37.0382 0.553722 37.2553C12.3149 76.113 14.7828 117.202 7.7577 157.194C7.69989 157.507 7.76284 157.831 7.93384 158.1C8.10485 158.369 8.37119 158.563 8.67914 158.643C9.51681 158.832 28.3644 163.451 39.673 164.228C38.6887 166.16 37.6835 168.281 36.6364 170.401C36.0805 171.552 35.8157 172.823 35.8655 174.101C35.9152 175.378 36.2779 176.624 36.9216 177.728C37.5653 178.832 38.4701 179.761 39.5562 180.431C40.6423 181.101 41.8764 181.493 43.1493 181.572C48.0916 181.845 53.0338 182.076 57.9971 182.307C57.9971 204.88 61.9132 233.751 72.9914 251.053C84.6559 269.279 103.043 281.164 121.723 283.663C123.757 287.566 126.498 291.055 129.806 293.951C138.183 301.364 150.434 305.185 164.067 304.723C176.093 304.326 187.767 300.893 199.067 297.569L199.228 297.521L223.5 290.361L222.788 287.757ZM16.4067 131.283H46.856C47.1893 131.283 47.5089 131.15 47.7445 130.914C47.9801 130.677 48.1125 130.357 48.1125 130.023C48.1125 129.689 47.9801 129.368 47.7445 129.132C47.5089 128.896 47.1893 128.763 46.856 128.763H16.4067C16.0734 128.763 15.7538 128.896 15.5182 129.132C15.2825 129.368 15.1501 129.689 15.1501 130.023C15.1501 130.357 15.2825 130.677 15.5182 130.914C15.7538 131.15 16.0734 131.283 16.4067 131.283ZM15.9789 107.504C15.7433 107.741 15.6109 108.061 15.6109 108.395C15.6109 108.729 15.7433 109.05 15.9789 109.286C16.2145 109.522 16.5341 109.655 16.8674 109.655H44.0917C44.4249 109.655 44.7445 109.522 44.9802 109.286C45.2158 109.05 45.3482 108.729 45.3482 108.395C45.3482 108.061 45.2158 107.741 44.9802 107.504C44.7445 107.268 44.4249 107.135 44.0917 107.135H16.8674C16.5341 107.135 16.2145 107.268 15.9789 107.504ZM15.5271 89.4975H46.4162V89.4345C46.7389 89.4349 47.0493 89.3108 47.2832 89.088C47.5171 88.8652 47.6566 88.5607 47.6727 88.2376C47.6727 87.9035 47.5404 87.583 47.3047 87.3467C47.0691 87.1105 46.7495 86.9777 46.4162 86.9777H15.5271C15.1939 86.9777 14.8743 87.1105 14.6386 87.3467C14.403 87.583 14.2706 87.9035 14.2706 88.2376C14.2706 88.5717 14.403 88.8922 14.6386 89.1285C14.8743 89.3647 15.1939 89.4975 15.5271 89.4975ZM20.0924 36.7514H3.63217L3.21333 37.2553C5.20978 43.8346 6.92701 50.5048 8.36501 57.2661H45.0341C45.3673 57.2661 45.6869 57.3988 45.9226 57.6351C46.1582 57.8714 46.2906 58.1918 46.2906 58.5259C46.2906 58.8601 46.1582 59.1805 45.9226 59.4168C45.6869 59.6531 45.3673 59.7858 45.0341 59.7858H8.93044C9.96357 64.8812 10.871 70.0326 11.6529 75.2401C16.6515 71.5784 22.7455 69.7342 28.9298 70.0117C35.5409 70.385 42.0576 71.7584 48.2591 74.0852C54.4746 75.9403 60.4022 78.654 65.8712 82.1483C69.8618 84.9044 73.3249 88.3496 76.7999 91.8065C79.3611 94.3544 81.9287 96.9087 84.7188 99.1984C90.9594 104.322 101.137 107.66 109.095 105.813C109.43 80.1745 112.048 54.5994 116.634 36.3524L97.3257 36.2264C97.1508 36.2284 96.9776 36.1918 96.8184 36.1192C96.6592 36.0467 96.5178 35.9399 96.4043 35.8065C96.2828 35.6753 96.1917 35.5188 96.1374 35.3482C96.0831 35.1776 96.0669 34.9971 96.0902 34.8196C97.4304 23.4389 91.5458 18.2315 79.4414 12.0582C70.3736 7.39668 59.3583 7.96362 50.814 8.9925C46.1152 9.32843 41.5398 10.654 37.3865 12.8828C33.2332 15.1115 29.5952 18.1933 26.71 21.927C23.7662 25.8982 21.9172 30.5765 21.3489 35.4915C21.3489 35.8257 21.2165 36.1461 20.9809 36.3824C20.7453 36.6186 20.4257 36.7514 20.0924 36.7514ZM134.77 244.481C128.513 247.728 123.749 253.272 121.472 259.956C119.348 267.061 120.023 274.711 123.356 281.332C129.055 281.98 134.823 281.632 140.403 280.303C147.22 278.898 153.387 275.282 157.952 270.014C162.455 264.282 163.648 256.261 160.842 250.507C159.938 248.694 158.672 247.085 157.124 245.781C155.575 244.477 153.775 243.506 151.837 242.927C146.164 241.187 140.037 241.745 134.77 244.481Z" fill="black"/>
<path fill-rule="evenodd" clip-rule="evenodd" d="M282.649 139.942L270.687 143.476C265.16 145.118 259.448 146.812 253.642 146.999C247.258 147.228 241.546 145.43 237.6 141.979C236.295 140.829 235.179 139.479 234.294 137.978C236.977 138.206 239.68 138.002 242.3 137.375C245.924 136.624 249.196 134.678 251.597 131.845C252.832 130.347 253.635 128.536 253.919 126.61C254.203 124.684 253.957 122.717 253.208 120.922C252.691 119.874 251.966 118.945 251.078 118.19C250.189 117.436 249.156 116.873 248.043 116.536C244.927 115.573 241.561 115.875 238.664 117.378C235.29 119.135 232.721 122.137 231.494 125.755C230.423 129.311 230.658 133.136 232.156 136.533C223.582 135.119 215.183 129.528 209.801 121.067C204.419 112.607 202.57 98.7629 202.57 87.8082C205.473 87.9225 208.386 88.0265 211.299 88.0992C211.683 88.1091 212.063 88.0156 212.399 87.8285C212.736 87.6414 213.016 87.3674 213.212 87.0348C213.408 86.7022 213.512 86.323 213.513 85.9364C213.515 85.5499 213.414 85.1699 213.221 84.8357C212.163 82.898 211.295 80.8617 210.628 78.7555C214.407 78.4215 218.132 77.6293 221.722 76.3962C223.292 75.8349 228.437 74.3175 228.488 74.3175C228.628 74.273 228.748 74.1816 228.829 74.0587C228.91 73.9358 228.947 73.7886 228.933 73.6419C226.619 54.9336 227.786 29.7502 231.649 15.0435C231.674 14.9514 231.678 14.8548 231.66 14.7611C231.642 14.6674 231.603 14.5791 231.546 14.503C231.488 14.4261 231.413 14.3637 231.327 14.3205C231.241 14.2772 231.146 14.2543 231.05 14.2536L221.412 14.1912C221.877 7.73684 217.632 5.00336 212.467 2.36341C207.735 -0.099843 202.064 0.191174 197.653 0.721242C192.096 1.39682 188.294 3.47551 184.968 7.54976C183.446 9.56643 182.464 11.9428 182.117 14.451H174.266C174.181 14.4508 174.097 14.4681 174.018 14.5021C173.94 14.5361 173.87 14.5859 173.812 14.6485L173.192 15.3345C173.109 15.4103 173.05 15.5083 173.021 15.6169C172.991 15.7255 172.993 15.8402 173.026 15.9477C178.828 35.1816 180.045 55.5199 176.58 75.3153C176.552 75.4705 176.583 75.6308 176.667 75.7639C176.751 75.897 176.883 75.9929 177.035 76.0324C177.448 76.1259 186.745 78.4125 192.323 78.7971C191.837 79.7533 191.342 80.803 190.825 81.8528C190.551 82.4225 190.42 83.0513 190.445 83.6838C190.469 84.3163 190.648 84.933 190.966 85.4795C191.283 86.026 191.73 86.4854 192.265 86.8172C192.801 87.149 193.41 87.343 194.038 87.3821C196.476 87.5172 198.914 87.6315 201.362 87.7459C201.362 98.9189 203.293 113.21 208.758 121.774C214.512 130.796 223.582 136.678 232.796 137.915C233.799 139.847 235.151 141.574 236.783 143.008C240.915 146.677 246.959 148.569 253.683 148.34C259.615 148.143 265.374 146.444 270.948 144.798L271.028 144.775L283 141.231L282.649 139.942ZM180.846 62.4897H195.866C196.031 62.4897 196.188 62.424 196.304 62.3071C196.421 62.1901 196.486 62.0315 196.486 61.8661C196.486 61.7007 196.421 61.5421 196.304 61.4251C196.188 61.3082 196.031 61.2425 195.866 61.2425H180.846C180.682 61.2425 180.524 61.3082 180.408 61.4251C180.292 61.5421 180.227 61.7007 180.227 61.8661C180.227 62.0315 180.292 62.1901 180.408 62.3071C180.524 62.424 180.682 62.4897 180.846 62.4897ZM180.635 50.7198C180.519 50.8368 180.454 50.9954 180.454 51.1608C180.454 51.3262 180.519 51.4848 180.635 51.6018C180.752 51.7187 180.909 51.7844 181.074 51.7844H194.503C194.667 51.7844 194.825 51.7187 194.941 51.6018C195.057 51.4848 195.122 51.3262 195.122 51.1608C195.122 50.9954 195.057 50.8368 194.941 50.7198C194.825 50.6029 194.667 50.5372 194.503 50.5372H181.074C180.909 50.5372 180.752 50.6029 180.635 50.7198ZM180.412 41.8067H195.649V41.7755C195.808 41.7757 195.962 41.7143 196.077 41.604C196.192 41.4937 196.261 41.343 196.269 41.1831C196.269 41.0177 196.204 40.8591 196.088 40.7421C195.971 40.6252 195.814 40.5595 195.649 40.5595H180.412C180.248 40.5595 180.09 40.6252 179.974 40.7421C179.858 40.8591 179.793 41.0177 179.793 41.1831C179.793 41.3485 179.858 41.5071 179.974 41.624C180.09 41.741 180.248 41.8067 180.412 41.8067ZM182.664 15.6982H174.545L174.338 15.9477C175.323 19.2043 176.17 22.506 176.88 25.8527H194.967C195.132 25.8527 195.29 25.9184 195.406 26.0353C195.522 26.1523 195.587 26.3109 195.587 26.4763C195.587 26.6417 195.522 26.8003 195.406 26.9172C195.29 27.0342 195.132 27.0999 194.967 27.0999H177.159C177.668 29.622 178.116 32.1719 178.501 34.7495C180.967 32.937 183.973 32.0242 187.024 32.1615C190.285 32.3463 193.499 33.0261 196.558 34.1779C199.624 35.0961 202.548 36.4393 205.246 38.169C207.214 39.5332 208.923 41.2385 210.637 42.9496C211.9 44.2108 213.167 45.4751 214.543 46.6085C217.621 49.1445 222.642 50.797 226.567 49.8824C226.732 37.192 228.024 24.5327 230.286 15.5008L220.762 15.4384C220.675 15.4394 220.59 15.4213 220.511 15.3853C220.433 15.3494 220.363 15.2966 220.307 15.2305C220.247 15.1656 220.202 15.0881 220.175 15.0037C220.149 14.9193 220.141 14.8299 220.152 14.742C220.813 9.10878 217.91 6.5312 211.94 3.47551C207.467 1.16816 202.033 1.44879 197.819 1.95807C195.501 2.12434 193.244 2.78049 191.195 3.88367C189.146 4.98686 187.352 6.5123 185.929 8.36045C184.477 10.3261 183.565 12.6418 183.284 15.0746C183.284 15.24 183.219 15.3986 183.103 15.5156C182.986 15.6325 182.829 15.6982 182.664 15.6982ZM239.232 118.521C236.146 120.128 233.796 122.872 232.672 126.181C231.625 129.698 231.958 133.484 233.602 136.762C236.413 137.082 239.258 136.91 242.01 136.252C245.373 135.557 248.415 133.767 250.667 131.159C252.888 128.322 253.477 124.352 252.093 121.504C251.647 120.606 251.022 119.81 250.258 119.164C249.494 118.519 248.607 118.038 247.651 117.752C244.852 116.89 241.83 117.167 239.232 118.521Z" fill="black"/>
<path d="M127.5 58.0654H146.5M137 48.5654L137 67.5654" stroke="black" stroke-width="4"/>
</svg>
