<svg width="44" height="57" viewBox="0 0 44 57" fill="none" xmlns="http://www.w3.org/2000/svg">
<path d="M32.0897 21.8029C27.423 22.5305 24.1924 23.6265 24.1924 26.5461C24.1924 32.5592 42.5 30.2046 42.5 24.3578C42.5 15.2381 28.5 16.6981 22.7564 17.4275C17.0128 18.157 24.9103 0.65035 17.3718 1.38063C11.6343 1.93645 9.83333 13.4164 9.83333 17.4283C9.83333 21.4401 8.03846 24.9504 6.24359 26.5461C3.94615 28.5884 1.45727 28.7344 0.5 29.0991M24.9103 29.0991C22.0385 30.1932 19.8846 33.4757 24.9103 36.3934C29.9359 39.3111 40.3462 36.3934 41.0641 30.556C41.2884 28.7325 41.0641 27.6403 41.0641 27.6403M21.6795 34.9345C19.8846 36.3934 19.5256 40.7699 24.9103 41.4993C30.2949 42.2288 36.0385 41.4993 36.7564 38.2169C36.9164 37.4856 36.7564 36.7561 36.3974 36.3934M20.9615 40.4033C19.1667 43.6857 22.0385 46.6053 24.9103 46.6053C27.7821 46.6053 31.3718 45.5092 32.8077 44.4151C34.2436 43.321 35.3205 41.4993 35.3205 40.7699M22.7564 46.0722C11.9872 49.8877 6.12393 53.1701 1.21795 55.3584M18.0897 22.5324C18.8077 27.6403 18.8077 32.3796 13.7821 35.662" stroke="white" stroke-width="1.5"/>
</svg>
