<svg width="234" height="174" viewBox="0 0 234 174" fill="none" xmlns="http://www.w3.org/2000/svg">
<path d="M171.166 80.2932C167.476 81.4614 164.282 83.8296 162.092 87.0213C159.843 90.2795 158.683 94.166 158.778 98.1238C158.778 98.1838 158.79 98.2432 158.813 98.2986C158.836 98.3541 158.87 98.4044 158.912 98.4468C158.955 98.4893 159.005 98.5229 159.06 98.5459C159.116 98.5688 159.175 98.5806 159.235 98.5806C159.296 98.5786 159.356 98.5646 159.412 98.5394C159.467 98.5142 159.517 98.4783 159.559 98.4337C159.601 98.3891 159.633 98.3368 159.655 98.2796C159.676 98.2224 159.686 98.1616 159.684 98.1006C159.577 94.3443 160.661 90.6505 162.781 87.5478C164.854 84.5275 167.876 82.2851 171.367 81.1758C171.43 81.1618 171.49 81.1349 171.541 81.0967C171.593 81.0586 171.637 81.0101 171.669 80.9543C171.701 80.8985 171.721 80.8367 171.728 80.7727C171.735 80.7086 171.729 80.6439 171.709 80.5825C171.69 80.5211 171.658 80.4644 171.616 80.416C171.573 80.3675 171.521 80.3285 171.463 80.3013C171.404 80.2741 171.341 80.2593 171.277 80.2579C171.212 80.2565 171.148 80.2685 171.089 80.2932H171.166Z" fill="black"/>
<path d="M186.038 51.0286C184.748 50.6938 183.382 50.8084 182.167 51.3538C181.146 51.9391 180.245 52.7113 179.511 53.63C179.795 51.6394 179.95 49.6326 179.975 47.622C179.975 45.4386 179.906 42.9146 178.876 40.7467C177.931 38.7337 175.833 36.7594 173.309 36.8755C172.359 36.9898 171.448 37.3253 170.651 37.855C169.854 38.3848 169.192 39.0941 168.718 39.926C168.195 40.7912 167.787 41.7202 167.503 42.6901C167.503 42.4113 167.503 42.1326 167.503 41.8539C167.509 39.8735 167.136 37.9101 166.403 36.0703C166.028 35.1338 165.446 34.2942 164.7 33.6144C163.955 32.9346 163.065 32.4323 162.098 32.145C161.156 31.954 160.18 31.999 159.259 32.2759C158.338 32.5528 157.499 33.053 156.818 33.7321C156.279 34.2532 155.82 34.8506 155.455 35.5051C155.455 33.345 155.022 31.1152 153.504 29.5745C152.213 28.3808 150.517 27.7198 148.758 27.7241C144.632 27.5924 140.242 30.0468 137.33 34.1812C134.52 38.153 133.25 43.0927 132.461 46.9561C130.753 55.3191 130.208 63.8778 130.842 72.3898C129.741 72.4275 128.645 72.5622 127.567 72.7924C125.84 69.4634 123.369 66.5775 120.345 64.3592C117.32 62.1408 113.826 60.6498 110.132 60.002C107.321 59.522 104.596 60.304 102.064 61.2253C101.285 61.5234 100.594 62.0119 100.053 62.6463C99.5118 63.2807 99.1385 64.0406 98.967 64.8565C98.7714 65.709 98.7952 66.5973 99.0363 67.4382C99.2773 68.279 99.7276 69.045 100.345 69.6645L101.801 71.1201C111.479 80.7903 126.104 95.3924 134.187 105.775C134.638 106.301 135.008 106.89 135.287 107.525C135.512 108.277 135.609 109.063 135.573 109.847C135.573 111.14 135.573 112.433 135.573 113.719C132.452 114.264 129.371 115.019 126.352 115.979L117.386 118.612C113.244 119.835 108.962 121.097 104.611 121.236C99.8265 121.407 95.5449 120.067 92.5873 117.497C91.6093 116.64 90.773 115.634 90.1098 114.516C92.121 114.686 94.1465 114.534 96.1101 114.067C98.8266 113.508 101.279 112.058 103.078 109.948C104.004 108.832 104.606 107.483 104.819 106.048C105.032 104.614 104.848 103.148 104.286 101.811C103.898 101.03 103.355 100.338 102.689 99.7759C102.023 99.214 101.249 98.7945 100.415 98.5435C98.0795 97.8264 95.5563 98.0515 93.3848 99.1707C90.856 100.48 88.9309 102.716 88.0116 105.411C87.2088 108.06 87.3847 110.91 88.5071 113.44C82.0809 112.387 75.7864 108.221 71.7526 101.919C67.7188 95.6169 66.333 85.3041 66.333 77.1436C68.5086 77.2288 70.6919 77.3062 72.8753 77.3604C73.1631 77.3677 73.4478 77.2981 73.6998 77.1587C73.9518 77.0194 74.162 76.8152 74.3088 76.5675C74.4555 76.3197 74.5335 76.0373 74.5347 75.7493C74.5358 75.4613 74.4601 75.1782 74.3153 74.9293C73.5228 73.4858 72.872 71.969 72.372 70.4C75.2045 70.1512 77.9965 69.5611 80.6873 68.6425C81.8642 68.2244 85.7199 67.094 85.7586 67.094C85.8633 67.0609 85.9534 66.9928 86.014 66.9012C86.0746 66.8097 86.1019 66.7001 86.0915 66.5908C84.3572 52.6545 85.2321 33.8947 88.1277 22.9393C88.1465 22.8707 88.1493 22.7988 88.1358 22.729C88.1224 22.6592 88.0932 22.5934 88.0503 22.5367C88.0066 22.4794 87.9504 22.4329 87.886 22.4007C87.8216 22.3685 87.7507 22.3514 87.6787 22.3509L80.455 22.3044C80.8035 17.4964 77.6213 15.4601 73.7502 13.4936C70.2041 11.6586 65.9536 11.8754 62.6476 12.2703C58.4822 12.7735 55.633 14.322 53.14 17.357C51.999 18.8593 51.2632 20.6295 51.0031 22.498H45.1189C45.055 22.4978 44.9918 22.5107 44.9332 22.536C44.8746 22.5613 44.8218 22.5985 44.7782 22.6451L44.3137 23.1561C44.2518 23.2126 44.2072 23.2856 44.1853 23.3665C44.1634 23.4473 44.1649 23.5328 44.1898 23.6129C48.538 37.9407 49.4504 53.0912 46.8532 67.8373C46.8318 67.9529 46.8551 68.0723 46.9183 68.1715C46.9815 68.2706 47.08 68.3421 47.1938 68.3715C47.5035 68.4412 54.4717 70.1445 58.6525 70.431C58.2886 71.1433 57.917 71.9253 57.5299 72.7072C57.3244 73.1316 57.2265 73.6001 57.2449 74.0712C57.2632 74.5424 57.3973 75.0018 57.6353 75.4089C57.8733 75.816 58.2078 76.1582 58.6094 76.4054C59.0109 76.6525 59.4671 76.7971 59.9378 76.8262C61.765 76.9268 63.5922 77.012 65.4271 77.0972C65.4271 85.4202 66.8749 96.066 70.9706 102.446C75.2831 109.166 82.0809 113.548 88.9871 114.47C89.739 115.909 90.7525 117.195 91.9757 118.263C95.0726 120.996 99.6019 122.406 104.642 122.235C109.11 122.088 113.445 120.811 117.642 119.58L126.615 116.939C129.542 116.008 132.527 115.269 135.55 114.725C135.65 126.207 135.658 137.782 135.55 149.217C135.55 149.341 135.599 149.459 135.686 149.546C135.773 149.633 135.891 149.682 136.014 149.682C136.075 149.683 136.135 149.672 136.191 149.649C136.248 149.627 136.299 149.593 136.342 149.551C136.386 149.508 136.42 149.458 136.443 149.402C136.467 149.346 136.479 149.286 136.479 149.225C136.579 137.743 136.572 126.122 136.479 114.593C138.931 114.233 141.425 114.272 143.865 114.71C149.587 115.825 154.859 122.165 155.014 128.057H145.615C145.615 130.837 145.94 137.774 145.94 137.774C148.185 137.774 151.607 137.72 154.913 137.65V161.535C154.913 161.659 154.962 161.777 155.049 161.864C155.137 161.951 155.255 162 155.378 162C155.501 162 155.619 161.951 155.706 161.864C155.794 161.777 155.842 161.659 155.842 161.535V137.635C160.488 137.534 164.646 137.426 164.646 137.426V128.057H155.974C155.827 121.763 150.183 114.988 144.074 113.796C141.574 113.348 139.017 113.3 136.502 113.657C136.502 112.402 136.502 111.14 136.502 109.886C136.539 108.991 136.424 108.095 136.161 107.238C135.857 106.509 135.439 105.832 134.923 105.233C128.504 97.0415 118.098 86.2564 109.226 77.3062C110.457 75.4403 111.262 72.5137 110.534 70.5007C109.722 68.4298 108.296 66.6573 106.446 65.4217C104.829 64.343 103.104 63.4373 101.298 62.7196C101.625 62.461 101.991 62.2546 102.381 62.1079C104.789 61.233 107.375 60.482 109.977 60.9311C113.587 61.564 116.999 63.0356 119.937 65.2275C122.876 67.4194 125.258 70.2704 126.894 73.5512C126.941 73.6458 127.018 73.7222 127.114 73.7684C127.209 73.8146 127.317 73.8281 127.42 73.8067C129.909 73.2311 132.489 73.1747 135 73.641C137.511 74.1072 139.899 75.0861 142.015 76.5165C146.387 79.5272 149.407 84.129 150.431 89.3379C150.454 89.459 150.525 89.5658 150.627 89.6348C150.73 89.7038 150.855 89.7292 150.976 89.7056C151.098 89.682 151.204 89.6112 151.273 89.5089C151.342 89.4065 151.368 89.2809 151.344 89.1598C150.269 83.7075 147.101 78.8935 142.518 75.75C139.341 73.6048 135.605 72.4367 131.771 72.3898C131.143 63.9498 131.687 55.4633 133.39 47.1729C134.164 43.4024 135.395 38.5789 138.105 34.7851C140.815 30.9913 144.903 28.5912 148.743 28.7228C150.263 28.6964 151.736 29.2501 152.862 30.2713C154.681 32.114 154.666 35.2729 154.41 37.8201C154.41 38.1298 154.348 38.4318 154.325 38.7415V38.8344C154.325 38.8344 154.325 38.8808 154.325 38.904C153.551 46.6464 151.762 52.8403 148.851 57.9425C149.11 56.1188 149.05 54.264 148.673 52.4609C148.55 51.6749 148.184 50.9469 147.628 50.3782C147.163 50.033 146.609 49.8283 146.031 49.7885C145.453 49.7487 144.876 49.8754 144.368 50.1537C142.794 50.9687 141.59 52.3531 141 54.0249C140.571 55.157 140.257 56.3294 140.064 57.5244C139.514 55.5078 139.277 53.419 139.359 51.3306C139.348 48.4833 139.647 45.6432 140.249 42.8604C140.272 42.7986 140.281 42.7327 140.277 42.6671C140.272 42.6015 140.253 42.5376 140.222 42.4797C140.191 42.4218 140.147 42.3713 140.095 42.3313C140.043 42.2914 139.983 42.2631 139.918 42.2481C139.854 42.2332 139.788 42.2321 139.723 42.2448C139.659 42.2575 139.598 42.2838 139.544 42.322C139.49 42.3601 139.445 42.4092 139.412 42.4659C139.379 42.5227 139.358 42.5859 139.351 42.6514C138.726 45.4992 138.417 48.4072 138.43 51.3228C138.43 53.7307 138.554 56.936 139.878 59.5297C139.895 59.5716 139.919 59.6108 139.947 59.6459C140.341 60.4023 140.847 61.0942 141.449 61.6976C141.828 62.1006 142.302 62.4015 142.828 62.5725C145.15 63.517 147.775 61.2563 147.891 61.1634L147.961 61.0782C148.092 60.9001 148.216 60.7143 148.34 60.5285C148.344 60.508 148.344 60.487 148.34 60.4665C148.394 60.3969 148.441 60.3194 148.487 60.2498C148.362 60.9104 148.318 61.5838 148.356 62.255C148.4 63.0824 148.599 63.8941 148.944 64.6474C149.272 65.2922 149.737 65.8571 150.307 66.3026C150.877 66.748 151.537 67.0631 152.242 67.2256C152.767 67.352 153.305 67.4144 153.845 67.4115C154.653 67.4018 155.456 67.2926 156.237 67.0863C157.963 66.8508 159.556 66.0311 160.751 64.7636C160.601 65.9823 160.656 67.2174 160.914 68.418C160.952 68.596 161.007 68.7664 161.053 68.9445V68.9986C161.276 69.8253 161.69 70.5881 162.261 71.2255C162.833 71.863 163.546 72.3573 164.344 72.6685C164.808 72.8247 165.294 72.9032 165.784 72.9008C166.633 72.882 167.468 72.6869 168.238 72.3279C169.066 71.9557 169.846 71.4852 170.561 70.9265C172.184 69.6369 173.606 68.113 174.78 66.4049C173.955 68.8845 173.458 71.4613 173.302 74.0699C173.302 74.2557 173.302 74.4183 173.302 74.5964C173.294 74.6295 173.294 74.6639 173.302 74.697C173.273 75.7313 173.471 76.7593 173.882 77.7088C174.074 78.1004 174.345 78.4487 174.676 78.7322C175.008 79.0158 175.393 79.2287 175.81 79.3579C176.141 79.4608 176.486 79.513 176.832 79.5128C177.552 79.5014 178.259 79.3154 178.892 78.9708C180.421 78.0528 181.74 76.8236 182.763 75.3629C183.789 74.0353 184.705 72.6268 185.504 71.151C185.411 74.9293 185.163 77.9798 184.729 82.1297C184.365 85.6989 183.808 89.7637 181.764 92.969C180.806 94.3413 179.717 95.617 178.512 96.7783C176.897 98.263 175.532 99.999 174.471 101.919C173.649 103.794 173.146 105.794 172.984 107.834C171.939 116.955 171.018 142.497 172.52 153.514C172.534 153.625 172.589 153.727 172.673 153.801C172.757 153.875 172.865 153.916 172.976 153.917H173.038C173.161 153.9 173.272 153.835 173.347 153.736C173.423 153.638 173.456 153.514 173.441 153.39C171.947 142.474 172.868 117.048 173.913 107.974C174.061 106.035 174.532 104.136 175.307 102.353C176.328 100.524 177.635 98.869 179.178 97.4519C180.428 96.25 181.556 94.9274 182.546 93.5032C184.698 90.1663 185.279 85.9699 185.643 82.3C186.117 77.998 186.376 73.6749 186.417 69.347C187.68 66.6764 188.653 63.8784 189.32 61.0008C189.746 59.1813 190.513 54.7062 188.546 52.4222C187.889 51.6912 187.006 51.2007 186.038 51.0286ZM61.3082 58.2832H50.0508C49.9276 58.2832 49.8094 58.2343 49.7223 58.1471C49.6352 58.06 49.5862 57.9419 49.5862 57.8187C49.5862 57.6955 49.6352 57.5773 49.7223 57.4902C49.8094 57.4031 49.9276 57.3541 50.0508 57.3541H61.3082C61.4314 57.3541 61.5495 57.4031 61.6366 57.4902C61.7238 57.5773 61.7727 57.6955 61.7727 57.8187C61.7727 57.9419 61.7238 58.06 61.6366 58.1471C61.5495 58.2343 61.4314 58.2832 61.3082 58.2832ZM49.7565 49.844C49.7565 49.7208 49.8055 49.6027 49.8926 49.5155C49.9797 49.4284 50.0979 49.3795 50.2211 49.3795H60.2862C60.4094 49.3795 60.5275 49.4284 60.6147 49.5155C60.7018 49.6027 60.7507 49.7208 60.7507 49.844C60.7507 49.9672 60.7018 50.0854 60.6147 50.1725C60.5275 50.2596 60.4094 50.3086 60.2862 50.3086H50.2211C50.0979 50.3086 49.9797 50.2596 49.8926 50.1725C49.8055 50.0854 49.7565 49.9672 49.7565 49.844ZM61.1456 42.8759H49.7256C49.6024 42.8759 49.4842 42.8269 49.3971 42.7398C49.31 42.6527 49.261 42.5345 49.261 42.4113C49.261 42.2881 49.31 42.17 49.3971 42.0829C49.4842 41.9957 49.6024 41.9468 49.7256 41.9468H61.1456C61.2688 41.9468 61.3869 41.9957 61.4741 42.0829C61.5612 42.17 61.6101 42.2881 61.6101 42.4113C61.6042 42.5305 61.5526 42.6428 61.4661 42.7249C61.3796 42.8071 61.2649 42.8528 61.1456 42.8527V42.8759ZM45.3279 23.427H51.4134C51.5366 23.427 51.6548 23.3781 51.7419 23.291C51.829 23.2039 51.878 23.0857 51.878 22.9625C52.0881 21.1502 52.7717 19.4252 53.86 17.9609C54.9267 16.5842 56.2717 15.4479 57.8072 14.6261C59.3427 13.8043 61.0343 13.3155 62.7715 13.1916C65.9304 12.8123 70.0028 12.6032 73.3553 14.322C77.8304 16.5983 80.006 18.5184 79.5105 22.7147C79.5019 22.7802 79.5079 22.8468 79.5279 22.9097C79.548 22.9726 79.5817 23.0303 79.6266 23.0786C79.6686 23.1278 79.7208 23.1672 79.7797 23.194C79.8386 23.2207 79.9026 23.2342 79.9673 23.2335L87.1057 23.2799C85.4102 30.0081 84.4424 39.4383 84.3185 48.8917C81.3764 49.573 77.6136 48.342 75.3064 46.4529C72.8753 44.4631 70.901 41.9313 68.3382 40.1661C66.3163 38.8776 64.1248 37.877 61.8269 37.193C59.5341 36.335 57.1248 35.8286 54.6807 35.691C52.3943 35.5887 50.1413 36.2687 48.2932 37.6188C48.0042 35.6987 47.6687 33.7992 47.2867 31.9204H60.6346C60.7578 31.9204 60.8759 31.8715 60.9631 31.7844C61.0502 31.6973 61.0991 31.5791 61.0991 31.4559C61.0991 31.3327 61.0502 31.2145 60.9631 31.1274C60.8759 31.0403 60.7578 30.9913 60.6346 30.9913H47.0777C46.546 28.4983 45.9112 26.0388 45.1731 23.6129L45.3279 23.427ZM88.8942 105.728C89.7363 103.264 91.4976 101.22 93.8106 100.022C95.7581 99.0134 98.0233 98.8077 100.121 99.4494C100.837 99.6628 101.502 100.021 102.075 100.502C102.648 100.982 103.116 101.576 103.45 102.244C104.487 104.366 104.046 107.323 102.381 109.437C100.694 111.379 98.4138 112.713 95.8933 113.231C93.8303 113.721 91.6979 113.849 89.591 113.61C88.3587 111.169 88.1093 108.348 88.8942 105.728ZM109.659 70.8413C110.263 72.4982 109.582 75.0067 108.552 76.6559C106.384 74.4725 104.309 72.3975 102.428 70.5162L100.972 69.0606C100.25 68.3302 99.8144 67.3639 99.7462 66.3387C99.6779 65.3135 99.9813 64.2981 100.601 63.4783C102.458 64.1973 104.236 65.1081 105.904 66.1959C107.594 67.332 108.903 68.9508 109.659 70.8413ZM143.145 61.6976C142.752 61.5728 142.399 61.3457 142.123 61.0395C141.594 60.5083 141.153 59.8968 140.815 59.2278C140.934 57.5481 141.296 55.8946 141.891 54.3191C142.398 52.8781 143.433 51.6829 144.786 50.9744C145.133 50.7795 145.526 50.6836 145.924 50.6972C146.321 50.7109 146.707 50.8335 147.039 51.0518C147.451 51.4969 147.721 52.055 147.814 52.6545C148.278 55.0909 148.199 57.5998 147.581 60.002L147.279 60.4511C146.947 60.7762 144.841 62.3712 143.145 61.6744V61.6976ZM152.436 66.343C151.865 66.2141 151.329 65.9615 150.866 65.603C150.403 65.2445 150.025 64.7888 149.757 64.2681C149.757 64.1906 149.695 64.1132 149.664 64.0358C150.624 59.9401 153.357 57.4161 155.672 56.7347C156.149 56.5418 156.67 56.4817 157.178 56.5608C157.687 56.6398 158.164 56.8551 158.56 57.1838C159.466 58.0742 159.598 59.8472 158.939 62.1776C158.653 63.4231 158.098 64.591 157.314 65.5997L157.197 65.7546C157.157 65.8152 157.131 65.8839 157.12 65.9559C156.778 66.0597 156.429 66.1348 156.075 66.1804H156.021C154.863 66.5092 153.643 66.5491 152.467 66.2966L152.436 66.343ZM158.676 65.2591C159.192 64.3762 159.58 63.4248 159.83 62.4331C160.798 59.011 160.031 57.3309 159.218 56.5257C158.705 56.0792 158.081 55.7801 157.411 55.6601C156.742 55.5401 156.053 55.6038 155.417 55.8444C153.202 56.4947 150.647 58.6239 149.308 62.0382C149.358 60.4693 149.68 58.921 150.26 57.4625L150.384 57.0676C152.947 52.1125 154.557 46.1045 155.254 38.8731C155.507 37.2011 156.285 35.653 157.476 34.4522C158.042 33.8831 158.739 33.4609 159.505 33.222C160.272 32.9832 161.085 32.9351 161.874 33.0818C162.703 33.3373 163.464 33.7762 164.101 34.3659C164.738 34.9557 165.233 35.6811 165.551 36.4884C166.227 38.2152 166.571 40.0539 166.566 41.9081C166.745 47.2416 165.834 52.5557 163.887 57.5244C163.224 59.3266 162.35 61.0443 161.285 62.6422C160.606 63.6626 159.73 64.5366 158.707 65.2126L158.676 65.2591ZM164.63 71.8014C163.995 71.549 163.425 71.1559 162.964 70.6517C162.503 70.1474 162.162 69.5452 161.967 68.8903C162.571 67.6824 163.802 65.4604 164.421 64.4926C164.992 63.4923 165.872 62.7044 166.93 62.2473C167.417 62.0565 167.951 62.0203 168.459 62.1436C168.967 62.2668 169.425 62.5436 169.771 62.9364C170.187 63.5382 170.376 64.2678 170.305 64.9958C170.223 65.7938 170.028 66.5759 169.725 67.3185L169.585 67.6902C169.206 68.7277 168.432 70.8336 167.789 71.5614C166.805 72.0057 165.692 72.0745 164.661 71.7549L164.63 71.8014ZM169.972 70.1987C169.787 70.3458 169.601 70.4852 169.399 70.6245C169.771 69.8503 170.127 68.8825 170.46 67.9844L170.592 67.6205C170.931 66.8 171.148 65.9338 171.234 65.05C171.324 64.0948 171.063 63.1396 170.499 62.3634C170.034 61.8201 169.413 61.4335 168.72 61.2561C168.027 61.0788 167.296 61.1194 166.628 61.3724C165.363 61.8869 164.308 62.8112 163.631 63.9971C163.151 64.7713 162.315 66.2269 161.673 67.4347C161.462 66.0134 161.589 64.5624 162.044 63.1996C163.148 61.5538 164.055 59.7842 164.746 57.9271C166.262 54.0486 167.165 49.9583 167.425 45.8025C167.518 45.7873 167.603 45.7443 167.671 45.6794C167.739 45.6144 167.785 45.5305 167.804 45.4386C168.066 43.7055 168.641 42.0344 169.5 40.5067C169.893 39.7961 170.449 39.1886 171.122 38.7338C171.794 38.279 172.565 37.9898 173.371 37.8898C175.462 37.7891 177.242 39.4383 178.017 41.188C178.961 43.1856 179.054 45.578 179.023 47.6529C179.041 51.9005 178.339 56.1203 176.948 60.1336C175.601 64.0497 173.198 67.5171 170.003 70.1523L169.972 70.1987ZM178.411 78.2121C177.697 78.6247 176.849 78.7414 176.05 78.5372C175.754 78.436 175.482 78.2743 175.251 78.0624C175.021 77.8505 174.836 77.593 174.711 77.3062C174.377 76.4838 174.224 75.5993 174.262 74.7125C175.072 73.1629 176.308 71.8764 177.823 71.0039C178.644 70.5703 179.766 70.3923 180.293 71.0039C180.435 71.2003 180.548 71.4169 180.626 71.6465C180.93 72.5474 181.019 73.5072 180.884 74.4486C180.75 75.39 180.396 76.2866 179.852 77.0662C179.813 77.1165 179.787 77.1747 179.774 77.2365C179.362 77.5899 178.916 77.9012 178.442 78.1656L178.411 78.2121ZM188.477 60.784C187.358 65.8803 185.165 70.6792 182.043 74.8596C181.903 75.03 181.772 75.1848 181.648 75.3474C181.974 74.0403 181.918 72.6669 181.485 71.391C181.375 71.0589 181.21 70.7475 180.997 70.4697C180.13 69.4167 178.551 69.5793 177.366 70.2065C176.188 70.894 175.153 71.8007 174.316 72.8776C174.695 70.1116 175.351 67.3906 176.275 64.7558L176.662 63.4861C176.689 63.4031 176.689 63.3136 176.662 63.2306C177.112 62.3277 177.51 61.3997 177.854 60.4511C178.343 59.1035 178.741 57.7249 179.046 56.3244C179.114 56.2698 179.161 56.1931 179.178 56.1076C179.542 54.6753 181.501 52.7706 182.592 52.2364C183.621 51.7917 184.768 51.7044 185.852 51.9887C186.628 52.0896 187.345 52.4562 187.88 53.0261C189.08 54.3346 189.297 57.238 188.484 60.7762L188.477 60.784Z" fill="black"/>
<path d="M61.8597 22.8399C65.2945 23.3642 68.7783 23.4915 72.2422 23.2192C73.2564 23.1031 74.4333 22.8012 74.8359 21.8179C74.9603 21.4318 74.9763 21.0189 74.8821 20.6243C74.7879 20.2297 74.5871 19.8686 74.3017 19.5803C73.7264 19.0358 73.0235 18.6445 72.2577 18.4422C70.3916 17.832 68.4247 17.5901 66.4664 17.7299L61.3874 18.1402C60.3433 18.212 59.3511 18.6225 58.5614 19.3093C58.1866 19.5728 57.9307 19.9734 57.8491 20.4242C57.8697 20.8028 58.0233 21.162 58.2827 21.4385C59.1421 22.4218 60.559 22.6463 61.8597 22.8399Z" fill="black"/>
</svg>
