<svg width="234" height="175" viewBox="0 0 234 175" fill="none" xmlns="http://www.w3.org/2000/svg">
<path fill-rule="evenodd" clip-rule="evenodd" d="M74.2166 6.6323C71.6662 14.1698 71.4568 22.3028 73.6163 29.9616L73.6166 29.9627L73.1196 30.1016C73.6166 29.9627 73.6166 29.9626 73.6166 29.9627L73.617 29.9642L73.6457 30.0662C73.665 30.1345 73.6936 30.2355 73.7309 30.3658C73.8053 30.6265 73.9141 31.0045 74.0514 31.4733C74.3261 32.4109 74.7145 33.7108 75.1696 35.1598C76.0817 38.0637 77.254 41.5415 78.311 43.9067C78.3903 44.0789 78.4705 44.2523 78.5511 44.4267C79.273 45.9881 80.0348 47.6356 80.544 49.3105C81.1126 51.1808 81.3817 53.1299 80.9238 55.0988C80.8743 55.3118 80.6959 55.4704 80.4787 55.4947C80.2614 55.5191 80.0524 55.4039 79.9569 55.2072L62.594 19.4236C62.5939 19.4233 62.5938 19.4231 62.5936 19.4228C62.2858 18.7944 61.9489 18.1627 61.5336 17.6584C61.1237 17.1607 60.6697 16.8266 60.134 16.7214C59.5256 16.6361 58.9065 16.7664 58.3839 17.0898C58.3814 17.0913 58.3788 17.0928 58.3763 17.0944C58.3748 17.0952 58.3734 17.0961 58.3719 17.0969C57.1361 17.8162 56.3903 19.0355 55.9962 20.5013C55.6011 21.9706 55.5723 23.6473 55.7441 25.1942C56.5534 32.5203 59.9046 39.1891 63.3474 45.9487C63.4002 46.0524 63.4531 46.1561 63.5059 46.2599C66.8822 52.8876 70.3089 59.6141 71.2749 67.0156C71.3006 67.2129 71.2106 67.4075 71.0435 67.5156C70.8764 67.6237 70.662 67.6261 70.4925 67.5217C66.85 65.2778 63.6737 62.3535 61.1369 58.9086C61.1305 58.8998 61.1243 58.8909 61.1185 58.8818C59.3958 56.2046 57.9828 53.7345 56.6274 51.3652C56.1022 50.4472 55.5857 49.5443 55.0631 48.6503C53.1884 45.4429 51.2215 42.323 48.459 38.9423C48.4519 38.9336 48.445 38.9247 48.4385 38.9155C48.0099 38.3147 47.4599 37.8107 46.8242 37.436C46.1394 37.1 45.3283 37.1467 44.5575 37.4959C43.7793 37.8484 43.092 38.4901 42.7042 39.2467C41.9001 40.816 41.9994 42.7325 42.3071 44.6388C43.4863 51.789 46.9833 58.2924 50.4566 64.7392L50.458 64.7417C54.5476 72.4334 58.5627 80.1767 62.5031 87.9716C64.5895 92.1014 66.7079 96.3501 67.8077 100.933L67.8084 100.936C68.9436 105.799 68.914 110.805 68.6814 115.698C68.2761 124.286 67.2416 132.836 66.2013 141.347C66.1667 141.63 65.9094 141.831 65.6265 141.797C65.3436 141.762 65.1423 141.505 65.1769 141.222C66.2178 132.705 67.2473 124.193 67.6505 115.649C67.8823 110.773 67.9043 105.888 66.8038 101.172C65.7362 96.7248 63.6751 92.5802 61.5821 88.4372C57.6451 80.6492 53.6336 72.9127 49.5477 65.2279C49.5474 65.2273 49.5471 65.2267 49.5468 65.2262L49.533 65.2006C46.0794 58.7904 42.4987 52.1445 41.2887 44.8059L41.2884 44.8042C40.977 42.875 40.8184 40.6638 41.7858 38.7761C42.2839 37.8041 43.1489 37.001 44.1316 36.5558C45.1162 36.1098 46.2683 36.0042 47.3005 36.5202C47.3106 36.5253 47.3205 36.5307 47.3303 36.5364C48.0931 36.9826 48.7534 37.5843 49.2686 38.3021C52.0735 41.7365 54.0686 44.9037 55.9541 48.1295C56.4858 49.039 57.0075 49.9511 57.5356 50.8743C58.8842 53.2317 60.2745 55.662 61.9775 58.3097C64.2115 61.3403 66.9566 63.9546 70.0867 66.0366C68.9625 59.2458 65.7769 52.992 62.5491 46.6552L62.4278 46.4171C58.999 39.6851 55.5517 32.8514 54.7184 25.3078C54.5377 23.6812 54.5605 21.8664 54.9996 20.2333C55.4391 18.5987 56.3085 17.1064 57.8468 16.2085C58.5777 15.7581 59.4435 15.5787 60.2933 15.7017C60.3008 15.7028 60.3083 15.704 60.3158 15.7054C61.1772 15.8693 61.8292 16.394 62.3302 17.0023C62.8284 17.6073 63.2096 18.3341 63.5208 18.9696L63.5217 18.9714L80.1224 53.1841C80.1427 52.0027 79.9215 50.811 79.5566 49.6107C79.0695 48.0084 78.3388 46.4275 77.6125 44.8559C77.5323 44.6824 77.4521 44.5089 77.3724 44.3356L77.37 44.3305C76.2859 41.9055 75.098 38.3757 74.185 35.469C73.7275 34.0122 73.3371 32.7057 73.061 31.7634C72.923 31.2922 72.8135 30.9119 72.7385 30.6492C72.701 30.5179 72.6721 30.4159 72.6525 30.3467L72.6303 30.2678L72.623 30.2417C70.4063 22.3799 70.6219 14.0312 73.2415 6.29428C73.2431 6.28957 73.2448 6.28489 73.2465 6.28023C74.8227 2.03273 77.2299 0.24159 79.5207 0.0227204C81.7611 -0.191329 83.767 1.13459 84.3732 2.83808C85.3587 5.6073 85.2141 8.60011 85.0778 11.4191C85.0644 11.6961 85.0511 11.9715 85.039 12.2448C84.5593 23.1697 88.5525 35.3498 92.1093 46.1992C92.4681 47.2936 92.8224 48.3745 93.1673 49.4392C93.1715 49.4522 93.1752 49.4653 93.1784 49.4786L94.0746 53.2389C94.2044 52.9153 94.3419 52.5436 94.4862 52.1261C94.8738 51.0048 95.2959 49.5983 95.7403 48.0001C96.6289 44.804 97.5994 40.8683 98.5544 36.9645C98.6338 36.6399 98.7131 36.3155 98.7922 35.9918C99.6637 32.4269 100.515 28.9432 101.269 26.1498C101.68 24.6266 102.064 23.3005 102.409 22.2741C102.581 21.7612 102.745 21.3163 102.9 20.9559C103.051 20.6055 103.208 20.299 103.375 20.0891L111.167 10.2587C111.8 9.46023 112.567 8.57702 113.452 7.93698C114.341 7.29364 115.398 6.86164 116.584 7.06025L116.586 7.06063C117.868 7.28108 118.761 8.16174 119.316 9.22324C119.869 10.2811 120.116 11.5661 120.102 12.7353L120.102 12.737C120.016 18.5048 117.827 26.089 113.77 30.8943L106.931 64.0043L106.935 64.0761C106.942 64.169 106.951 64.3057 106.964 64.4805C106.988 64.8301 107.024 65.3322 107.069 65.9416C107.158 67.1606 107.282 68.8088 107.424 70.5262C107.566 72.2442 107.724 74.0288 107.882 75.5216C108.041 77.03 108.195 78.1995 108.322 78.715C108.391 78.9917 108.222 79.2714 107.945 79.3397C107.668 79.4081 107.389 79.2393 107.32 78.9626C107.173 78.3644 107.013 77.1183 106.856 75.6298C106.697 74.1257 106.537 72.3322 106.395 70.6111C106.253 68.8895 106.129 67.2379 106.039 66.0169C105.995 65.4063 105.959 64.9033 105.934 64.5528C105.922 64.3776 105.912 64.2405 105.906 64.1472L105.896 64.0065L105.896 64.0047C105.896 64.0046 105.896 64.0041 106.411 63.9691L105.896 64.0041C105.893 63.9574 105.896 63.9105 105.906 63.8647L112.786 30.5563C112.803 30.4708 112.842 30.3912 112.899 30.3249C116.819 25.7507 118.985 18.3525 119.07 12.7232C119.082 11.6909 118.861 10.5807 118.401 9.70135C117.944 8.82606 117.28 8.22764 116.413 8.07793C115.596 7.94156 114.817 8.22338 114.057 8.77307C113.292 9.32625 112.597 10.1159 111.975 10.8998C111.975 10.8998 111.975 10.8997 111.975 10.8998L104.184 20.7293C104.184 20.7294 104.184 20.7292 104.184 20.7293C104.106 20.8281 103.992 21.0306 103.848 21.3642C103.709 21.6883 103.554 22.1037 103.387 22.6024C103.053 23.5994 102.675 24.9022 102.266 26.4187C101.515 29.1996 100.666 32.6714 99.7938 36.2405C99.715 36.5629 99.636 36.8862 99.5568 37.2097C98.6026 41.1106 97.6283 45.0623 96.7346 48.2766C96.2878 49.8835 95.8592 51.313 95.4616 52.4633C95.0692 53.5982 94.6914 54.5091 94.336 55.0439C94.2224 55.215 94.018 55.3024 93.8158 55.2663C93.6135 55.2303 93.4519 55.0778 93.4043 54.878L92.1792 49.7377C91.8357 48.6774 91.4817 47.5982 91.1224 46.503C87.5759 35.6914 83.5194 23.3252 84.008 12.1992C84.0199 11.9303 84.0327 11.6616 84.0455 11.3937C84.1815 8.53673 84.3142 5.75028 83.4009 3.1841C82.9665 1.96353 81.4291 0.877105 79.6188 1.05006C77.86 1.2181 75.7105 2.61181 74.2166 6.6323Z" fill="black"/>
<path d="M123.522 56.4099C125.489 54.5169 128.19 53.357 130.766 53.7477C131.183 53.7903 131.581 53.9386 131.925 54.1785C132.313 54.5002 132.517 54.9595 132.595 55.5286C132.674 56.1095 132.616 56.7632 132.512 57.4027C131.802 61.2016 130.874 64.9563 129.732 68.6481L129.729 68.6581C129.549 69.2821 128.902 70.6056 127.973 72.342C127.057 74.0561 125.897 76.1146 124.732 78.178L124.412 78.7427C123.355 80.6131 122.311 82.4612 121.461 84.0235C120.535 85.7235 119.811 87.1374 119.57 87.8686C119.337 88.5664 119.115 89.2369 118.901 89.8831L118.901 89.8847C115.712 99.511 114.309 103.747 107.826 112.452L105.376 114.893C105.306 114.963 105.258 115.051 105.236 115.147C103.858 121.333 103.861 127.654 103.999 133.943C104.014 134.649 104.031 135.355 104.048 136.06C104.184 141.652 104.319 147.205 103.603 152.68C103.566 152.963 103.765 153.222 104.048 153.259C104.33 153.296 104.589 153.096 104.626 152.814C105.354 147.254 105.216 141.617 105.08 136.035C105.063 135.329 105.046 134.624 105.03 133.921C104.894 127.683 104.896 121.523 106.211 115.518L108.581 113.156C108.599 113.138 108.616 113.119 108.631 113.099C115.233 104.239 116.679 99.8751 119.88 90.2115C120.094 89.5637 120.317 88.892 120.549 88.1936L120.549 88.1924C120.755 87.569 121.426 86.2461 122.367 84.5167C123.213 82.9627 124.253 81.1226 125.311 79.2506L125.311 79.2494L125.63 78.6856C126.795 76.6241 127.96 74.5551 128.883 72.8288C129.793 71.1289 130.501 69.7018 130.719 68.9485C131.873 65.2183 132.811 61.4245 133.527 57.5861L133.529 57.5747C133.639 56.9001 133.718 56.124 133.617 55.3885C133.515 54.6459 133.224 53.905 132.563 53.3672C132.554 53.3601 132.545 53.3532 132.536 53.3467C132.048 53.0004 131.479 52.7854 130.883 52.7224C127.907 52.2757 124.93 53.6231 122.806 55.6662C122.242 56.2094 121.544 57.2158 120.81 58.4045C120.068 59.6082 119.259 61.0475 118.475 62.4949C117.69 63.9424 116.936 65.3868 116.289 66.6242C115.632 67.8827 115.086 68.9273 114.735 69.5429C114.018 70.8018 112.672 72.5719 111.042 74.6495C110.696 75.0892 110.339 75.5417 109.974 76.0048L109.973 76.0055C108.736 77.5733 107.404 79.2607 106.126 80.9725C105.957 81.1988 106.006 81.5191 106.235 81.6854C106.458 81.8484 106.771 81.8027 106.939 81.5826L110.611 76.7629L115.632 70.0537C115.985 69.4332 116.548 68.3571 117.219 67.0739C117.869 65.8305 118.62 64.3928 119.382 62.9866C120.163 61.5455 120.961 60.1258 121.689 58.9465C122.426 57.752 123.063 56.8514 123.522 56.4099Z" fill="black"/>
<path fill-rule="evenodd" clip-rule="evenodd" d="M82.5764 25.6478C82.756 25.869 82.7223 26.194 82.5011 26.3736C81.5118 27.177 80.2983 27.6551 79.0269 27.7425C77.7554 27.8298 76.488 27.5221 75.398 26.8616C75.1543 26.7138 75.0765 26.3965 75.2242 26.1528C75.3719 25.9091 75.6892 25.8313 75.933 25.979C76.841 26.5293 77.8969 26.7856 78.9561 26.7129C80.0154 26.6401 81.0263 26.2418 81.8505 25.5725C82.0718 25.3928 82.3967 25.4265 82.5764 25.6478Z" fill="black"/>
<path fill-rule="evenodd" clip-rule="evenodd" d="M81.6716 30.3505C81.8579 30.5661 81.8342 30.892 81.6185 31.0783C80.8027 31.7833 79.7411 32.1372 78.6654 32.0627C78.3811 32.043 78.1666 31.7966 78.1863 31.5123C78.206 31.228 78.4524 31.0134 78.7367 31.0331C79.5407 31.0888 80.334 30.8243 80.9438 30.2975C81.1594 30.1111 81.4853 30.1349 81.6716 30.3505Z" fill="black"/>
<path fill-rule="evenodd" clip-rule="evenodd" d="M67.9782 37.2978C68.2218 37.4459 68.2991 37.7633 68.1511 38.0068C67.6519 38.8278 66.9673 39.5204 66.1521 40.0291C65.337 40.5378 64.414 40.8483 63.4571 40.9359C63.1733 40.9618 62.9222 40.7528 62.8962 40.469C62.8703 40.1852 63.0793 39.9341 63.3631 39.9081C64.1593 39.8353 64.9274 39.5768 65.6058 39.1536C66.2842 38.7303 66.8539 38.1539 67.2693 37.4707C67.4173 37.2272 67.7347 37.1498 67.9782 37.2978Z" fill="black"/>
<path fill-rule="evenodd" clip-rule="evenodd" d="M54.8513 51.9334C55.1063 52.0607 55.2097 52.3707 55.0824 52.6256C54.7085 53.3742 54.178 54.0337 53.5269 54.5595C52.8759 55.0852 52.1195 55.4649 51.3089 55.6727C51.0328 55.7435 50.7516 55.5771 50.6808 55.3011C50.6101 55.025 50.7765 54.7438 51.0525 54.6731C51.7198 54.5019 52.3426 54.1894 52.8786 53.7565C53.4146 53.3237 53.8513 52.7808 54.1591 52.1645C54.2865 51.9095 54.5964 51.8061 54.8513 51.9334Z" fill="black"/>
<path fill-rule="evenodd" clip-rule="evenodd" d="M56.7057 57.6121C56.9073 57.8136 56.9073 58.1403 56.7057 58.3418L55.8457 59.2018C55.6442 59.4034 55.3175 59.4034 55.116 59.2018C54.9145 59.0003 54.9145 58.6736 55.116 58.4721L55.976 57.6121C56.1775 57.4106 56.5042 57.4106 56.7057 57.6121Z" fill="black"/>
<path d="M132.211 53.8125C128.986 53.8727 127.163 60.0476 127.163 62.4729C127.163 65.4055 127.791 66.9278 131.102 65.6721" stroke="black" stroke-width="1.03202" stroke-linecap="round" stroke-linejoin="round"/>
<path fill-rule="evenodd" clip-rule="evenodd" d="M72.441 79.3854C72.4526 79.1482 72.6544 78.9654 72.8916 78.9771C75.7627 79.1184 78.615 79.5193 81.4139 80.1747L81.4144 80.1748C84.2765 80.8491 86.9021 82.287 89.0115 84.3356C89.1819 84.5011 89.1859 84.7733 89.0204 84.9437C88.855 85.114 88.5828 85.118 88.4124 84.9526C86.4146 83.0124 83.928 81.6505 81.2174 81.012C78.4692 80.3684 75.6684 79.9749 72.8493 79.8361C72.6121 79.8244 72.4293 79.6226 72.441 79.3854Z" fill="black"/>
<path d="M104.613 133.766H104.502V142.177H104.648C110.737 142.607 109.24 147.191 107.95 148.051C105.585 149.642 102.154 150.098 99.4102 150.33C93.8016 150.79 88.1578 150.558 82.6055 149.642C77.3134 148.887 72.2388 147.03 67.71 144.189C65.4653 142.693 62.7649 140.569 61.8533 137.92C61.6813 137.206 61.676 136.462 61.838 135.746C62 135.029 62.3248 134.36 62.7872 133.789C63.2496 133.219 63.8373 132.762 64.5046 132.456C65.1718 132.149 65.9008 132 66.635 132.02L67.495 122.715C56.9512 123.377 50.4666 136.991 55.8332 144.68C61.8533 153.28 73.0335 156.978 82.9409 158.32C92.4871 159.61 106.161 160.831 114.099 154.174C121.891 147.655 114.151 134.97 104.613 133.766Z" fill="black" stroke="black" stroke-width="1.03202" stroke-linecap="round" stroke-linejoin="round"/>
<path fill-rule="evenodd" clip-rule="evenodd" d="M65.0135 149.704C65.2956 149.745 65.4917 150.006 65.4514 150.288L62.6563 169.854C62.616 170.136 62.3546 170.332 62.0725 170.292C61.7904 170.251 61.5943 169.99 61.6346 169.708L64.4297 150.142C64.47 149.86 64.7314 149.664 65.0135 149.704Z" fill="black"/>
<path fill-rule="evenodd" clip-rule="evenodd" d="M104.078 155.934C104.363 155.937 104.591 156.171 104.587 156.456L104.372 173.656C104.369 173.941 104.135 174.169 103.85 174.166C103.565 174.162 103.337 173.928 103.34 173.643L103.555 156.443C103.559 156.158 103.793 155.93 104.078 155.934Z" fill="black"/>
<path fill-rule="evenodd" clip-rule="evenodd" d="M116.875 7.23589C117.154 7.18222 117.425 7.36559 117.479 7.64548C117.57 8.1221 117.421 8.63173 117.193 9.10075C116.959 9.5827 116.604 10.0957 116.182 10.6104C115.335 11.6414 114.165 12.7389 112.97 13.6913C111.775 14.6421 110.528 15.4706 109.518 15.9491C109.021 16.1848 108.536 16.3574 108.125 16.3929C107.918 16.4108 107.688 16.3978 107.475 16.3039C107.244 16.2022 107.067 16.0198 106.976 15.7743C106.877 15.5071 107.013 15.2101 107.28 15.1109C107.53 15.018 107.807 15.1313 107.922 15.3653C107.945 15.3679 107.982 15.3694 108.037 15.3647C108.262 15.3452 108.613 15.2361 109.076 15.0165C109.988 14.5845 111.166 13.8079 112.327 12.884C113.485 11.9616 114.597 10.9143 115.384 9.95554C115.778 9.47528 116.079 9.03203 116.265 8.64952C116.457 8.25409 116.494 7.99105 116.465 7.83986C116.411 7.55997 116.595 7.28957 116.875 7.23589Z" fill="black"/>
<path fill-rule="evenodd" clip-rule="evenodd" d="M136.056 25.6629C137.021 26.6275 137.566 27.9356 137.569 29.3007C138.938 29.3007 140.25 29.8444 141.218 30.8121C142.186 31.7798 142.729 33.0923 142.729 34.4608C142.729 35.8294 142.186 37.1419 141.218 38.1096C140.25 39.0773 138.938 39.6209 137.569 39.6209H127.249V24.1406H132.409C133.087 24.1423 133.758 24.2777 134.384 24.5389C135.01 24.8001 135.578 25.182 136.056 25.6629ZM128.556 38.3137H137.569C138.596 38.324 139.584 37.9261 140.317 37.2076C141.05 36.489 141.468 35.5087 141.478 34.4823C141.488 33.4559 141.09 32.4675 140.372 31.7344C139.653 31.0014 138.673 30.5838 137.647 30.5736H137.371C137.26 30.9927 137.098 31.397 136.89 31.7776C136.44 32.5799 135.788 33.2501 134.998 33.7212C134.216 34.182 133.326 34.4282 132.418 34.435H128.556V38.3137ZM134.645 32.457C135.298 31.995 135.794 31.3435 136.064 30.5908H132.418C131.618 30.59 130.837 30.8378 130.184 31.3C129.53 31.7622 129.037 32.4159 128.771 33.1708H132.418C133.216 33.1666 133.993 32.9175 134.645 32.457ZM132.418 25.4393H128.556V31.0466C128.634 30.9606 128.72 30.866 128.814 30.78C128.964 30.6281 129.125 30.4873 129.296 30.3585C130.193 29.6741 131.289 29.3025 132.418 29.3007H136.279V29.0685C136.222 28.0859 135.791 27.1624 135.075 26.4876C134.358 25.8127 133.411 25.4376 132.426 25.4393H132.418Z" fill="black"/>
<path d="M106.686 28.1523C108.537 29.3622 110.678 30.0542 112.887 30.1562" stroke="black" stroke-width="1.03202" stroke-linecap="round" stroke-linejoin="round"/>
<path d="M147.021 21.4509L154.331 26.1809L148.595 31.9087L164.321 29.5623L155.914 41.2753L163.637 38.7985L164.505 47.4589L171.144 35.04L159.291 21.25L147.021 21.4509Z" fill="black"/>
<path fill-rule="evenodd" clip-rule="evenodd" d="M170.683 19.6496C169.467 19.6388 168.367 20.198 167.473 20.9986C166.795 21.6089 166.217 22.337 165.813 23.0835C165.625 23.4303 165.476 23.781 165.371 24.1256C165.357 24.1691 165.345 24.2124 165.333 24.2556C165.029 25.3713 165.219 26.3419 166.054 26.9723L166.083 26.9942L168.959 30.1653L168.963 30.1706C169.678 31.0177 170.8 31.2493 172.044 30.9855C172.062 30.9818 172.079 30.978 172.097 30.9741C172.408 30.9048 172.722 30.8052 173.033 30.679C173.95 30.307 174.837 29.7035 175.531 28.9607C176.485 27.9363 176.905 26.3451 176.193 24.363C176.087 24.0685 175.956 23.7653 175.798 23.454C175.536 22.9363 175.199 22.3963 174.778 21.8367C174.15 21.1629 173.54 20.6714 172.955 20.327C172.65 20.1476 172.352 20.0081 172.061 19.9035C171.58 19.7305 171.119 19.6534 170.683 19.6496Z" fill="black"/>
<path d="M155.573 11.0658C159.59 14.3321 162.778 18.5001 164.88 23.2299C165.329 22.2087 166.074 21.2163 166.955 20.423L166.956 20.4222C167.945 19.5375 169.223 18.8626 170.69 18.8756C171.087 18.8791 171.493 18.933 171.905 19.0437C170.798 13.0848 169.215 7.68903 166.701 3.42578C162.526 4.92546 158.898 7.61807 155.573 11.0658Z" fill="black"/>
<path d="M183.248 42.3229L183.278 42.3733L183.281 42.384C183.31 42.3881 183.359 42.3907 183.436 42.3827C183.687 42.3567 184.068 42.2363 184.557 42.0132C185.522 41.5727 186.784 40.7915 188.021 39.8537C189.258 38.9161 190.449 37.8388 191.283 36.8155C191.701 36.3035 192.019 35.8174 192.211 35.3795C192.406 34.938 192.457 34.5824 192.396 34.3099C192.377 34.224 192.312 34.083 192.164 33.8839C192.019 33.6902 191.816 33.4665 191.556 33.2165C191.035 32.7167 190.313 32.1379 189.453 31.5166C187.735 30.2752 185.498 28.8888 183.292 27.6587C181.084 26.4277 178.924 25.3622 177.36 24.7573C177.269 24.7221 177.181 24.6888 177.095 24.6572C177.634 26.6221 177.196 28.3084 176.097 29.4885L176.097 29.4891C175.427 30.2053 174.595 30.8075 173.711 31.2261C177.496 34.3437 180.724 38.0952 183.248 42.3229Z" fill="black"/>
<path fill-rule="evenodd" clip-rule="evenodd" d="M181.912 41.6971V52.0339C181.912 52.3189 181.681 52.5499 181.396 52.5499H120.997C120.712 52.5499 120.481 52.3189 120.481 52.0339V12.3441C120.481 12.0591 120.712 11.8281 120.997 11.8281H155.227C155.633 12.1628 156.03 12.5069 156.418 12.8601H121.513V51.5179H180.88V40.1537C181.235 40.66 181.579 41.1746 181.912 41.6971Z" fill="black"/>
<path d="M181.912 12.3441C181.912 12.0591 181.681 11.8281 181.396 11.8281H171.053C171.152 12.1693 171.249 12.5133 171.343 12.8601H180.88V25.4656C181.218 25.6348 181.563 25.8114 181.912 25.9942V12.3441Z" fill="black"/>
<path d="M180.899 40.1805V46.9044L151.917 12.8555H156.413C159.842 15.9755 162.561 19.808 164.373 24.0942L164.504 24.4036C164.274 25.5857 164.518 26.7635 165.558 27.5673L168.376 30.6753C169.338 31.8102 170.794 32.0418 172.205 31.7428C172.42 31.6971 172.637 31.6388 172.852 31.5689C175.925 34.0462 178.634 36.9452 180.899 40.1805Z" fill="black"/>
</svg>
